Sarala-Regular.ufo
<glyph name="exclam" format="1">
  <advance width="242"/>
  <unicode hex="0021"/>
  <outline>
    <contour>
      <point x="169" y="720" type="line"/>
      <point x="73" y="720" type="line"/>
      <point x="85" y="184" type="line"/>
      <point x="156" y="184" type="line"/>
    </contour>
    <contour>
      <point x="168" y="92" type="line"/>
      <point x="75" y="92" type="line"/>
      <point x="75" y="0" type="line"/>
      <point x="168" y="0" type="line"/>
    </contour>
  </outline>
</glyph>
<glyph name="eight" format="1">
  <advance width="606"/>
  <unicode hex="0038"/>
  <outline>
    <contour>
      <point x="484" y="408"/>
      <point x="528" y="468"/>
      <point x="528" y="535" type="curve" smooth="yes"/>
      <point x="528" y="646"/>
      <point x="442" y="716"/>
      <point x="304" y="716" type="curve" smooth="yes"/>
      <point x="166" y="716"/>
      <point x="80" y="646"/>
      <point x="80" y="535" type="curve" smooth="yes"/>
      <point x="80" y="450"/>
      <point x="122" y="403"/>
      <point x="177" y="372" type="curve"/>
      <point x="90" y="327"/>
      <point x="49" y="268"/>
      <point x="49" y="189" type="curve" smooth="yes"/>
      <point x="49" y="66"/>
      <point x="148" y="-10"/>
      <point x="308" y="-10" type="curve" smooth="yes"/>
      <point x="458" y="-10"/>
      <point x="559" y="72"/>
      <point x="559" y="194" type="curve" smooth="yes"/>
      <point x="559" y="294"/>
      <point x="491" y="340"/>
      <point x="412" y="373" type="curve"/>
    </contour>
    <contour>
      <point x="386" y="636"/>
      <point x="435" y="599"/>
      <point x="435" y="535" type="curve" smooth="yes"/>
      <point x="435" y="481"/>
      <point x="403" y="432"/>
      <point x="346" y="398" type="curve"/>
      <point x="257" y="429"/>
      <point x="173" y="457"/>
      <point x="173" y="535" type="curve" smooth="yes"/>
      <point x="173" y="597"/>
      <point x="223" y="636"/>
      <point x="304" y="636" type="curve" smooth="yes"/>
    </contour>
    <contour>
      <point x="208" y="70"/>
      <point x="142" y="117"/>
      <point x="142" y="190" type="curve" smooth="yes"/>
      <point x="142" y="251"/>
      <point x="171" y="293"/>
      <point x="248" y="341" type="curve"/>
      <point x="352" y="305"/>
      <point x="466" y="289"/>
      <point x="466" y="195" type="curve" smooth="yes"/>
      <point x="466" y="120"/>
      <point x="402" y="70"/>
      <point x="308" y="70" type="curve" smooth="yes"/>
    </contour>
  </outline>
</glyph>
<glyph name="colon" format="1">
  <advance width="190"/>
  <unicode hex="003A"/>
  <outline>
    <contour>
      <point x="145" y="461" type="line"/>
      <point x="45" y="461" type="line"/>
      <point x="45" y="361" type="line"/>
      <point x="145" y="361" type="line"/>
    </contour>
    <contour>
      <point x="145" y="117" type="line"/>
      <point x="45" y="117" type="line"/>
      <point x="45" y="17" type="line"/>
      <point x="145" y="17" type="line"/>
    </contour>
  </outline>
</glyph>
<glyph name="J" format="1">
  <advance width="334"/>
  <unicode hex="004A"/>
  <outline>
    <contour>
      <point x="33" y="-139" type="line"/>
      <point x="151" y="-99"/>
      <point x="244" y="16"/>
      <point x="244" y="121" type="curve" smooth="yes"/>
      <point x="244" y="708" type="line"/>
      <point x="11" y="708" type="line"/>
      <point x="11" y="623" type="line"/>
      <point x="150" y="623" type="line"/>
      <point x="150" y="121" type="line" smooth="yes"/>
      <point x="150" y="47"/>
      <point x="83" y="-39"/>
      <point x="-3" y="-74" type="curve"/>
    </contour>
  </outline>
</glyph>
<glyph name="X" format="1">
  <advance width="620"/>
  <unicode hex="0058"/>
  <outline>
    <contour>
      <point x="496" y="0" type="line"/>
      <point x="607" y="0" type="line"/>
      <point x="373" y="367" type="line"/>
      <point x="589" y="708" type="line"/>
      <point x="477" y="708" type="line"/>
      <point x="310" y="444" type="line"/>
      <point x="143" y="708" type="line"/>
      <point x="31" y="708" type="line"/>
      <point x="247" y="367" type="line"/>
      <point x="13" y="0" type="line"/>
      <point x="124" y="0" type="line"/>
      <point x="310" y="290" type="line"/>
    </contour>
  </outline>
</glyph>
<glyph name="t" format="1">
  <advance width="387"/>
  <unicode hex="0074"/>
  <outline>
    <contour>
      <point x="346" y="91" type="line"/>
      <point x="320" y="82"/>
      <point x="296" y="78"/>
      <point x="273" y="78" type="curve" smooth="yes"/>
      <point x="219" y="78"/>
      <point x="198" y="101"/>
      <point x="198" y="160" type="curve" smooth="yes"/>
      <point x="198" y="433" type="line"/>
      <point x="355" y="433" type="line"/>
      <point x="355" y="514" type="line"/>
      <point x="198" y="514" type="line"/>
      <point x="198" y="661" type="line"/>
      <point x="129" y="661" type="line"/>
      <point x="109" y="514" type="line"/>
      <point x="14" y="514" type="line"/>
      <point x="14" y="433" type="line"/>
      <point x="104" y="433" type="line"/>
      <point x="104" y="145" type="line" smooth="yes"/>
      <point x="104" y="46"/>
      <point x="157" y="-6"/>
      <point x="256" y="-6" type="curve" smooth="yes"/>
      <point x="289" y="-6"/>
      <point x="324" y="1"/>
      <point x="364" y="17" type="curve"/>
    </contour>
  </outline>
</glyph>
<glyph name="u" format="1">
  <advance width="590"/>
  <unicode hex="0075"/>
  <outline>
    <contour>
      <point x="71" y="175" type="line" smooth="yes"/>
      <point x="71" y="55"/>
      <point x="131" y="-9"/>
      <point x="246" y="-9" type="curve" smooth="yes"/>
      <point x="316" y="-9"/>
      <point x="374" y="17"/>
      <point x="420" y="71" type="curve"/>
      <point x="432" y="0" type="line"/>
      <point x="508" y="0" type="line"/>
      <point x="508" y="514" type="line"/>
      <point x="414" y="514" type="line"/>
      <point x="414" y="150" type="line"/>
      <point x="380" y="103"/>
      <point x="323" y="74"/>
      <point x="264" y="74" type="curve" smooth="yes"/>
      <point x="195" y="74"/>
      <point x="165" y="107"/>
      <point x="165" y="182" type="curve" smooth="yes"/>
      <point x="165" y="514" type="line"/>
      <point x="71" y="514" type="line"/>
    </contour>
  </outline>
</glyph>
<glyph name="asciitilde" format="1">
  <advance width="661"/>
  <unicode hex="007E"/>
  <outline>
    <contour>
      <point x="303" y="381"/>
      <point x="320" y="271"/>
      <point x="435" y="271" type="curve" smooth="yes"/>
      <point x="523" y="271"/>
      <point x="581" y="335"/>
      <point x="581" y="434" type="curve"/>
      <point x="500" y="434" type="line"/>
      <point x="500" y="379"/>
      <point x="475" y="345"/>
      <point x="433" y="345" type="curve" smooth="yes"/>
      <point x="355" y="345"/>
      <point x="349" y="455"/>
      <point x="226" y="455" type="curve" smooth="yes"/>
      <point x="138" y="455"/>
      <point x="80" y="391"/>
      <point x="80" y="292" type="curve"/>
      <point x="161" y="292" type="line"/>
      <point x="161" y="348"/>
      <point x="187" y="381"/>
      <point x="232" y="381" type="curve" smooth="yes"/>
    </contour>
  </outline>
</glyph>
<glyph name="section" format="1">
  <advance width="405"/>
  <unicode hex="00A7"/>
  <outline>
    <contour>
      <point x="131" y="772"/>
      <point x="63" y="709"/>
      <point x="63" y="609" type="curve" smooth="yes"/>
      <point x="63" y="563"/>
      <point x="81" y="518"/>
      <point x="118" y="476" type="curve"/>
      <point x="56" y="436"/>
      <point x="24" y="377"/>
      <point x="24" y="306" type="curve" smooth="yes"/>
      <point x="24" y="137"/>
      <point x="241" y="84"/>
      <point x="241" y="-30" type="curve" smooth="yes"/>
      <point x="241" y="-86"/>
      <point x="211" y="-115"/>
      <point x="152" y="-115" type="curve" smooth="yes"/>
      <point x="124" y="-115"/>
      <point x="102" y="-112"/>
      <point x="79" y="-106" type="curve"/>
      <point x="69" y="-177" type="line"/>
      <point x="106" y="-187"/>
      <point x="136" y="-191"/>
      <point x="165" y="-191" type="curve" smooth="yes"/>
      <point x="273" y="-191"/>
      <point x="341" y="-128"/>
      <point x="341" y="-28" type="curve" smooth="yes"/>
      <point x="341" y="18"/>
      <point x="324" y="61"/>
      <point x="287" y="105" type="curve"/>
      <point x="348" y="143"/>
      <point x="381" y="203"/>
      <point x="381" y="274" type="curve" smooth="yes"/>
      <point x="381" y="437"/>
      <point x="163" y="503"/>
      <point x="163" y="612" type="curve" smooth="yes"/>
      <point x="163" y="667"/>
      <point x="195" y="697"/>
      <point x="253" y="697" type="curve" smooth="yes"/>
      <point x="277" y="697"/>
      <point x="300" y="694"/>
      <point x="326" y="688" type="curve"/>
      <point x="336" y="758" type="line"/>
      <point x="305" y="767"/>
      <point x="270" y="772"/>
      <point x="240" y="772" type="curve" smooth="yes"/>
    </contour>
    <contour>
      <point x="269" y="338"/>
      <point x="297" y="302"/>
      <point x="297" y="251" type="curve" smooth="yes"/>
      <point x="297" y="210"/>
      <point x="283" y="172"/>
      <point x="255" y="137" type="curve"/>
      <point x="136" y="242"/>
      <point x="108" y="279"/>
      <point x="108" y="331" type="curve" smooth="yes"/>
      <point x="108" y="369"/>
      <point x="122" y="407"/>
      <point x="150" y="444" type="curve"/>
    </contour>
  </outline>
</glyph>
<glyph name="Ccedilla" format="1">
  <advance width="618"/>
  <unicode hex="00C7"/>
  <outline>
    <contour>
      <point x="396" y="-213"/>
      <point x="435" y="-184"/>
      <point x="435" y="-128" type="curve" smooth="yes"/>
      <point x="435" y="-94"/>
      <point x="406" y="-58"/>
      <point x="369" y="-45" type="curve"/>
      <point x="382" y="-7" type="line"/>
      <point x="453" y="-6"/>
      <point x="533" y="13"/>
      <point x="597" y="43" type="curve"/>
      <point x="562" y="125" type="line"/>
      <point x="503" y="98"/>
      <point x="439" y="83"/>
      <point x="381" y="83" type="curve" smooth="yes"/>
      <point x="232" y="83"/>
      <point x="148" y="181"/>
      <point x="148" y="356" type="curve" smooth="yes"/>
      <point x="148" y="529"/>
      <point x="233" y="626"/>
      <point x="384" y="626" type="curve" smooth="yes"/>
      <point x="439" y="626"/>
      <point x="490" y="612"/>
      <point x="552" y="579" type="curve"/>
      <point x="592" y="657" type="line"/>
      <point x="530" y="695"/>
      <point x="456" y="716"/>
      <point x="384" y="716" type="curve" smooth="yes"/>
      <point x="173" y="716"/>
      <point x="48" y="582"/>
      <point x="48" y="356" type="curve" smooth="yes"/>
      <point x="48" y="136"/>
      <point x="150" y="9"/>
      <point x="338" y="-5" type="curve"/>
      <point x="304" y="-54" type="line"/>
      <point x="310" y="-75" type="line"/>
      <point x="350" y="-87"/>
      <point x="367" y="-102"/>
      <point x="367" y="-126" type="curve" smooth="yes"/>
      <point x="367" y="-149"/>
      <point x="353" y="-162"/>
      <point x="329" y="-162" type="curve" smooth="yes"/>
      <point x="312" y="-162"/>
      <point x="295" y="-157"/>
      <point x="283" y="-150" type="curve"/>
      <point x="265" y="-188" type="line"/>
      <point x="287" y="-201"/>
      <point x="318" y="-213"/>
      <point x="350" y="-213" type="curve" smooth="yes"/>
    </contour>
  </outline>
</glyph>
<glyph name="Igrave" format="1">
  <advance width="282"/>
  <unicode hex="00CC"/>
  <outline>
    <contour>
      <point x="174" y="795" type="line"/>
      <point x="41" y="959" type="line"/>
      <point x="-19" y="897" type="line"/>
      <point x="137" y="761" type="line"/>
    </contour>
    <contour>
      <point x="189" y="708" type="line"/>
      <point x="93" y="708" type="line"/>
      <point x="93" y="0" type="line"/>
      <point x="189" y="0" type="line"/>
    </contour>
  </outline>
</glyph>
<glyph name="ae" format="1">
  <advance width="853"/>
  <unicode hex="00E6"/>
  <outline>
    <contour>
      <point x="815" y="240" type="line"/>
      <point x="815" y="261" type="line" smooth="yes"/>
      <point x="815" y="437"/>
      <point x="745" y="523"/>
      <point x="601" y="523" type="curve" smooth="yes"/>
      <point x="521" y="523"/>
      <point x="459" y="494"/>
      <point x="420" y="440" type="curve"/>
      <point x="390" y="494"/>
      <point x="334" y="522"/>
      <point x="257" y="522" type="curve" smooth="yes"/>
      <point x="195" y="522"/>
      <point x="125" y="506"/>
      <point x="65" y="478" type="curve"/>
      <point x="91" y="402" type="line"/>
      <point x="144" y="425"/>
      <point x="202" y="439"/>
      <point x="249" y="439" type="curve" smooth="yes"/>
      <point x="321" y="439"/>
      <point x="359" y="403"/>
      <point x="362" y="329" type="curve"/>
      <point x="362" y="315" type="line"/>
      <point x="286" y="315" type="line" smooth="yes"/>
      <point x="126" y="315"/>
      <point x="33" y="251"/>
      <point x="33" y="141" type="curve" smooth="yes"/>
      <point x="33" y="48"/>
      <point x="99" y="-12"/>
      <point x="202" y="-12" type="curve" smooth="yes"/>
      <point x="281" y="-12"/>
      <point x="356" y="20"/>
      <point x="417" y="80" type="curve"/>
      <point x="457" y="23"/>
      <point x="521" y="-8"/>
      <point x="604" y="-8" type="curve" smooth="yes"/>
      <point x="667" y="-8"/>
      <point x="727" y="7"/>
      <point x="797" y="42" type="curve"/>
      <point x="767" y="112" type="line"/>
      <point x="706" y="86"/>
      <point x="661" y="75"/>
      <point x="609" y="75" type="curve" smooth="yes"/>
      <point x="515" y="75"/>
      <point x="461" y="133"/>
      <point x="456" y="240" type="curve"/>
    </contour>
    <contour>
      <point x="461" y="319" type="line"/>
      <point x="476" y="399"/>
      <point x="523" y="440"/>
      <point x="601" y="440" type="curve" smooth="yes"/>
      <point x="672" y="440"/>
      <point x="711" y="400"/>
      <point x="718" y="319" type="curve"/>
    </contour>
    <contour>
      <point x="362" y="243" type="line"/>
      <point x="362" y="137" type="line"/>
      <point x="329" y="97"/>
      <point x="273" y="71"/>
      <point x="220" y="71" type="curve" smooth="yes"/>
      <point x="160" y="71"/>
      <point x="127" y="97"/>
      <point x="127" y="143" type="curve" smooth="yes"/>
      <point x="127" y="207"/>
      <point x="187" y="243"/>
      <point x="292" y="243" type="curve" smooth="yes"/>
    </contour>
  </outline>
</glyph>
<glyph name="idieresis" format="1">
  <advance width="258"/>
  <unicode hex="00EF"/>
  <outline>
    <contour>
      <point x="86" y="696" type="line"/>
      <point x="-7" y="696" type="line"/>
      <point x="-7" y="603" type="line"/>
      <point x="86" y="603" type="line"/>
    </contour>
    <contour>
      <point x="267" y="696" type="line"/>
      <point x="175" y="696" type="line"/>
      <point x="175" y="603" type="line"/>
      <point x="267" y="603" type="line"/>
    </contour>
    <contour>
      <point x="176" y="514" type="line"/>
      <point x="82" y="514" type="line"/>
      <point x="82" y="0" type="line"/>
      <point x="176" y="0" type="line"/>
    </contour>
  </outline>
</glyph>
<glyph name="ntilde" format="1">
  <advance width="590"/>
  <unicode hex="00F1"/>
  <outline>
    <contour>
      <point x="166" y="718"/>
      <point x="122" y="671"/>
      <point x="122" y="599" type="curve"/>
      <point x="186" y="599" type="line"/>
      <point x="186" y="630"/>
      <point x="205" y="649"/>
      <point x="234" y="649" type="curve" smooth="yes"/>
      <point x="286" y="649"/>
      <point x="298" y="590"/>
      <point x="374" y="590" type="curve" smooth="yes"/>
      <point x="439" y="590"/>
      <point x="482" y="637"/>
      <point x="482" y="709" type="curve"/>
      <point x="418" y="709" type="line"/>
      <point x="418" y="679"/>
      <point x="402" y="660"/>
      <point x="377" y="660" type="curve" smooth="yes"/>
      <point x="321" y="660"/>
      <point x="313" y="718"/>
      <point x="235" y="718" type="curve" smooth="yes"/>
    </contour>
    <contour>
      <point x="158" y="514" type="line"/>
      <point x="82" y="514" type="line"/>
      <point x="82" y="0" type="line"/>
      <point x="176" y="0" type="line"/>
      <point x="176" y="363" type="line"/>
      <point x="208" y="411"/>
      <point x="265" y="440"/>
      <point x="326" y="440" type="curve" smooth="yes"/>
      <point x="395" y="440"/>
      <point x="425" y="407"/>
      <point x="425" y="331" type="curve" smooth="yes"/>
      <point x="425" y="0" type="line"/>
      <point x="519" y="0" type="line"/>
      <point x="519" y="338" type="line" smooth="yes"/>
      <point x="519" y="458"/>
      <point x="460" y="523"/>
      <point x="350" y="523" type="curve" smooth="yes"/>
      <point x="276" y="523"/>
      <point x="218" y="497"/>
      <point x="169" y="442" type="curve"/>
    </contour>
  </outline>
</glyph>
<glyph name="Edotaccent" format="1">
  <advance width="560"/>
  <unicode hex="0116"/>
  <outline>
    <contour>
      <point x="358" y="890" type="line"/>
      <point x="265" y="890" type="line"/>
      <point x="265" y="797" type="line"/>
      <point x="358" y="797" type="line"/>
    </contour>
    <contour>
      <point x="514" y="708" type="line"/>
      <point x="93" y="708" type="line"/>
      <point x="93" y="0" type="line"/>
      <point x="525" y="0" type="line"/>
      <point x="525" y="85" type="line"/>
      <point x="189" y="85" type="line"/>
      <point x="189" y="328" type="line"/>
      <point x="481" y="328" type="line"/>
      <point x="481" y="413" type="line"/>
      <point x="189" y="413" type="line"/>
      <point x="189" y="623" type="line"/>
      <point x="514" y="623" type="line"/>
    </contour>
  </outline>
</glyph>
<glyph name="Gdotaccent" format="1">
  <advance width="662"/>
  <unicode hex="0120"/>
  <outline>
    <contour>
      <point x="405" y="797" type="line"/>
      <point x="405" y="890" type="line"/>
      <point x="312" y="890" type="line"/>
      <point x="312" y="797" type="line"/>
    </contour>
    <contour>
      <point x="607" y="352" type="line"/>
      <point x="511" y="352" type="line"/>
      <point x="511" y="103" type="line"/>
      <point x="468" y="90"/>
      <point x="423" y="83"/>
      <point x="381" y="83" type="curve" smooth="yes"/>
      <point x="232" y="83"/>
      <point x="148" y="181"/>
      <point x="148" y="356" type="curve" smooth="yes"/>
      <point x="148" y="529"/>
      <point x="233" y="626"/>
      <point x="384" y="626" type="curve" smooth="yes"/>
      <point x="443" y="626"/>
      <point x="498" y="611"/>
      <point x="562" y="579" type="curve"/>
      <point x="602" y="657" type="line"/>
      <point x="535" y="695"/>
      <point x="458" y="716"/>
      <point x="384" y="716" type="curve" smooth="yes"/>
      <point x="173" y="716"/>
      <point x="48" y="582"/>
      <point x="48" y="356" type="curve" smooth="yes"/>
      <point x="48" y="121"/>
      <point x="164" y="-7"/>
      <point x="377" y="-7" type="curve" smooth="yes"/>
      <point x="453" y="-7"/>
      <point x="541" y="12"/>
      <point x="607" y="43" type="curve"/>
    </contour>
  </outline>
</glyph>
<glyph name="Imacron" format="1">
  <advance width="282"/>
  <unicode hex="012A"/>
  <outline>
    <contour>
      <point x="296" y="878" type="line"/>
      <point x="-8" y="878" type="line"/>
      <point x="-8" y="808" type="line"/>
      <point x="296" y="808" type="line"/>
    </contour>
    <contour>
      <point x="189" y="708" type="line"/>
      <point x="93" y="708" type="line"/>
      <point x="93" y="0" type="line"/>
      <point x="189" y="0" type="line"/>
    </contour>
  </outline>
</glyph>
<glyph name="ibreve" format="1">
  <advance width="258"/>
  <unicode hex="012D"/>
  <outline>
    <contour>
      <point x="212" y="707" type="line"/>
      <point x="212" y="667"/>
      <point x="179" y="638"/>
      <point x="132" y="638" type="curve" smooth="yes"/>
      <point x="84" y="638"/>
      <point x="53" y="665"/>
      <point x="53" y="707" type="curve"/>
      <point x="-11" y="707" type="line"/>
      <point x="-11" y="627"/>
      <point x="46" y="573"/>
      <point x="132" y="573" type="curve" smooth="yes"/>
      <point x="218" y="573"/>
      <point x="276" y="627"/>
      <point x="276" y="707" type="curve"/>
    </contour>
    <contour>
      <point x="176" y="514" type="line"/>
      <point x="82" y="514" type="line"/>
      <point x="82" y="0" type="line"/>
      <point x="176" y="0" type="line"/>
    </contour>
  </outline>
</glyph>
<glyph name="ij" format="1">
  <advance width="577"/>
  <unicode hex="0133"/>
  <outline>
    <contour>
      <point x="496" y="694" type="line"/>
      <point x="79" y="694" type="line"/>
      <point x="79" y="614" type="line"/>
      <point x="496" y="614" type="line"/>
    </contour>
    <contour>
      <point x="402" y="514" type="line"/>
      <point x="402" y="118" type="line"/>
      <point x="368" y="90"/>
      <point x="328" y="71"/>
      <point x="287" y="71" type="curve" smooth="yes"/>
      <point x="226" y="71"/>
      <point x="173" y="103"/>
      <point x="173" y="165" type="curve" smooth="yes"/>
      <point x="173" y="514" type="line"/>
      <point x="79" y="514" type="line"/>
      <point x="79" y="165" type="line" smooth="yes"/>
      <point x="79" y="43"/>
      <point x="151" y="-6"/>
      <point x="259" y="-6" type="curve" smooth="yes"/>
      <point x="307" y="-6"/>
      <point x="355" y="8"/>
      <point x="395" y="33" type="curve"/>
      <point x="382" y="-18"/>
      <point x="351" y="-71"/>
      <point x="297" y="-138" type="curve"/>
      <point x="351" y="-182" type="line"/>
      <point x="452" y="-90"/>
      <point x="496" y="-9"/>
      <point x="496" y="88" type="curve" smooth="yes"/>
      <point x="496" y="514" type="line"/>
    </contour>
  </outline>
</glyph>
<glyph name="Jcircumflex" format="1">
  <advance width="334"/>
  <unicode hex="0134"/>
  <outline>
    <contour>
      <point x="297" y="795" type="line"/>
      <point x="164" y="929" type="line"/>
      <point x="127" y="929" type="line"/>
      <point x="-6" y="795" type="line"/>
      <point x="31" y="761" type="line"/>
      <point x="145" y="849" type="line"/>
      <point x="260" y="761" type="line"/>
    </contour>
    <contour>
      <point x="33" y="-139" type="line"/>
      <point x="151" y="-99"/>
      <point x="244" y="16"/>
      <point x="244" y="121" type="curve" smooth="yes"/>
      <point x="244" y="708" type="line"/>
      <point x="11" y="708" type="line"/>
      <point x="11" y="623" type="line"/>
      <point x="150" y="623" type="line"/>
      <point x="150" y="121" type="line" smooth="yes"/>
      <point x="150" y="47"/>
      <point x="83" y="-39"/>
      <point x="-3" y="-74" type="curve"/>
    </contour>
  </outline>
</glyph>
<glyph name="Eng" format="1">
  <advance width="737"/>
  <unicode hex="014A"/>
  <outline>
    <contour>
      <point x="644" y="708" type="line"/>
      <point x="553" y="708" type="line"/>
      <point x="553" y="171" type="line"/>
      <point x="174" y="708" type="line"/>
      <point x="93" y="708" type="line"/>
      <point x="93" y="0" type="line"/>
      <point x="184" y="0" type="line"/>
      <point x="184" y="539" type="line"/>
      <point x="549" y="19" type="line"/>
      <point x="534" y="-46"/>
      <point x="474" y="-115"/>
      <point x="397" y="-145" type="curve"/>
      <point x="433" y="-210" type="line"/>
      <point x="551" y="-170"/>
      <point x="644" y="-55"/>
      <point x="644" y="50" type="curve" smooth="yes"/>
    </contour>
  </outline>
</glyph>
<glyph name="Obreve" format="1">
  <advance width="739"/>
  <unicode hex="014E"/>
  <outline>
    <contour>
      <point x="449" y="901" type="line"/>
      <point x="449" y="861"/>
      <point x="416" y="832"/>
      <point x="369" y="832" type="curve" smooth="yes"/>
      <point x="321" y="832"/>
      <point x="290" y="859"/>
      <point x="290" y="901" type="curve"/>
      <point x="226" y="901" type="line"/>
      <point x="226" y="821"/>
      <point x="283" y="767"/>
      <point x="369" y="767" type="curve" smooth="yes"/>
      <point x="455" y="767"/>
      <point x="513" y="821"/>
      <point x="513" y="901" type="curve"/>
    </contour>
    <contour>
      <point x="165" y="716"/>
      <point x="48" y="586"/>
      <point x="48" y="357" type="curve" smooth="yes"/>
      <point x="48" y="120"/>
      <point x="162" y="-10"/>
      <point x="370" y="-10" type="curve" smooth="yes"/>
      <point x="577" y="-10"/>
      <point x="691" y="121"/>
      <point x="691" y="357" type="curve" smooth="yes"/>
      <point x="691" y="585"/>
      <point x="574" y="716"/>
      <point x="370" y="716" type="curve" smooth="yes"/>
    </contour>
    <contour>
      <point x="512" y="626"/>
      <point x="591" y="530"/>
      <point x="591" y="357" type="curve" smooth="yes"/>
      <point x="591" y="179"/>
      <point x="512" y="80"/>
      <point x="370" y="80" type="curve" smooth="yes"/>
      <point x="227" y="80"/>
      <point x="148" y="178"/>
      <point x="148" y="357" type="curve" smooth="yes"/>
      <point x="148" y="531"/>
      <point x="226" y="626"/>
      <point x="370" y="626" type="curve" smooth="yes"/>
    </contour>
  </outline>
</glyph>
<glyph name="oe" format="1">
  <advance width="928"/>
  <unicode hex="0153"/>
  <outline>
    <contour>
      <point x="377" y="-8"/>
      <point x="444" y="28"/>
      <point x="483" y="95" type="curve"/>
      <point x="522" y="28"/>
      <point x="589" y="-8"/>
      <point x="679" y="-8" type="curve" smooth="yes"/>
      <point x="743" y="-8"/>
      <point x="803" y="8"/>
      <point x="872" y="42" type="curve"/>
      <point x="842" y="112" type="line"/>
      <point x="780" y="85"/>
      <point x="735" y="75"/>
      <point x="684" y="75" type="curve" smooth="yes"/>
      <point x="590" y="75"/>
      <point x="536" y="133"/>
      <point x="531" y="240" type="curve"/>
      <point x="890" y="240" type="line"/>
      <point x="890" y="261" type="line" smooth="yes"/>
      <point x="890" y="437"/>
      <point x="820" y="523"/>
      <point x="676" y="523" type="curve" smooth="yes"/>
      <point x="587" y="523"/>
      <point x="521" y="487"/>
      <point x="483" y="422" type="curve"/>
      <point x="444" y="487"/>
      <point x="377" y="523"/>
      <point x="287" y="523" type="curve" smooth="yes"/>
      <point x="132" y="523"/>
      <point x="43" y="426"/>
      <point x="43" y="258" type="curve" smooth="yes"/>
      <point x="43" y="90"/>
      <point x="133" y="-8"/>
      <point x="287" y="-8" type="curve" smooth="yes"/>
    </contour>
    <contour>
      <point x="192" y="75"/>
      <point x="139" y="140"/>
      <point x="139" y="258" type="curve" smooth="yes"/>
      <point x="139" y="376"/>
      <point x="191" y="440"/>
      <point x="287" y="440" type="curve" smooth="yes"/>
      <point x="383" y="440"/>
      <point x="435" y="376"/>
      <point x="435" y="258" type="curve" smooth="yes"/>
      <point x="435" y="140"/>
      <point x="382" y="75"/>
      <point x="287" y="75" type="curve" smooth="yes"/>
    </contour>
    <contour>
      <point x="551" y="399"/>
      <point x="598" y="440"/>
      <point x="676" y="440" type="curve" smooth="yes"/>
      <point x="744" y="440"/>
      <point x="780" y="403"/>
      <point x="790" y="319" type="curve"/>
      <point x="536" y="319" type="line"/>
    </contour>
  </outline>
</glyph>
<glyph name="Scaron" format="1">
  <advance width="528"/>
  <unicode hex="0160"/>
  <outline>
    <contour>
      <point x="429" y="905" type="line"/>
      <point x="392" y="939" type="line"/>
      <point x="277" y="851" type="line"/>
      <point x="163" y="939" type="line"/>
      <point x="126" y="905" type="line"/>
      <point x="259" y="771" type="line"/>
      <point x="296" y="771" type="line"/>
    </contour>
    <contour>
      <point x="140" y="716"/>
      <point x="50" y="642"/>
      <point x="50" y="517" type="curve" smooth="yes"/>
      <point x="50" y="415"/>
      <point x="100" y="358"/>
      <point x="229" y="323" type="curve" smooth="yes"/>
      <point x="354" y="289"/>
      <point x="389" y="258"/>
      <point x="389" y="194" type="curve" smooth="yes"/>
      <point x="389" y="125"/>
      <point x="336" y="82"/>
      <point x="249" y="82" type="curve" smooth="yes"/>
      <point x="194" y="82"/>
      <point x="151" y="93"/>
      <point x="64" y="128" type="curve"/>
      <point x="35" y="41" type="line"/>
      <point x="113" y="8"/>
      <point x="184" y="-9"/>
      <point x="249" y="-9" type="curve" smooth="yes"/>
      <point x="399" y="-9"/>
      <point x="489" y="68"/>
      <point x="489" y="195" type="curve" smooth="yes"/>
      <point x="489" y="304"/>
      <point x="438" y="365"/>
      <point x="299" y="405" type="curve" smooth="yes"/>
      <point x="183" y="438"/>
      <point x="150" y="469"/>
      <point x="150" y="531" type="curve" smooth="yes"/>
      <point x="150" y="589"/>
      <point x="203" y="625"/>
      <point x="289" y="625" type="curve" smooth="yes"/>
      <point x="332" y="625"/>
      <point x="383" y="613"/>
      <point x="443" y="590" type="curve"/>
      <point x="467" y="678" type="line"/>
      <point x="405" y="704"/>
      <point x="347" y="716"/>
      <point x="291" y="716" type="curve" smooth="yes"/>
    </contour>
  </outline>
</glyph>
<glyph name="uni0163" format="1">
  <advance width="387"/>
  <unicode hex="0163"/>
  <outline>
    <contour>
      <point x="257" y="-6" type="line"/>
      <point x="290" y="-6"/>
      <point x="324" y="1"/>
      <point x="364" y="17" type="curve"/>
      <point x="346" y="91" type="line"/>
      <point x="320" y="82"/>
      <point x="296" y="78"/>
      <point x="273" y="78" type="curve" smooth="yes"/>
      <point x="219" y="78"/>
      <point x="198" y="101"/>
      <point x="198" y="160" type="curve" smooth="yes"/>
      <point x="198" y="433" type="line"/>
      <point x="355" y="433" type="line"/>
      <point x="355" y="514" type="line"/>
      <point x="198" y="514" type="line"/>
      <point x="198" y="661" type="line"/>
      <point x="129" y="661" type="line"/>
      <point x="109" y="514" type="line"/>
      <point x="14" y="514" type="line"/>
      <point x="14" y="433" type="line"/>
      <point x="104" y="433" type="line"/>
      <point x="104" y="145" type="line" smooth="yes"/>
      <point x="104" y="61"/>
      <point x="142" y="10"/>
      <point x="215" y="-3" type="curve"/>
      <point x="179" y="-54" type="line"/>
      <point x="185" y="-75" type="line"/>
      <point x="225" y="-87"/>
      <point x="242" y="-102"/>
      <point x="242" y="-126" type="curve" smooth="yes"/>
      <point x="242" y="-149"/>
      <point x="228" y="-162"/>
      <point x="204" y="-162" type="curve" smooth="yes"/>
      <point x="187" y="-162"/>
      <point x="170" y="-157"/>
      <point x="158" y="-150" type="curve"/>
      <point x="140" y="-188" type="line"/>
      <point x="162" y="-201"/>
      <point x="193" y="-213"/>
      <point x="225" y="-213" type="curve" smooth="yes"/>
      <point x="271" y="-213"/>
      <point x="310" y="-184"/>
      <point x="310" y="-128" type="curve" smooth="yes"/>
      <point x="310" y="-94"/>
      <point x="281" y="-58"/>
      <point x="244" y="-45" type="curve"/>
    </contour>
  </outline>
</glyph>
<glyph name="Utilde" format="1">
  <advance width="709"/>
  <unicode hex="0168"/>
  <outline>
    <contour>
      <point x="215" y="912"/>
      <point x="171" y="865"/>
      <point x="171" y="793" type="curve"/>
      <point x="235" y="793" type="line"/>
      <point x="235" y="824"/>
      <point x="254" y="843"/>
      <point x="283" y="843" type="curve" smooth="yes"/>
      <point x="335" y="843"/>
      <point x="347" y="784"/>
      <point x="423" y="784" type="curve" smooth="yes"/>
      <point x="488" y="784"/>
      <point x="531" y="831"/>
      <point x="531" y="903" type="curve"/>
      <point x="467" y="903" type="line"/>
      <point x="467" y="873"/>
      <point x="451" y="854"/>
      <point x="426" y="854" type="curve" smooth="yes"/>
      <point x="370" y="854"/>
      <point x="362" y="912"/>
      <point x="284" y="912" type="curve" smooth="yes"/>
    </contour>
    <contour>
      <point x="631" y="708" type="line"/>
      <point x="535" y="708" type="line"/>
      <point x="535" y="238" type="line" smooth="yes"/>
      <point x="535" y="132"/>
      <point x="475" y="80"/>
      <point x="354" y="80" type="curve" smooth="yes"/>
      <point x="233" y="80"/>
      <point x="174" y="132"/>
      <point x="174" y="238" type="curve" smooth="yes"/>
      <point x="174" y="708" type="line"/>
      <point x="78" y="708" type="line"/>
      <point x="78" y="238" type="line" smooth="yes"/>
      <point x="78" y="81"/>
      <point x="178" y="-9"/>
      <point x="354" y="-9" type="curve" smooth="yes"/>
      <point x="529" y="-9"/>
      <point x="631" y="82"/>
      <point x="631" y="238" type="curve" smooth="yes"/>
    </contour>
  </outline>
</glyph>
<glyph name="Uring" format="1">
  <advance width="709"/>
  <unicode hex="016E"/>
  <outline>
    <contour>
      <point x="282" y="1020"/>
      <point x="221" y="961"/>
      <point x="221" y="891" type="curve" smooth="yes"/>
      <point x="221" y="821"/>
      <point x="282" y="762"/>
      <point x="355" y="762" type="curve" smooth="yes"/>
      <point x="428" y="762"/>
      <point x="489" y="821"/>
      <point x="489" y="891" type="curve" smooth="yes"/>
      <point x="489" y="961"/>
      <point x="428" y="1020"/>
      <point x="355" y="1020" type="curve" smooth="yes"/>
    </contour>
    <contour>
      <point x="390" y="954"/>
      <point x="418" y="926"/>
      <point x="418" y="891" type="curve" smooth="yes"/>
      <point x="418" y="856"/>
      <point x="390" y="827"/>
      <point x="355" y="827" type="curve" smooth="yes"/>
      <point x="320" y="827"/>
      <point x="291" y="856"/>
      <point x="291" y="891" type="curve" smooth="yes"/>
      <point x="291" y="926"/>
      <point x="320" y="954"/>
      <point x="355" y="954" type="curve" smooth="yes"/>
    </contour>
    <contour>
      <point x="631" y="708" type="line"/>
      <point x="535" y="708" type="line"/>
      <point x="535" y="238" type="line" smooth="yes"/>
      <point x="535" y="132"/>
      <point x="475" y="80"/>
      <point x="354" y="80" type="curve" smooth="yes"/>
      <point x="233" y="80"/>
      <point x="174" y="132"/>
      <point x="174" y="238" type="curve" smooth="yes"/>
      <point x="174" y="708" type="line"/>
      <point x="78" y="708" type="line"/>
      <point x="78" y="238" type="line" smooth="yes"/>
      <point x="78" y="81"/>
      <point x="178" y="-9"/>
      <point x="354" y="-9" type="curve" smooth="yes"/>
      <point x="529" y="-9"/>
      <point x="631" y="82"/>
      <point x="631" y="238" type="curve" smooth="yes"/>
    </contour>
  </outline>
</glyph>
<glyph name="Wcircumflex" format="1">
  <advance width="982"/>
  <unicode hex="0174"/>
  <outline>
    <contour>
      <point x="641" y="795" type="line"/>
      <point x="508" y="929" type="line"/>
      <point x="471" y="929" type="line"/>
      <point x="338" y="795" type="line"/>
      <point x="375" y="761" type="line"/>
      <point x="489" y="849" type="line"/>
      <point x="604" y="761" type="line"/>
    </contour>
    <contour>
      <point x="782" y="0" type="line"/>
      <point x="961" y="708" type="line"/>
      <point x="864" y="708" type="line"/>
      <point x="774" y="347" type="line"/>
      <point x="752" y="261"/>
      <point x="730" y="175"/>
      <point x="708" y="89" type="curve"/>
      <point x="687" y="175"/>
      <point x="665" y="261"/>
      <point x="644" y="347" type="curve" smooth="yes"/>
      <point x="555" y="708" type="line"/>
      <point x="427" y="708" type="line"/>
      <point x="338" y="347" type="line" smooth="yes"/>
      <point x="317" y="261"/>
      <point x="295" y="175"/>
      <point x="274" y="89" type="curve"/>
      <point x="252" y="175"/>
      <point x="230" y="261"/>
      <point x="208" y="347" type="curve"/>
      <point x="118" y="708" type="line"/>
      <point x="21" y="708" type="line"/>
      <point x="200" y="0" type="line"/>
      <point x="345" y="0" type="line"/>
      <point x="448" y="423" type="line" smooth="yes"/>
      <point x="462" y="481"/>
      <point x="476" y="553"/>
      <point x="491" y="616" type="curve"/>
      <point x="506" y="553"/>
      <point x="520" y="481"/>
      <point x="534" y="423" type="curve" smooth="yes"/>
      <point x="637" y="0" type="line"/>
    </contour>
  </outline>
</glyph>
<glyph name="aringacute" format="1">
  <advance width="524"/>
  <unicode hex="01FB"/>
  <outline>
    <contour>
      <point x="335" y="568"/>
      <point x="396" y="627"/>
      <point x="396" y="697" type="curve" smooth="yes"/>
      <point x="396" y="757"/>
      <point x="352" y="808"/>
      <point x="293" y="822" type="curve"/>
      <point x="345" y="867" type="line"/>
      <point x="285" y="929" type="line"/>
      <point x="177" y="796" type="line"/>
      <point x="147" y="772"/>
      <point x="128" y="736"/>
      <point x="128" y="697" type="curve" smooth="yes"/>
      <point x="128" y="627"/>
      <point x="189" y="568"/>
      <point x="262" y="568" type="curve" smooth="yes"/>
    </contour>
    <contour>
      <point x="325" y="662"/>
      <point x="297" y="633"/>
      <point x="262" y="633" type="curve" smooth="yes"/>
      <point x="227" y="633"/>
      <point x="198" y="662"/>
      <point x="198" y="697" type="curve" smooth="yes"/>
      <point x="198" y="732"/>
      <point x="227" y="760"/>
      <point x="262" y="760" type="curve" smooth="yes"/>
      <point x="297" y="760"/>
      <point x="325" y="732"/>
      <point x="325" y="697" type="curve" smooth="yes"/>
    </contour>
    <contour>
      <point x="194" y="522"/>
      <point x="124" y="506"/>
      <point x="64" y="478" type="curve"/>
      <point x="90" y="402" type="line"/>
      <point x="145" y="425"/>
      <point x="203" y="439"/>
      <point x="248" y="439" type="curve" smooth="yes"/>
      <point x="320" y="439"/>
      <point x="358" y="403"/>
      <point x="361" y="329" type="curve"/>
      <point x="361" y="315" type="line"/>
      <point x="285" y="315" type="line" smooth="yes"/>
      <point x="125" y="315"/>
      <point x="32" y="251"/>
      <point x="32" y="143" type="curve" smooth="yes"/>
      <point x="32" y="50"/>
      <point x="98" y="-10"/>
      <point x="200" y="-10" type="curve" smooth="yes"/>
      <point x="264" y="-10"/>
      <point x="320" y="14"/>
      <point x="369" y="60" type="curve"/>
      <point x="383" y="0" type="line"/>
      <point x="455" y="0" type="line"/>
      <point x="455" y="327" type="line" smooth="yes"/>
      <point x="455" y="452"/>
      <point x="383" y="522"/>
      <point x="255" y="522" type="curve" smooth="yes"/>
    </contour>
    <contour>
      <point x="361" y="243" type="line"/>
      <point x="361" y="137" type="line"/>
      <point x="328" y="99"/>
      <point x="273" y="73"/>
      <point x="217" y="73" type="curve" smooth="yes"/>
      <point x="160" y="73"/>
      <point x="126" y="99"/>
      <point x="126" y="146" type="curve" smooth="yes"/>
      <point x="126" y="207"/>
      <point x="187" y="243"/>
      <point x="291" y="243" type="curve" smooth="yes"/>
    </contour>
  </outline>
</glyph>
<glyph name="dotlessj" format="1">
  <advance width="260"/>
  <unicode hex="0237"/>
  <outline>
    <contour>
      <point x="34" y="-182" type="line"/>
      <point x="136" y="-89"/>
      <point x="179" y="-8"/>
      <point x="179" y="88" type="curve" smooth="yes"/>
      <point x="179" y="514" type="line"/>
      <point x="85" y="514" type="line"/>
      <point x="85" y="88" type="line" smooth="yes"/>
      <point x="85" y="20"/>
      <point x="54" y="-46"/>
      <point x="-20" y="-138" type="curve"/>
    </contour>
  </outline>
</glyph>
<glyph name="Omega" format="1">
  <advance width="758"/>
  <unicode hex="03A9"/>
  <outline>
    <contour>
      <point x="53" y="80" type="line"/>
      <point x="53" y="0" type="line"/>
      <point x="331" y="0" type="line"/>
      <point x="331" y="70" type="line"/>
      <point x="226" y="131"/>
      <point x="164" y="249"/>
      <point x="164" y="391" type="curve" smooth="yes"/>
      <point x="164" y="551"/>
      <point x="239" y="636"/>
      <point x="379" y="636" type="curve" smooth="yes"/>
      <point x="519" y="636"/>
      <point x="594" y="551"/>
      <point x="594" y="391" type="curve" smooth="yes"/>
      <point x="594" y="249"/>
      <point x="532" y="131"/>
      <point x="427" y="70" type="curve"/>
      <point x="427" y="0" type="line"/>
      <point x="705" y="0" type="line"/>
      <point x="705" y="80" type="line"/>
      <point x="550" y="80" type="line"/>
      <point x="644" y="152"/>
      <point x="694" y="260"/>
      <point x="694" y="391" type="curve" smooth="yes"/>
      <point x="694" y="593"/>
      <point x="575" y="716"/>
      <point x="379" y="716" type="curve" smooth="yes"/>
      <point x="183" y="716"/>
      <point x="64" y="593"/>
      <point x="64" y="391" type="curve" smooth="yes"/>
      <point x="64" y="259"/>
      <point x="113" y="151"/>
      <point x="207" y="80" type="curve"/>
    </contour>
  </outline>
</glyph>
<glyph name="invertedCandraBindu-deva" format="1">
  <advance width="422"/>
  <unicode hex="0900"/>
  <outline>
    <contour>
      <point x="346" y="908"/>
      <point x="293" y="952"/>
      <point x="211" y="952" type="curve" smooth="yes"/>
      <point x="129" y="952"/>
      <point x="76" y="908"/>
      <point x="50" y="818" type="curve"/>
      <point x="116" y="798" type="line"/>
      <point x="136" y="857"/>
      <point x="164" y="882"/>
      <point x="211" y="882" type="curve" smooth="yes"/>
      <point x="258" y="882"/>
      <point x="286" y="857"/>
      <point x="306" y="798" type="curve"/>
      <point x="372" y="818" type="line"/>
    </contour>
    <contour>
      <point x="186" y="813"/>
      <point x="163" y="790"/>
      <point x="163" y="762" type="curve" smooth="yes"/>
      <point x="163" y="734"/>
      <point x="186" y="711"/>
      <point x="214" y="711" type="curve" smooth="yes"/>
      <point x="242" y="711"/>
      <point x="265" y="734"/>
      <point x="265" y="762" type="curve" smooth="yes"/>
      <point x="265" y="790"/>
      <point x="242" y="813"/>
      <point x="214" y="813" type="curve" smooth="yes"/>
    </contour>
    <contour>
      <point x="211" y="658" type="move" name="_top"/>
    </contour>
  </outline>
</glyph>
<glyph name="visarga-deva" format="1">
  <advance width="202"/>
  <unicode hex="0903"/>
  <outline>
    <contour>
      <point x="129" y="87"/>
      <point x="152" y="110"/>
      <point x="152" y="138" type="curve" smooth="yes"/>
      <point x="152" y="166"/>
      <point x="129" y="189"/>
      <point x="101" y="189" type="curve" smooth="yes"/>
      <point x="73" y="189"/>
      <point x="50" y="166"/>
      <point x="50" y="138" type="curve" smooth="yes"/>
      <point x="50" y="110"/>
      <point x="73" y="87"/>
      <point x="101" y="87" type="curve" smooth="yes"/>
    </contour>
    <contour>
      <point x="129" y="377"/>
      <point x="152" y="400"/>
      <point x="152" y="428" type="curve" smooth="yes"/>
      <point x="152" y="456"/>
      <point x="129" y="479"/>
      <point x="101" y="479" type="curve" smooth="yes"/>
      <point x="73" y="479"/>
      <point x="50" y="456"/>
      <point x="50" y="428" type="curve" smooth="yes"/>
      <point x="50" y="400"/>
      <point x="73" y="377"/>
      <point x="101" y="377" type="curve" smooth="yes"/>
    </contour>
  </outline>
</glyph>
<glyph name="a-deva" format="1">
  <advance width="788"/>
  <unicode hex="0905"/>
  <outline>
    <contour>
      <point x="248" y="344" type="line"/>
      <point x="313" y="312"/>
      <point x="353" y="270"/>
      <point x="353" y="213" type="curve" smooth="yes"/>
      <point x="353" y="155"/>
      <point x="316" y="106"/>
      <point x="238" y="106" type="curve" smooth="yes"/>
      <point x="179" y="106"/>
      <point x="113" y="148"/>
      <point x="77" y="216" type="curve"/>
      <point x="16" y="182" type="line"/>
      <point x="65" y="85"/>
      <point x="149" y="32"/>
      <point x="238" y="32" type="curve" smooth="yes"/>
      <point x="350" y="32"/>
      <point x="437" y="101"/>
      <point x="437" y="213" type="curve" smooth="yes"/>
      <point x="437" y="299"/>
      <point x="380" y="363"/>
      <point x="286" y="404" type="curve"/>
    </contour>
    <contour>
      <point x="197" y="659"/>
      <point x="142" y="645"/>
      <point x="88" y="625" type="curve" smooth="yes"/>
      <point x="112" y="554" type="line"/>
      <point x="155" y="571"/>
      <point x="201" y="583"/>
      <point x="239" y="583" type="curve" smooth="yes"/>
      <point x="289" y="583"/>
      <point x="326" y="563"/>
      <point x="326" y="508" type="curve"/>
      <point x="326" y="446"/>
      <point x="301" y="412"/>
      <point x="154" y="380" type="curve"/>
      <point x="174" y="309" type="line"/>
      <point x="377" y="354"/>
      <point x="410" y="429"/>
      <point x="410" y="510" type="curve"/>
      <point x="410" y="603"/>
      <point x="341" y="659"/>
      <point x="247" y="659" type="curve" smooth="yes"/>
    </contour>
    <contour>
      <point x="298" y="366" type="line"/>
      <point x="347" y="328"/>
      <point x="421" y="305"/>
      <point x="494" y="305" type="curve"/>
      <point x="555" y="305"/>
      <point x="620" y="316"/>
      <point x="666" y="336" type="curve"/>
      <point x="642" y="410" type="line"/>
      <point x="603" y="389"/>
      <point x="555" y="379"/>
      <point x="494" y="379" type="curve"/>
      <point x="430" y="379"/>
      <point x="371" y="392"/>
      <point x="326" y="416" type="curve"/>
    </contour>
    <contour>
      <point x="592" y="606" type="line"/>
      <point x="592" y="0" type="line"/>
      <point x="677" y="0" type="line"/>
      <point x="677" y="606" type="line"/>
    </contour>
    <contour>
      <point x="464" y="658" type="line"/>
      <point x="464" y="583" type="line"/>
      <point x="806" y="583" type="line"/>
      <point x="806" y="658" type="line"/>
    </contour>
    <contour>
      <point x="635" y="658" type="move" name="top"/>
    </contour>
    <contour>
      <point x="635" y="0" type="move" name="bottom"/>
    </contour>
  </outline>
</glyph>
<glyph name="aa-deva" format="1">
  <advance width="1065"/>
  <unicode hex="0906"/>
  <outline>
    <contour>
      <point x="249" y="344" type="line"/>
      <point x="314" y="312"/>
      <point x="354" y="270"/>
      <point x="354" y="213" type="curve" smooth="yes"/>
      <point x="354" y="155"/>
      <point x="317" y="106"/>
      <point x="239" y="106" type="curve"/>
      <point x="180" y="106"/>
      <point x="114" y="148"/>
      <point x="78" y="216" type="curve"/>
      <point x="17" y="182" type="line"/>
      <point x="66" y="85"/>
      <point x="150" y="32"/>
      <point x="239" y="32" type="curve"/>
      <point x="351" y="32"/>
      <point x="438" y="101"/>
      <point x="438" y="213" type="curve" smooth="yes"/>
      <point x="438" y="299"/>
      <point x="381" y="369"/>
      <point x="287" y="410" type="curve"/>
    </contour>
    <contour>
      <point x="168" y="659"/>
      <point x="113" y="645"/>
      <point x="59" y="625" type="curve" smooth="yes"/>
      <point x="83" y="554" type="line"/>
      <point x="126" y="571"/>
      <point x="172" y="583"/>
      <point x="210" y="583" type="curve" smooth="yes"/>
      <point x="260" y="583"/>
      <point x="297" y="563"/>
      <point x="297" y="508" type="curve"/>
      <point x="297" y="446"/>
      <point x="272" y="412"/>
      <point x="125" y="380" type="curve"/>
      <point x="145" y="309" type="line"/>
      <point x="348" y="354"/>
      <point x="381" y="429"/>
      <point x="381" y="510" type="curve"/>
      <point x="381" y="603"/>
      <point x="312" y="659"/>
      <point x="218" y="659" type="curve" smooth="yes"/>
    </contour>
    <contour>
      <point x="269" y="366" type="line"/>
      <point x="318" y="328"/>
      <point x="392" y="305"/>
      <point x="465" y="305" type="curve"/>
      <point x="526" y="305"/>
      <point x="591" y="316"/>
      <point x="637" y="336" type="curve"/>
      <point x="613" y="410" type="line"/>
      <point x="574" y="389"/>
      <point x="526" y="379"/>
      <point x="465" y="379" type="curve"/>
      <point x="401" y="379"/>
      <point x="342" y="392"/>
      <point x="297" y="416" type="curve"/>
    </contour>
    <contour>
      <point x="563" y="606" type="line"/>
      <point x="563" y="0" type="line"/>
      <point x="648" y="0" type="line"/>
      <point x="648" y="606" type="line"/>
    </contour>
    <contour>
      <point x="435" y="658" type="line"/>
      <point x="435" y="583" type="line"/>
      <point x="777" y="583" type="line"/>
      <point x="777" y="658" type="line"/>
    </contour>
    <contour>
      <point x="869" y="606" type="line"/>
      <point x="869" y="0" type="line"/>
      <point x="954" y="0" type="line"/>
      <point x="954" y="606" type="line"/>
    </contour>
    <contour>
      <point x="741" y="658" type="line"/>
      <point x="741" y="583" type="line"/>
      <point x="1083" y="583" type="line"/>
      <point x="1083" y="658" type="line"/>
    </contour>
    <contour>
      <point x="952" y="658" type="move" name="imatra"/>
    </contour>
    <contour>
      <point x="912" y="0" type="move" name="bottom"/>
    </contour>
    <contour>
      <point x="913" y="658" type="move" name="top"/>
    </contour>
  </outline>
</glyph>
<glyph name="i-deva" format="1">
  <advance width="513"/>
  <unicode hex="0907"/>
  <outline>
    <contour>
      <point x="167" y="476" type="line" smooth="yes"/>
      <point x="101" y="476"/>
      <point x="62" y="448"/>
      <point x="62" y="386" type="curve" smooth="yes"/>
      <point x="62" y="303"/>
      <point x="115" y="233"/>
      <point x="192" y="233" type="curve" smooth="yes"/>
      <point x="212" y="233"/>
      <point x="305" y="247"/>
      <point x="325" y="247" type="curve" smooth="yes"/>
      <point x="355" y="247"/>
      <point x="377" y="233"/>
      <point x="377" y="210" type="curve" smooth="yes"/>
      <point x="377" y="116"/>
      <point x="293" y="98"/>
      <point x="221" y="98" type="curve"/>
      <point x="216" y="29" type="line"/>
      <point x="339" y="29"/>
      <point x="461" y="71"/>
      <point x="461" y="219" type="curve" smooth="yes"/>
      <point x="461" y="279"/>
      <point x="419" y="319"/>
      <point x="354" y="319" type="curve" smooth="yes"/>
      <point x="334" y="319"/>
      <point x="226" y="306"/>
      <point x="206" y="306" type="curve" smooth="yes"/>
      <point x="170" y="306"/>
      <point x="146" y="331"/>
      <point x="146" y="369" type="curve" smooth="yes"/>
      <point x="146" y="391"/>
      <point x="153" y="402"/>
      <point x="179" y="402" type="curve" smooth="yes"/>
      <point x="402" y="402" type="line"/>
      <point x="318" y="476" type="line"/>
    </contour>
    <contour>
      <point x="87" y="189"/>
      <point x="62" y="156"/>
      <point x="62" y="114" type="curve" smooth="yes"/>
      <point x="62" y="37"/>
      <point x="152" y="29"/>
      <point x="256" y="29" type="curve"/>
      <point x="273" y="87" type="line"/>
      <point x="226" y="149"/>
      <point x="181" y="189"/>
      <point x="125" y="189" type="curve" smooth="yes"/>
    </contour>
    <contour>
      <point x="202" y="47" type="line"/>
      <point x="353" y="-132" type="line"/>
      <point x="415" y="-80" type="line"/>
      <point x="275" y="85" type="line"/>
    </contour>
    <contour>
      <point x="318" y="599" type="line"/>
      <point x="318" y="434" type="line"/>
      <point x="402" y="402" type="line"/>
      <point x="402" y="599" type="line"/>
    </contour>
    <contour>
      <point x="-10" y="658" type="line"/>
      <point x="-10" y="583" type="line"/>
      <point x="523" y="583" type="line"/>
      <point x="523" y="658" type="line"/>
    </contour>
    <contour>
      <point x="367" y="658" type="move" name="top"/>
    </contour>
    <contour>
      <point x="257" y="-132" type="move" name="bottom"/>
    </contour>
  </outline>
</glyph>
<glyph name="ii-deva" format="1">
  <advance width="513"/>
  <unicode hex="0908"/>
  <outline>
    <component base="i-deva"/>
    <component base="reph-deva" xOffset="172"/>
    <contour>
      <point x="357" y="909" type="move" name="top"/>
    </contour>
    <contour>
      <point x="257" y="-132" type="move" name="bottom"/>
    </contour>
  </outline>
</glyph>
<glyph name="rVocalic-deva" format="1">
  <advance width="842"/>
  <unicode hex="090B"/>
  <outline>
    <contour>
      <point x="606" y="512"/>
      <point x="591" y="402"/>
      <point x="591" y="367" type="curve"/>
      <point x="616" y="301"/>
      <point x="641" y="239"/>
      <point x="661" y="191" type="curve"/>
      <point x="742" y="184" type="line"/>
      <point x="723" y="234"/>
      <point x="691" y="316"/>
      <point x="667" y="380" type="curve"/>
      <point x="621" y="389" type="line"/>
      <point x="571" y="357"/>
      <point x="512" y="364"/>
      <point x="453" y="361" type="curve" smooth="yes"/>
      <point x="417" y="361"/>
      <point x="379" y="398"/>
      <point x="340" y="431" type="curve" smooth="yes"/>
      <point x="291" y="471"/>
      <point x="256" y="491"/>
      <point x="211" y="491" type="curve" smooth="yes"/>
      <point x="171" y="491"/>
      <point x="114" y="473"/>
      <point x="44" y="438" type="curve"/>
      <point x="74" y="372" type="line"/>
      <point x="150" y="408"/>
      <point x="177" y="417"/>
      <point x="208" y="417" type="curve" smooth="yes"/>
      <point x="238" y="417"/>
      <point x="262" y="402"/>
      <point x="297" y="371" type="curve" smooth="yes"/>
      <point x="321" y="350"/>
      <point x="380" y="284"/>
      <point x="449" y="284" type="curve" smooth="yes"/>
      <point x="671" y="285"/>
      <point x="754" y="372"/>
      <point x="754" y="457" type="curve" smooth="yes"/>
      <point x="754" y="491"/>
      <point x="737" y="512"/>
      <point x="697" y="512" type="curve" smooth="yes"/>
    </contour>
    <contour>
      <point x="44" y="124" type="line"/>
      <point x="85" y="55" type="line"/>
      <point x="452" y="259" type="line"/>
      <point x="421" y="335" type="line"/>
    </contour>
    <contour>
      <point x="375" y="609" type="line"/>
      <point x="375" y="0" type="line"/>
      <point x="460" y="0" type="line"/>
      <point x="460" y="609" type="line"/>
    </contour>
    <contour>
      <point x="-20" y="658" type="line" smooth="yes"/>
      <point x="-20" y="583" type="line" smooth="yes"/>
      <point x="862" y="583" type="line" smooth="yes"/>
      <point x="862" y="658" type="line" smooth="yes"/>
    </contour>
    <component base="rVocalicMatra-deva" xOffset="462" yOffset="235"/>
    <contour>
      <point x="421" y="658" type="move" name="top"/>
    </contour>
    <contour>
      <point x="421" y="0" type="move" name="bottom"/>
    </contour>
  </outline>
</glyph>
<glyph name="oShort-deva" format="1">
  <advance width="1065"/>
  <unicode hex="0912"/>
  <outline>
    <component base="aa-deva"/>
    <component base="eShortMatra-deva" xOffset="521"/>
    <contour>
      <point x="890" y="819" type="move" name="top"/>
    </contour>
    <contour>
      <point x="890" y="0" type="move" name="bottom"/>
    </contour>
  </outline>
</glyph>
<glyph name="o-deva" format="1">
  <advance width="1065"/>
  <unicode hex="0913"/>
  <outline>
    <component base="aa-deva"/>
    <component base="eMatra-deva" xOffset="636"/>
    <contour>
      <point x="950" y="755" type="move" name="top"/>
    </contour>
    <contour>
      <point x="919" y="0" type="move" name="bottom"/>
    </contour>
  </outline>
</glyph>
<glyph name="ca-deva" format="1">
  <advance width="655"/>
  <unicode hex="091A"/>
  <outline>
    <component base="c-deva"/>
    <component base="aaMatra-deva" xOffset="349"/>
    <contour>
      <point x="502" y="658" type="move" name="top"/>
    </contour>
    <contour>
      <point x="502" y="0" type="move" name="bottom"/>
    </contour>
  </outline>
</glyph>
<glyph name="ja-deva" format="1">
  <advance width="771"/>
  <unicode hex="091C"/>
  <outline>
    <component base="j-deva"/>
    <component base="aaMatra-deva" xOffset="465"/>
    <contour>
      <point x="302" y="0" type="move" name="nukta"/>
    </contour>
    <contour>
      <point x="618" y="0" type="move" name="bottom"/>
    </contour>
    <contour>
      <point x="618" y="658" type="move" name="top"/>
    </contour>
  </outline>
</glyph>
<glyph name="tta-deva" format="1">
  <advance width="534"/>
  <unicode hex="091F"/>
  <outline>
    <contour>
      <point x="349" y="594" type="line"/>
      <point x="349" y="478" type="line"/>
      <point x="276" y="478" type="line" smooth="yes"/>
      <point x="138" y="478"/>
      <point x="55" y="403"/>
      <point x="55" y="279" type="curve" smooth="yes"/>
      <point x="55" y="138"/>
      <point x="165" y="38"/>
      <point x="319" y="38" type="curve" smooth="yes"/>
      <point x="387" y="38"/>
      <point x="445" y="53"/>
      <point x="495" y="84" type="curve"/>
      <point x="463" y="150" type="line"/>
      <point x="407" y="124"/>
      <point x="366" y="113"/>
      <point x="319" y="113" type="curve" smooth="yes"/>
      <point x="213" y="113"/>
      <point x="139" y="181"/>
      <point x="139" y="279" type="curve" smooth="yes"/>
      <point x="139" y="360"/>
      <point x="185" y="404"/>
      <point x="271" y="404" type="curve" smooth="yes"/>
      <point x="433" y="404" type="line"/>
      <point x="433" y="594" type="line"/>
    </contour>
    <contour>
      <point x="-20" y="658" type="line"/>
      <point x="-20" y="583" type="line"/>
      <point x="554" y="583" type="line"/>
      <point x="554" y="658" type="line"/>
    </contour>
    <contour>
      <point x="391" y="658" type="move" name="top"/>
    </contour>
    <contour>
      <point x="287" y="0" type="move" name="bottom"/>
    </contour>
  </outline>
</glyph>
<glyph name="ttha-deva" format="1">
  <advance width="578"/>
  <unicode hex="0920"/>
  <outline>
    <contour>
      <point x="339" y="594" type="line"/>
      <point x="339" y="478" type="line"/>
      <point x="137" y="478"/>
      <point x="45" y="409"/>
      <point x="45" y="259" type="curve" smooth="yes"/>
      <point x="45" y="130"/>
      <point x="147" y="38"/>
      <point x="289" y="38" type="curve" smooth="yes"/>
      <point x="436" y="38"/>
      <point x="533" y="126"/>
      <point x="533" y="259" type="curve" smooth="yes"/>
      <point x="533" y="354"/>
      <point x="475" y="429"/>
      <point x="399" y="479" type="curve"/>
      <point x="365" y="411" type="line"/>
      <point x="438" y="363"/>
      <point x="449" y="319"/>
      <point x="449" y="259" type="curve" smooth="yes"/>
      <point x="449" y="170"/>
      <point x="387" y="113"/>
      <point x="289" y="113" type="curve" smooth="yes"/>
      <point x="195" y="113"/>
      <point x="129" y="174"/>
      <point x="129" y="259" type="curve" smooth="yes"/>
      <point x="129" y="358"/>
      <point x="196" y="403"/>
      <point x="341" y="403" type="curve" smooth="yes"/>
      <point x="423" y="403" type="line"/>
      <point x="423" y="594" type="line"/>
    </contour>
    <contour>
      <point x="-30" y="658" type="line"/>
      <point x="-30" y="583" type="line"/>
      <point x="608" y="583" type="line"/>
      <point x="608" y="658" type="line"/>
    </contour>
    <contour>
      <point x="380" y="658" type="move" name="top"/>
    </contour>
    <contour>
      <point x="289" y="0" type="move" name="bottom"/>
    </contour>
  </outline>
</glyph>
<glyph name="ddha-deva" format="1">
  <advance width="568"/>
  <unicode hex="0922"/>
  <outline>
    <contour>
      <point x="360" y="594" type="line"/>
      <point x="360" y="475" type="line"/>
      <point x="292" y="475" type="line" smooth="yes"/>
      <point x="141" y="475"/>
      <point x="55" y="397"/>
      <point x="55" y="259" type="curve" smooth="yes"/>
      <point x="55" y="127"/>
      <point x="157" y="39"/>
      <point x="310" y="39" type="curve" smooth="yes"/>
      <point x="433" y="39"/>
      <point x="515" y="102"/>
      <point x="515" y="193" type="curve" smooth="yes"/>
      <point x="515" y="273"/>
      <point x="462" y="323"/>
      <point x="382" y="323" type="curve" smooth="yes"/>
      <point x="297" y="323"/>
      <point x="243" y="277"/>
      <point x="243" y="200" type="curve" smooth="yes"/>
      <point x="243" y="157"/>
      <point x="255" y="122"/>
      <point x="287" y="85" type="curve"/>
      <point x="367" y="90" type="line"/>
      <point x="339" y="123"/>
      <point x="325" y="157"/>
      <point x="325" y="192" type="curve" smooth="yes"/>
      <point x="325" y="217"/>
      <point x="335" y="247"/>
      <point x="378" y="247" type="curve" smooth="yes"/>
      <point x="408" y="247"/>
      <point x="433" y="227"/>
      <point x="433" y="193" type="curve" smooth="yes"/>
      <point x="433" y="145"/>
      <point x="387" y="113"/>
      <point x="320" y="113" type="curve" smooth="yes"/>
      <point x="207" y="113"/>
      <point x="139" y="167"/>
      <point x="139" y="259" type="curve" smooth="yes"/>
      <point x="139" y="346"/>
      <point x="196" y="401"/>
      <point x="287" y="401" type="curve" smooth="yes"/>
      <point x="444" y="401" type="line"/>
      <point x="444" y="594" type="line"/>
    </contour>
    <contour>
      <point x="-20" y="658" type="line"/>
      <point x="-20" y="583" type="line"/>
      <point x="588" y="583" type="line"/>
      <point x="588" y="658" type="line"/>
    </contour>
    <contour>
      <point x="405" y="658" type="move" name="top"/>
    </contour>
    <contour>
      <point x="309" y="0" type="move" name="bottom"/>
    </contour>
  </outline>
</glyph>
<glyph name="nna-deva" format="1">
  <advance width="726"/>
  <unicode hex="0923"/>
  <outline>
    <component base="nn-deva"/>
    <component base="aaMatra-deva" xOffset="420"/>
    <contour>
      <point x="573" y="658" type="move" name="top"/>
    </contour>
    <contour>
      <point x="573" y="0" type="move" name="bottom"/>
    </contour>
  </outline>
</glyph>
<glyph name="ta-deva" format="1">
  <advance width="595"/>
  <unicode hex="0924"/>
  <outline>
    <component base="t-deva"/>
    <component base="aaMatra-deva" xOffset="289"/>
    <contour>
      <point x="443" y="658" type="move" name="top"/>
    </contour>
    <contour>
      <point x="442" y="0" type="move" name="bottom"/>
    </contour>
  </outline>
</glyph>
<glyph name="tha-deva" format="1">
  <advance width="695"/>
  <unicode hex="0925"/>
  <outline>
    <component base="th-deva"/>
    <component base="aaMatra-deva" xOffset="389"/>
    <contour>
      <point x="542" y="658" type="move" name="top"/>
    </contour>
    <contour>
      <point x="542" y="0" type="move" name="bottom"/>
    </contour>
  </outline>
</glyph>
<glyph name="da-deva" format="1">
  <advance width="520"/>
  <unicode hex="0926"/>
  <outline>
    <contour>
      <point x="327" y="594" type="line"/>
      <point x="327" y="475" type="line"/>
      <point x="251" y="475" type="line" smooth="yes"/>
      <point x="124" y="475"/>
      <point x="43" y="417"/>
      <point x="43" y="290" type="curve" smooth="yes"/>
      <point x="43" y="160"/>
      <point x="147" y="78"/>
      <point x="277" y="78" type="curve" smooth="yes"/>
      <point x="378" y="78"/>
      <point x="460" y="105"/>
      <point x="460" y="159" type="curve" smooth="yes"/>
      <point x="460" y="203"/>
      <point x="410" y="249"/>
      <point x="350" y="249" type="curve" smooth="yes"/>
      <point x="309" y="249"/>
      <point x="294" y="222"/>
      <point x="294" y="197" type="curve" smooth="yes"/>
      <point x="294" y="144"/>
      <point x="317" y="113"/>
      <point x="326" y="96" type="curve"/>
      <point x="452" y="-92" type="line"/>
      <point x="522" y="-48" type="line"/>
      <point x="381" y="153" type="line"/>
      <point x="397" y="181" type="line"/>
      <point x="359" y="160"/>
      <point x="343" y="152"/>
      <point x="287" y="152" type="curve" smooth="yes"/>
      <point x="197" y="152"/>
      <point x="127" y="199"/>
      <point x="127" y="289" type="curve" smooth="yes"/>
      <point x="127" y="361"/>
      <point x="177" y="401"/>
      <point x="249" y="401" type="curve" smooth="yes"/>
      <point x="411" y="401" type="line"/>
      <point x="411" y="594" type="line"/>
    </contour>
    <contour>
      <point x="-30" y="658" type="line"/>
      <point x="-30" y="583" type="line"/>
      <point x="550" y="583" type="line"/>
      <point x="550" y="658" type="line"/>
    </contour>
    <contour>
      <point x="374" y="658" type="move" name="top"/>
    </contour>
    <contour>
      <point x="282" y="0" type="move" name="bottom"/>
    </contour>
  </outline>
</glyph>
<glyph name="dha-deva" format="1">
  <advance width="724"/>
  <unicode hex="0927"/>
  <outline>
    <component base="dh-deva"/>
    <component base="aaMatra-deva" xOffset="418"/>
    <contour>
      <point x="497" y="658" type="move" name="top"/>
    </contour>
    <contour>
      <point x="497" y="0" type="move" name="bottom"/>
    </contour>
  </outline>
</glyph>
<glyph name="na-deva" format="1">
  <advance width="595"/>
  <unicode hex="0928"/>
  <outline>
    <component base="n-deva"/>
    <component base="aaMatra-deva" xOffset="289"/>
    <contour>
      <point x="442" y="658" type="move" name="top"/>
    </contour>
    <contour>
      <point x="442" y="0" type="move" name="bottom"/>
    </contour>
  </outline>
</glyph>
<glyph name="pa-deva" format="1">
  <advance width="555"/>
  <unicode hex="092A"/>
  <outline>
    <component base="p-deva"/>
    <component base="aaMatra-deva" xOffset="249"/>
    <contour>
      <point x="404" y="658" type="move" name="top"/>
    </contour>
    <contour>
      <point x="404" y="0" type="move" name="bottom"/>
    </contour>
  </outline>
</glyph>
<glyph name="ma-deva" format="1">
  <advance width="606"/>
  <unicode hex="092E"/>
  <outline>
    <component base="m-deva"/>
    <component base="aaMatra-deva" xOffset="300"/>
    <contour>
      <point x="453" y="658" type="move" name="top"/>
    </contour>
    <contour>
      <point x="453" y="0" type="move" name="bottom"/>
    </contour>
  </outline>
</glyph>
<glyph name="ya-deva" format="1">
  <advance width="606"/>
  <unicode hex="092F"/>
  <outline>
    <component base="y-deva"/>
    <component base="aaMatra-deva" xOffset="300"/>
    <contour>
      <point x="125" y="23" type="move" name="nukta"/>
    </contour>
    <contour>
      <point x="453" y="0" type="move" name="bottom"/>
    </contour>
    <contour>
      <point x="453" y="658" type="move" name="top"/>
    </contour>
  </outline>
</glyph>
<glyph name="ra-deva" format="1">
  <advance width="396"/>
  <unicode hex="0930"/>
  <outline>
    <contour>
      <point x="158" y="605" type="line"/>
      <point x="213" y="553"/>
      <point x="245" y="489"/>
      <point x="245" y="435" type="curve" smooth="yes"/>
      <point x="245" y="364"/>
      <point x="214" y="327"/>
      <point x="155" y="327" type="curve" smooth="yes"/>
      <point x="132" y="327"/>
      <point x="106" y="337"/>
      <point x="76" y="357" type="curve"/>
      <point x="30" y="295" type="line"/>
      <point x="68" y="266"/>
      <point x="112" y="251"/>
      <point x="154" y="251" type="curve" smooth="yes"/>
      <point x="263" y="251"/>
      <point x="327" y="319"/>
      <point x="327" y="433" type="curve" smooth="yes"/>
      <point x="327" y="499"/>
      <point x="292" y="573"/>
      <point x="227" y="640" type="curve"/>
    </contour>
    <contour>
      <point x="30" y="295" type="line"/>
      <point x="261" y="-13" type="line"/>
      <point x="329" y="31" type="line"/>
      <point x="120" y="322" type="line"/>
      <point x="76" y="357" type="line"/>
    </contour>
    <contour>
      <point x="-20" y="658" type="line"/>
      <point x="-20" y="583" type="line"/>
      <point x="416" y="583" type="line"/>
      <point x="416" y="658" type="line"/>
    </contour>
    <contour>
      <point x="78" y="0" type="move" name="nukta"/>
    </contour>
    <contour>
      <point x="198" y="0" type="move" name="bottom"/>
    </contour>
    <contour>
      <point x="202" y="658" type="move" name="top"/>
    </contour>
  </outline>
</glyph>
<glyph name="lla-deva" format="1">
  <advance width="823"/>
  <unicode hex="0933"/>
  <outline>
    <contour>
      <point x="533" y="609" type="line"/>
      <point x="533" y="450" type="line"/>
      <point x="618" y="450" type="line"/>
      <point x="618" y="609" type="line"/>
    </contour>
    <component base="ll-deva"/>
    <contour>
      <point x="404" y="0" type="move" name="nukta"/>
    </contour>
    <contour>
      <point x="412" y="30" type="move" name="bottom"/>
    </contour>
    <contour>
      <point x="576" y="658" type="move" name="top"/>
    </contour>
  </outline>
</glyph>
<glyph name="va-deva" format="1">
  <advance width="580"/>
  <unicode hex="0935"/>
  <outline>
    <component base="v-deva"/>
    <component base="aaMatra-deva" xOffset="274"/>
    <contour>
      <point x="428" y="658" type="move" name="top"/>
    </contour>
    <contour>
      <point x="427" y="0" type="move" name="bottom"/>
    </contour>
  </outline>
</glyph>
<glyph name="sha-deva" format="1">
  <advance width="787"/>
  <unicode hex="0936"/>
  <outline>
    <component base="sh-deva"/>
    <component base="aaMatra-deva" xOffset="481"/>
    <contour>
      <point x="633" y="658" type="move" name="top"/>
    </contour>
    <contour>
      <point x="633" y="0" type="move" name="bottom"/>
    </contour>
  </outline>
</glyph>
<glyph name="ha-deva" format="1">
  <advance width="532"/>
  <unicode hex="0939"/>
  <outline>
    <contour>
      <point x="374" y="-19" type="line"/>
      <point x="245" y="-1"/>
      <point x="179" y="50"/>
      <point x="179" y="131" type="curve" smooth="yes"/>
      <point x="179" y="194"/>
      <point x="226" y="235"/>
      <point x="297" y="235" type="curve" smooth="yes"/>
      <point x="355" y="235"/>
      <point x="394" y="211"/>
      <point x="394" y="175" type="curve" smooth="yes"/>
      <point x="394" y="147"/>
      <point x="381" y="124"/>
      <point x="349" y="94" type="curve"/>
      <point x="397" y="41" type="line"/>
      <point x="453" y="77"/>
      <point x="479" y="122"/>
      <point x="479" y="178" type="curve" smooth="yes"/>
      <point x="479" y="257"/>
      <point x="406" y="309"/>
      <point x="297" y="309" type="curve" smooth="yes"/>
      <point x="256" y="309"/>
      <point x="219" y="301"/>
      <point x="189" y="286" type="curve"/>
      <point x="166" y="311"/>
      <point x="154" y="340"/>
      <point x="154" y="369" type="curve" smooth="yes"/>
      <point x="154" y="391"/>
      <point x="166" y="403"/>
      <point x="190" y="403" type="curve" smooth="yes"/>
      <point x="410" y="403" type="line"/>
      <point x="410" y="599" type="line"/>
      <point x="326" y="599" type="line"/>
      <point x="326" y="478" type="line"/>
      <point x="175" y="478" type="line" smooth="yes"/>
      <point x="109" y="478"/>
      <point x="70" y="444"/>
      <point x="70" y="386" type="curve" smooth="yes"/>
      <point x="70" y="335"/>
      <point x="91" y="285"/>
      <point x="131" y="241" type="curve"/>
      <point x="107" y="211"/>
      <point x="94" y="174"/>
      <point x="94" y="131" type="curve" smooth="yes"/>
      <point x="94" y="8"/>
      <point x="185" y="-70"/>
      <point x="361" y="-93" type="curve"/>
    </contour>
    <contour>
      <point x="552" y="583" type="line"/>
      <point x="552" y="658" type="line"/>
      <point x="-20" y="658" type="line"/>
      <point x="-20" y="583" type="line"/>
    </contour>
    <contour>
      <point x="369" y="658" type="move" name="top"/>
    </contour>
    <contour>
      <point x="266" y="-65" type="move" name="bottom"/>
    </contour>
  </outline>
</glyph>
<glyph name="oeMatra-deva" format="1">
  <advance width="125"/>
  <unicode hex="093A"/>
  <outline>
    <contour>
      <point x="20" y="828" type="line"/>
      <point x="20" y="648" type="line"/>
      <point x="105" y="648" type="line"/>
      <point x="105" y="802" type="line"/>
    </contour>
    <contour>
      <point x="63" y="659" type="move" name="_top"/>
    </contour>
  </outline>
</glyph>
<glyph name="ooeMatra-deva" format="1">
  <advance width="305"/>
  <unicode hex="093B"/>
  <outline>
    <contour>
      <point x="110" y="805" type="line"/>
      <point x="110" y="0" type="line"/>
      <point x="195" y="0" type="line"/>
      <point x="195" y="805" type="line"/>
    </contour>
    <contour>
      <point x="-3" y="658" type="line"/>
      <point x="-3" y="583" type="line"/>
      <point x="310" y="583" type="line"/>
      <point x="310" y="658" type="line"/>
    </contour>
    <contour>
      <point x="153" y="805" type="move" name="top"/>
    </contour>
    <contour>
      <point x="152" y="0" type="move" name="bottom"/>
    </contour>
  </outline>
</glyph>
<glyph name="nukta-deva" format="1">
  <advance width="142"/>
  <unicode hex="093C"/>
  <outline>
    <contour>
      <point x="99" y="-155"/>
      <point x="122" y="-132"/>
      <point x="122" y="-104" type="curve" smooth="yes"/>
      <point x="122" y="-76"/>
      <point x="99" y="-53"/>
      <point x="71" y="-53" type="curve" smooth="yes"/>
      <point x="43" y="-53"/>
      <point x="20" y="-76"/>
      <point x="20" y="-104" type="curve" smooth="yes"/>
      <point x="20" y="-132"/>
      <point x="43" y="-155"/>
      <point x="71" y="-155" type="curve" smooth="yes"/>
    </contour>
    <contour>
      <point x="70" y="0" type="move" name="_bottom"/>
    </contour>
    <contour>
      <point x="70" y="-103" type="move" name="_nukta"/>
    </contour>
  </outline>
</glyph>
<glyph name="iMatra-deva" format="1">
  <advance width="305"/>
  <unicode hex="093F"/>
  <outline>
    <contour>
      <point x="159" y="915"/>
      <point x="80" y="856"/>
      <point x="80" y="760" type="curve" smooth="yes"/>
      <point x="80" y="732"/>
      <point x="89" y="690"/>
      <point x="103" y="647" type="curve"/>
      <point x="188" y="647" type="line"/>
      <point x="173" y="671"/>
      <point x="165" y="707"/>
      <point x="165" y="749" type="curve" smooth="yes"/>
      <point x="165" y="806"/>
      <point x="215" y="842"/>
      <point x="307" y="842" type="curve" smooth="yes"/>
      <point x="373" y="842"/>
      <point x="473" y="791"/>
      <point x="538" y="716" type="curve"/>
      <point x="605" y="759" type="line"/>
      <point x="524" y="860"/>
      <point x="408" y="915"/>
      <point x="300" y="915" type="curve" smooth="yes"/>
    </contour>
    <contour>
      <point x="110" y="606" type="line"/>
      <point x="110" y="0" type="line"/>
      <point x="195" y="0" type="line"/>
      <point x="195" y="606" type="line"/>
    </contour>
    <contour>
      <point x="-18" y="658" type="line"/>
      <point x="-18" y="583" type="line"/>
      <point x="324" y="583" type="line"/>
      <point x="324" y="658" type="line"/>
    </contour>
    <contour>
      <point x="605" y="759" type="move" name="imatra"/>
    </contour>
    <contour>
      <point x="153" y="0" type="move" name="bottom"/>
    </contour>
    <contour>
      <point x="605" y="759" type="move" name="top"/>
    </contour>
  </outline>
</glyph>
<glyph name="uMatra-deva" format="1">
  <advance width="354"/>
  <unicode hex="0941"/>
  <outline>
    <contour>
      <point x="169" y="21"/>
      <point x="129" y="9"/>
      <point x="104" y="-10" type="curve"/>
      <point x="156" y="-70" type="line"/>
      <point x="173" y="-56"/>
      <point x="195" y="-48"/>
      <point x="216" y="-48" type="curve" smooth="yes"/>
      <point x="245" y="-48"/>
      <point x="257" y="-60"/>
      <point x="257" y="-84" type="curve" smooth="yes"/>
      <point x="257" y="-117"/>
      <point x="225" y="-145"/>
      <point x="180" y="-144" type="curve" smooth="yes"/>
      <point x="133" y="-145"/>
      <point x="94" y="-127"/>
      <point x="67" y="-94" type="curve"/>
      <point x="20" y="-137" type="line"/>
      <point x="66" y="-189"/>
      <point x="117" y="-212"/>
      <point x="189" y="-212" type="curve" smooth="yes"/>
      <point x="280" y="-213"/>
      <point x="334" y="-165"/>
      <point x="334" y="-90" type="curve" smooth="yes"/>
      <point x="334" y="-26"/>
      <point x="281" y="21"/>
      <point x="208" y="21" type="curve" smooth="yes"/>
    </contour>
    <contour>
      <point x="208" y="0" type="move" name="_bottom"/>
    </contour>
  </outline>
</glyph>
<glyph name="uuMatra-deva" format="1">
  <advance width="354"/>
  <unicode hex="0942"/>
  <outline>
    <component base="uMatra-deva" xOffset="354" yOffset="-191" xScale="-1" yScale="-1"/>
    <contour>
      <point x="171" y="0" type="move" name="_bottom"/>
    </contour>
  </outline>
</glyph>
<glyph name="rVocalicMatra-deva" format="1">
  <advance width="299"/>
  <unicode hex="0943"/>
  <outline>
    <contour>
      <point x="229" y="-169"/>
      <point x="198" y="-169" type="curve" smooth="yes"/>
      <point x="160" y="-169"/>
      <point x="142" y="-150"/>
      <point x="142" y="-117" type="curve" smooth="yes"/>
      <point x="142" y="-61"/>
      <point x="218" y="-51"/>
      <point x="270" y="-51" type="curve"/>
      <point x="254" y="21" type="line"/>
      <point x="167" y="21"/>
      <point x="58" y="-16"/>
      <point x="58" y="-118" type="curve" smooth="yes"/>
      <point x="58" y="-181"/>
      <point x="96" y="-245"/>
      <point x="190" y="-245" type="curve" smooth="yes"/>
      <point x="234" y="-245"/>
      <point x="293" y="-227"/>
      <point x="336" y="-191" type="curve"/>
      <point x="302" y="-128" type="line"/>
      <point x="264" y="-152"/>
    </contour>
    <contour>
      <point x="212" y="0" type="move" name="_bottom"/>
    </contour>
  </outline>
</glyph>
<glyph name="rrVocalicMatra-deva" format="1">
  <advance width="274"/>
  <unicode hex="0944"/>
  <outline>
    <contour>
      <point x="73" y="13"/>
      <point x="20" y="-28"/>
      <point x="20" y="-93" type="curve" smooth="yes"/>
      <point x="20" y="-175"/>
      <point x="94" y="-198"/>
      <point x="169" y="-198" type="curve" smooth="yes"/>
      <point x="189" y="-198"/>
      <point x="207" y="-196"/>
      <point x="224" y="-193" type="curve"/>
      <point x="225" y="-129" type="line"/>
      <point x="205" y="-131"/>
      <point x="182" y="-136"/>
      <point x="162" y="-136" type="curve" smooth="yes"/>
      <point x="128" y="-136"/>
      <point x="100" y="-127"/>
      <point x="100" y="-93" type="curve" smooth="yes"/>
      <point x="100" y="-61"/>
      <point x="127" y="-51"/>
      <point x="157" y="-51" type="curve" smooth="yes"/>
      <point x="181" y="-51"/>
      <point x="206" y="-59"/>
      <point x="235" y="-72" type="curve"/>
      <point x="249" y="-13" type="line"/>
      <point x="217" y="5"/>
      <point x="188" y="13"/>
      <point x="156" y="13" type="curve" smooth="yes"/>
    </contour>
    <contour>
      <point x="89" y="-134" type="line"/>
      <point x="43" y="-166"/>
      <point x="20" y="-202"/>
      <point x="20" y="-240" type="curve" smooth="yes"/>
      <point x="20" y="-305"/>
      <point x="73" y="-346"/>
      <point x="156" y="-346" type="curve" smooth="yes"/>
      <point x="188" y="-346"/>
      <point x="222" y="-341"/>
      <point x="254" y="-330" type="curve"/>
      <point x="238" y="-271" type="line"/>
      <point x="209" y="-278"/>
      <point x="181" y="-282"/>
      <point x="157" y="-282" type="curve" smooth="yes"/>
      <point x="127" y="-282"/>
      <point x="100" y="-269"/>
      <point x="100" y="-240" type="curve" smooth="yes"/>
      <point x="100" y="-214"/>
      <point x="118" y="-190"/>
      <point x="149" y="-175" type="curve"/>
    </contour>
    <contour>
      <point x="159" y="0" type="move" name="_bottom"/>
    </contour>
  </outline>
</glyph>
<glyph name="halant-deva" format="1">
  <advance width="269"/>
  <unicode hex="094D"/>
  <outline>
    <contour>
      <point x="95" y="-31" type="line"/>
      <point x="33" y="-82" type="line"/>
      <point x="219" y="-266" type="line"/>
      <point x="262" y="-225" type="line"/>
    </contour>
    <contour>
      <point x="85" y="0" type="move" name="_bottom"/>
    </contour>
  </outline>
</glyph>
<glyph name="prishthaMatraE-deva" format="1">
  <advance width="306"/>
  <unicode hex="094E"/>
  <outline>
    <contour>
      <point x="110" y="658" type="line"/>
      <point x="110" y="0" type="line"/>
      <point x="195" y="0" type="line"/>
      <point x="195" y="583" type="line"/>
      <point x="324" y="583" type="line"/>
      <point x="324" y="658" type="line"/>
    </contour>
  </outline>
</glyph>
<glyph name="awMatra-deva" format="1">
  <advance width="305"/>
  <unicode hex="094F"/>
  <outline>
    <contour>
      <point x="-230" y="935" type="line"/>
      <point x="-185" y="842"/>
      <point x="-135" y="820"/>
      <point x="-41" y="804" type="curve" smooth="yes"/>
      <point x="44" y="788"/>
      <point x="89" y="775"/>
      <point x="112" y="692" type="curve"/>
      <point x="126" y="639" type="line"/>
      <point x="191" y="643" type="line"/>
      <point x="191" y="772"/>
      <point x="133" y="843"/>
      <point x="-17" y="870" type="curve" smooth="yes"/>
      <point x="-93" y="882"/>
      <point x="-120" y="894"/>
      <point x="-156" y="967" type="curve"/>
    </contour>
    <contour>
      <point x="-273" y="771" type="line"/>
      <point x="-219" y="714"/>
      <point x="-175" y="696"/>
      <point x="-115" y="696" type="curve" smooth="yes"/>
      <point x="-87" y="696"/>
      <point x="-17" y="706"/>
      <point x="10" y="706" type="curve" smooth="yes"/>
      <point x="59" y="706"/>
      <point x="92" y="692"/>
      <point x="126" y="639" type="curve"/>
      <point x="191" y="643" type="line"/>
      <point x="118" y="767" type="line"/>
      <point x="-107" y="767" type="line"/>
      <point x="-145" y="768"/>
      <point x="-171" y="782"/>
      <point x="-211" y="824" type="curve"/>
    </contour>
    <component base="aaMatra-deva"/>
    <contour>
      <point x="147" y="842" type="move" name="top"/>
    </contour>
    <contour>
      <point x="153" y="0" type="move" name="bottom"/>
    </contour>
  </outline>
</glyph>
<glyph name="udatta-deva" format="1">
  <advance width="115"/>
  <unicode hex="0951"/>
  <outline>
    <contour>
      <point x="20" y="960" type="line"/>
      <point x="20" y="709" type="line"/>
      <point x="95" y="709" type="line"/>
      <point x="95" y="960" type="line"/>
    </contour>
    <contour>
      <point x="58" y="658" type="move" name="_top"/>
    </contour>
  </outline>
</glyph>
<glyph name="acute-deva" format="1">
  <advance width="273"/>
  <unicode hex="0954"/>
  <outline>
    <contour>
      <point x="253" y="903" type="line"/>
      <point x="191" y="947" type="line"/>
      <point x="20" y="733" type="line"/>
      <point x="75" y="697" type="line"/>
    </contour>
  </outline>
</glyph>
<glyph name="uueMatra-deva" format="1">
  <advance width="454"/>
  <unicode hex="0957"/>
  <outline>
    <component base="ueMatra-deva" yOffset="-139"/>
    <component base="ueMatra-deva" yOffset="10"/>
    <contour>
      <point x="228" y="0" type="move" name="_bottom"/>
    </contour>
  </outline>
</glyph>
<glyph name="ghha-deva" format="1">
  <advance width="588"/>
  <unicode hex="095A"/>
  <outline>
    <component base="ga-deva"/>
    <component base="nukta-deva" xOffset="76" yOffset="153"/>
    <contour>
      <point x="435" y="658" type="move" name="top"/>
    </contour>
    <contour>
      <point x="435" y="0" type="move" name="bottom"/>
    </contour>
  </outline>
</glyph>
<glyph name="za-deva" format="1">
  <advance width="771"/>
  <unicode hex="095B"/>
  <outline>
    <component base="ja-deva"/>
    <component base="nukta-deva" xOffset="232" yOffset="103"/>
    <contour>
      <point x="618" y="658" type="move" name="top"/>
    </contour>
    <contour>
      <point x="618" y="0" type="move" name="bottom"/>
    </contour>
  </outline>
</glyph>
<glyph name="dddha-deva" format="1">
  <advance width="562"/>
  <unicode hex="095C"/>
  <outline>
    <component base="dda-deva"/>
    <component base="nukta-deva" xOffset="480" yOffset="490"/>
    <contour>
      <point x="402" y="658" type="move" name="top"/>
    </contour>
    <contour>
      <point x="281" y="0" type="move" name="bottom"/>
    </contour>
  </outline>
</glyph>
<glyph name="rha-deva" format="1">
  <advance width="568"/>
  <unicode hex="095D"/>
  <outline>
    <component base="ddha-deva"/>
    <component base="nukta-deva" xOffset="239"/>
    <contour>
      <point x="403" y="658" type="move" name="top"/>
    </contour>
    <contour>
      <point x="284" y="0" type="move" name="bottom"/>
    </contour>
  </outline>
</glyph>
<glyph name="yya-deva" format="1">
  <advance width="606"/>
  <unicode hex="095F"/>
  <outline>
    <component base="ya-deva"/>
    <component base="nukta-deva" xOffset="55" yOffset="126"/>
    <contour>
      <point x="454" y="658" type="move" name="top"/>
    </contour>
    <contour>
      <point x="453" y="0" type="move" name="bottom"/>
    </contour>
  </outline>
</glyph>
<glyph name="rrVocalic-deva" format="1">
  <advance width="841"/>
  <unicode hex="0960"/>
  <outline>
    <contour>
      <point x="606" y="512"/>
      <point x="591" y="402"/>
      <point x="591" y="367" type="curve" smooth="yes"/>
      <point x="591" y="303"/>
      <point x="621" y="244"/>
      <point x="673" y="203" type="curve"/>
      <point x="724" y="245" type="line"/>
      <point x="690" y="279"/>
      <point x="669" y="328"/>
      <point x="667" y="380" type="curve"/>
      <point x="621" y="389" type="line"/>
      <point x="571" y="358"/>
      <point x="512" y="364"/>
      <point x="453" y="361" type="curve" smooth="yes"/>
      <point x="417" y="361"/>
      <point x="379" y="398"/>
      <point x="340" y="431" type="curve" smooth="yes"/>
      <point x="291" y="471"/>
      <point x="256" y="491"/>
      <point x="211" y="491" type="curve" smooth="yes"/>
      <point x="171" y="491"/>
      <point x="114" y="473"/>
      <point x="44" y="438" type="curve"/>
      <point x="74" y="372" type="line"/>
      <point x="150" y="408"/>
      <point x="177" y="417"/>
      <point x="208" y="417" type="curve" smooth="yes"/>
      <point x="238" y="417"/>
      <point x="262" y="402"/>
      <point x="297" y="371" type="curve" smooth="yes"/>
      <point x="321" y="350"/>
      <point x="380" y="284"/>
      <point x="449" y="284" type="curve" smooth="yes"/>
      <point x="671" y="285"/>
      <point x="754" y="372"/>
      <point x="754" y="457" type="curve" smooth="yes"/>
      <point x="754" y="491"/>
      <point x="737" y="512"/>
      <point x="697" y="512" type="curve" smooth="yes"/>
    </contour>
    <contour>
      <point x="44" y="124" type="line"/>
      <point x="85" y="55" type="line"/>
      <point x="452" y="259" type="line"/>
      <point x="421" y="335" type="line"/>
    </contour>
    <contour>
      <point x="375" y="609" type="line"/>
      <point x="375" y="0" type="line"/>
      <point x="460" y="0" type="line"/>
      <point x="460" y="609" type="line"/>
    </contour>
    <contour>
      <point x="-20" y="658" type="line" smooth="yes"/>
      <point x="-20" y="583" type="line" smooth="yes"/>
      <point x="861" y="583" type="line" smooth="yes"/>
      <point x="861" y="658" type="line" smooth="yes"/>
    </contour>
    <component base="rrVocalicMatra-deva" xOffset="532" yOffset="245"/>
    <contour>
      <point x="421" y="658" type="move" name="top"/>
    </contour>
    <contour>
      <point x="421" y="0" type="move" name="bottom"/>
    </contour>
  </outline>
</glyph>
<glyph name="lVocalicMatra-deva" format="1">
  <advance width="497"/>
  <unicode hex="0962"/>
  <outline>
    <contour>
      <point x="257" y="62"/>
      <point x="207" y="10"/>
      <point x="207" y="-82" type="curve"/>
      <point x="274" y="-82" type="line"/>
      <point x="274" y="-32"/>
      <point x="298" y="-1"/>
      <point x="335" y="-1" type="curve" smooth="yes"/>
      <point x="360" y="-1"/>
      <point x="375" y="-13"/>
      <point x="375" y="-35" type="curve" smooth="yes"/>
      <point x="375" y="-98"/>
      <point x="296" y="-90"/>
      <point x="296" y="-180" type="curve" smooth="yes"/>
      <point x="296" y="-237"/>
      <point x="341" y="-269"/>
      <point x="403" y="-269" type="curve" smooth="yes"/>
      <point x="427" y="-269"/>
      <point x="453" y="-264"/>
      <point x="477" y="-254" type="curve"/>
      <point x="462" y="-197" type="line"/>
      <point x="443" y="-204"/>
      <point x="426" y="-207"/>
      <point x="413" y="-207" type="curve" smooth="yes"/>
      <point x="387" y="-207"/>
      <point x="366" y="-195"/>
      <point x="366" y="-176" type="curve" smooth="yes"/>
      <point x="366" y="-128"/>
      <point x="452" y="-131"/>
      <point x="452" y="-38" type="curve" smooth="yes"/>
      <point x="452" y="21"/>
      <point x="408" y="62"/>
      <point x="341" y="62" type="curve" smooth="yes"/>
    </contour>
    <contour>
      <point x="64" y="63"/>
      <point x="20" y="22"/>
      <point x="20" y="-51" type="curve" smooth="yes"/>
      <point x="20" y="-101"/>
      <point x="40" y="-167"/>
      <point x="79" y="-245" type="curve"/>
      <point x="148" y="-213" type="line"/>
      <point x="115" y="-156"/>
      <point x="97" y="-102"/>
      <point x="97" y="-57" type="curve" smooth="yes"/>
      <point x="97" y="-20"/>
      <point x="115" y="-1"/>
      <point x="146" y="-1" type="curve" smooth="yes"/>
      <point x="176" y="-1"/>
      <point x="195" y="-33"/>
      <point x="195" y="-82" type="curve"/>
      <point x="257" y="-82" type="line"/>
      <point x="257" y="8"/>
      <point x="213" y="63"/>
      <point x="144" y="63" type="curve" smooth="yes"/>
    </contour>
    <contour>
      <point x="233" y="0" type="move" name="_bottom"/>
    </contour>
  </outline>
</glyph>
<glyph name="llVocalicMatra-deva" format="1">
  <advance width="495"/>
  <unicode hex="0963"/>
  <outline>
    <contour>
      <point x="65" y="62"/>
      <point x="20" y="21"/>
      <point x="20" y="-52" type="curve" smooth="yes"/>
      <point x="20" y="-102"/>
      <point x="40" y="-168"/>
      <point x="79" y="-246" type="curve"/>
      <point x="149" y="-214" type="line"/>
      <point x="116" y="-157"/>
      <point x="98" y="-103"/>
      <point x="98" y="-58" type="curve" smooth="yes"/>
      <point x="98" y="-21"/>
      <point x="115" y="-2"/>
      <point x="147" y="-2" type="curve" smooth="yes"/>
      <point x="177" y="-2"/>
      <point x="197" y="-34"/>
      <point x="197" y="-83" type="curve"/>
      <point x="258" y="-83" type="line"/>
      <point x="258" y="7"/>
      <point x="215" y="62"/>
      <point x="145" y="62" type="curve" smooth="yes"/>
    </contour>
    <contour>
      <point x="315" y="-201"/>
      <point x="302" y="-223"/>
      <point x="302" y="-245" type="curve" smooth="yes"/>
      <point x="302" y="-289"/>
      <point x="340" y="-317"/>
      <point x="398" y="-317" type="curve" smooth="yes"/>
      <point x="423" y="-317"/>
      <point x="449" y="-311"/>
      <point x="475" y="-303" type="curve"/>
      <point x="460" y="-249" type="line"/>
      <point x="437" y="-257"/>
      <point x="418" y="-261"/>
      <point x="402" y="-261" type="curve" smooth="yes"/>
      <point x="384" y="-261"/>
      <point x="371" y="-254"/>
      <point x="371" y="-241" type="curve" smooth="yes"/>
      <point x="371" y="-228"/>
      <point x="382" y="-214"/>
      <point x="400" y="-204" type="curve"/>
      <point x="338" y="-183" type="line"/>
    </contour>
    <contour>
      <point x="255" y="62"/>
      <point x="206" y="9"/>
      <point x="206" y="-83" type="curve"/>
      <point x="273" y="-83" type="line"/>
      <point x="273" y="-33"/>
      <point x="297" y="-2"/>
      <point x="335" y="-2" type="curve" smooth="yes"/>
      <point x="358" y="-2"/>
      <point x="373" y="-13"/>
      <point x="373" y="-34" type="curve" smooth="yes"/>
      <point x="373" y="-86"/>
      <point x="302" y="-82"/>
      <point x="302" y="-145" type="curve" smooth="yes"/>
      <point x="302" y="-191"/>
      <point x="341" y="-214"/>
      <point x="403" y="-214" type="curve" smooth="yes"/>
      <point x="415" y="-214"/>
      <point x="429" y="-213"/>
      <point x="442" y="-211" type="curve"/>
      <point x="438" y="-163" type="line"/>
      <point x="426" y="-164"/>
      <point x="415" y="-165"/>
      <point x="407" y="-165" type="curve" smooth="yes"/>
      <point x="384" y="-165"/>
      <point x="371" y="-160"/>
      <point x="371" y="-147" type="curve" smooth="yes"/>
      <point x="371" y="-118"/>
      <point x="450" y="-115"/>
      <point x="450" y="-37" type="curve" smooth="yes"/>
      <point x="450" y="20"/>
      <point x="408" y="62"/>
      <point x="338" y="62" type="curve"/>
    </contour>
    <contour>
      <point x="234" y="0" type="move" name="_bottom"/>
    </contour>
  </outline>
</glyph>
<glyph name="five-deva" format="1">
  <advance width="530"/>
  <unicode hex="096B"/>
  <outline>
    <contour>
      <point x="156" y="681" type="line"/>
      <point x="68" y="615"/>
      <point x="17" y="520"/>
      <point x="17" y="434" type="curve" smooth="yes"/>
      <point x="17" y="311"/>
      <point x="117" y="241"/>
      <point x="238" y="241" type="curve" smooth="yes"/>
      <point x="347" y="241"/>
      <point x="447" y="304"/>
      <point x="447" y="372" type="curve" smooth="yes"/>
      <point x="447" y="419"/>
      <point x="394" y="462"/>
      <point x="337" y="462" type="curve" smooth="yes"/>
      <point x="303" y="462"/>
      <point x="281" y="442"/>
      <point x="281" y="410" type="curve" smooth="yes"/>
      <point x="281" y="382"/>
      <point x="287" y="363"/>
      <point x="313" y="306" type="curve" smooth="yes"/>
      <point x="455" y="0" type="line"/>
      <point x="528" y="38" type="line"/>
      <point x="395" y="336" type="line"/>
      <point x="384" y="366" type="line"/>
      <point x="320" y="330"/>
      <point x="275" y="315"/>
      <point x="234" y="315" type="curve" smooth="yes"/>
      <point x="157" y="315"/>
      <point x="102" y="361"/>
      <point x="102" y="437" type="curve" smooth="yes"/>
      <point x="102" y="502"/>
      <point x="145" y="575"/>
      <point x="215" y="630" type="curve"/>
    </contour>
  </outline>
</glyph>
<glyph name="seven-deva" format="1">
  <advance width="530"/>
  <unicode hex="096D"/>
  <outline>
    <contour>
      <point x="311" y="397"/>
      <point x="274" y="431"/>
      <point x="274" y="463" type="curve" smooth="yes"/>
      <point x="274" y="501"/>
      <point x="292" y="519"/>
      <point x="328" y="519" type="curve" smooth="yes"/>
      <point x="387" y="519"/>
      <point x="421" y="458"/>
      <point x="421" y="353" type="curve" smooth="yes"/>
      <point x="421" y="251"/>
      <point x="373" y="187"/>
      <point x="297" y="187" type="curve" smooth="yes"/>
      <point x="183" y="187"/>
      <point x="103" y="316"/>
      <point x="103" y="498" type="curve" smooth="yes"/>
      <point x="103" y="554"/>
      <point x="109" y="605"/>
      <point x="120" y="642" type="curve"/>
      <point x="41" y="674" type="line"/>
      <point x="27" y="624"/>
      <point x="19" y="564"/>
      <point x="19" y="504" type="curve" smooth="yes"/>
      <point x="19" y="275"/>
      <point x="137" y="113"/>
      <point x="304" y="113" type="curve" smooth="yes"/>
      <point x="428" y="113"/>
      <point x="505" y="204"/>
      <point x="505" y="350" type="curve" smooth="yes"/>
      <point x="505" y="499"/>
      <point x="434" y="593"/>
      <point x="320" y="593" type="curve" smooth="yes"/>
      <point x="239" y="593"/>
      <point x="190" y="546"/>
      <point x="190" y="469" type="curve" smooth="yes"/>
      <point x="190" y="397"/>
      <point x="255" y="332"/>
      <point x="342" y="317" type="curve"/>
      <point x="355" y="388" type="line"/>
    </contour>
  </outline>
</glyph>
<glyph name="eight-deva" format="1">
  <advance width="530"/>
  <unicode hex="096E"/>
  <outline>
    <contour>
      <point x="227" y="530" type="line" smooth="yes"/>
      <point x="122" y="440"/>
      <point x="80" y="375"/>
      <point x="80" y="303" type="curve" smooth="yes"/>
      <point x="80" y="169"/>
      <point x="174" y="118"/>
      <point x="292" y="118" type="curve" smooth="yes"/>
      <point x="350" y="118"/>
      <point x="414" y="130"/>
      <point x="475" y="151" type="curve"/>
      <point x="453" y="224" type="line"/>
      <point x="396" y="204"/>
      <point x="338" y="190"/>
      <point x="289" y="190" type="curve" smooth="yes"/>
      <point x="217" y="190"/>
      <point x="164" y="220"/>
      <point x="164" y="303" type="curve" smooth="yes"/>
      <point x="164" y="353"/>
      <point x="193" y="395"/>
      <point x="279" y="471" type="curve" smooth="yes"/>
      <point x="437" y="611" type="line"/>
      <point x="387" y="668" type="line"/>
    </contour>
  </outline>
</glyph>
<glyph name="nine-deva" format="1">
  <advance width="530"/>
  <unicode hex="096F"/>
  <outline>
    <contour>
      <point x="431" y="-16" type="line"/>
      <point x="442" y="5"/>
      <point x="450" y="29"/>
      <point x="452" y="55" type="curve" smooth="yes"/>
      <point x="452" y="115"/>
      <point x="432" y="146"/>
      <point x="367" y="213" type="curve" smooth="yes"/>
      <point x="226" y="358" type="line" smooth="yes"/>
      <point x="171" y="415"/>
      <point x="147" y="458"/>
      <point x="147" y="501" type="curve" smooth="yes"/>
      <point x="147" y="554"/>
      <point x="187" y="589"/>
      <point x="239" y="589" type="curve" smooth="yes"/>
      <point x="299" y="589"/>
      <point x="337" y="557"/>
      <point x="337" y="497" type="curve" smooth="yes"/>
      <point x="337" y="431"/>
      <point x="289" y="390"/>
      <point x="199" y="381" type="curve"/>
      <point x="199" y="307" type="line"/>
      <point x="329" y="316"/>
      <point x="421" y="387"/>
      <point x="421" y="497" type="curve" smooth="yes"/>
      <point x="421" y="602"/>
      <point x="344" y="663"/>
      <point x="239" y="663" type="curve" smooth="yes"/>
      <point x="141" y="663"/>
      <point x="63" y="598"/>
      <point x="63" y="501" type="curve" smooth="yes"/>
      <point x="63" y="440"/>
      <point x="92" y="383"/>
      <point x="161" y="311" type="curve" smooth="yes"/>
      <point x="303" y="165" type="line" smooth="yes"/>
      <point x="348" y="119"/>
      <point x="368" y="92"/>
      <point x="368" y="60" type="curve" smooth="yes"/>
      <point x="368" y="43"/>
      <point x="361" y="27"/>
      <point x="354" y="12" type="curve"/>
    </contour>
  </outline>
</glyph>
<glyph name="oe-deva" format="1">
  <advance width="755"/>
  <unicode hex="0973"/>
  <outline>
    <component base="a_compo"/>
    <component base="ooeMatra-deva" xOffset="463"/>
    <contour>
      <point x="620" y="799" type="move" name="top"/>
    </contour>
    <contour>
      <point x="620" y="0" type="move" name="bottom"/>
    </contour>
  </outline>
</glyph>
<glyph name="aw-deva" format="1">
  <advance width="1093"/>
  <unicode hex="0975"/>
  <outline>
    <component base="a-deva"/>
    <component base="awMatra-deva" xOffset="788"/>
    <contour>
      <point x="935" y="842" type="move" name="top"/>
    </contour>
    <contour>
      <point x="941" y="0" type="move" name="bottom"/>
    </contour>
  </outline>
</glyph>
<glyph name="uue-deva" format="1">
  <advance width="788"/>
  <unicode hex="0977"/>
  <outline>
    <component base="a-deva"/>
    <component base="uueMatra-deva" xOffset="407"/>
    <contour>
      <point x="635" y="658" type="move" name="top"/>
    </contour>
    <contour>
      <point x="635" y="0" type="move" name="bottom"/>
    </contour>
  </outline>
</glyph>
<glyph name="jjya-deva" format="1">
  <advance width="606"/>
  <unicode hex="097A"/>
  <outline>
    <contour>
      <point x="385" y="206" type="line"/>
      <point x="425" y="245" type="line"/>
      <point x="224" y="462" type="line"/>
      <point x="182" y="423" type="line"/>
    </contour>
    <component base="ya-deva"/>
    <contour>
      <point x="453" y="658" type="move" name="top"/>
    </contour>
    <contour>
      <point x="453" y="0" type="move" name="bottom"/>
    </contour>
  </outline>
</glyph>
<glyph name="jja-deva" format="1">
  <advance width="771"/>
  <unicode hex="097C"/>
  <outline>
    <contour>
      <point x="94" y="0" type="line"/>
      <point x="94" y="-75" type="line"/>
      <point x="661" y="-75" type="line"/>
      <point x="661" y="0" type="line"/>
    </contour>
    <contour>
      <point x="42" y="434" type="line"/>
      <point x="85" y="228"/>
      <point x="155" y="112"/>
      <point x="297" y="112" type="curve" smooth="yes"/>
      <point x="397" y="112"/>
      <point x="464" y="172"/>
      <point x="464" y="261" type="curve" smooth="yes"/>
      <point x="464" y="323"/>
      <point x="426" y="378"/>
      <point x="336" y="450" type="curve"/>
      <point x="287" y="401" type="line"/>
      <point x="349" y="344"/>
      <point x="378" y="300"/>
      <point x="378" y="261" type="curve" smooth="yes"/>
      <point x="378" y="216"/>
      <point x="347" y="186"/>
      <point x="299" y="186" type="curve" smooth="yes"/>
      <point x="204" y="186"/>
      <point x="156" y="273"/>
      <point x="120" y="452" type="curve"/>
    </contour>
    <contour>
      <point x="313" y="475" type="line"/>
      <point x="287" y="401" type="line"/>
      <point x="597" y="401" type="line"/>
      <point x="576" y="475" type="line"/>
    </contour>
    <contour>
      <point x="-19" y="658" type="line"/>
      <point x="-19" y="583" type="line"/>
      <point x="486" y="583" type="line"/>
      <point x="486" y="658" type="line"/>
    </contour>
    <contour>
      <point x="576" y="606" type="line"/>
      <point x="576" y="0" type="line"/>
      <point x="661" y="0" type="line"/>
      <point x="661" y="606" type="line"/>
    </contour>
    <contour>
      <point x="448" y="658" type="line"/>
      <point x="448" y="583" type="line"/>
      <point x="790" y="583" type="line"/>
      <point x="790" y="658" type="line"/>
    </contour>
    <contour>
      <point x="659" y="658" type="move" name="imatra"/>
    </contour>
    <contour>
      <point x="318" y="0" type="move" name="nukta"/>
    </contour>
    <contour>
      <point x="619" y="658" type="move" name="top"/>
    </contour>
    <contour>
      <point x="370" y="-76" type="move" name="bottom"/>
    </contour>
  </outline>
</glyph>
<glyph name="emdash" format="1">
  <advance width="900"/>
  <unicode hex="2014"/>
  <outline>
    <contour>
      <point x="825" y="359" type="line"/>
      <point x="75" y="359" type="line"/>
      <point x="75" y="279" type="line"/>
      <point x="825" y="279" type="line"/>
    </contour>
  </outline>
</glyph>
<glyph name="quotereversed" format="1">
  <advance width="265"/>
  <unicode hex="201B"/>
  <outline>
    <contour>
      <point x="62" y="728" type="line"/>
      <point x="62" y="642" type="line"/>
      <point x="129" y="484" type="line"/>
      <point x="195" y="484" type="line"/>
      <point x="143" y="621" type="line"/>
      <point x="191" y="621" type="line"/>
      <point x="191" y="728" type="line"/>
    </contour>
  </outline>
</glyph>
<glyph name="quotedblbase" format="1">
  <advance width="438"/>
  <unicode hex="201E"/>
  <outline>
    <contour>
      <point x="60" y="17" type="line"/>
      <point x="109" y="17" type="line"/>
      <point x="56" y="-120" type="line"/>
      <point x="123" y="-120" type="line"/>
      <point x="189" y="38" type="line"/>
      <point x="189" y="124" type="line"/>
      <point x="60" y="124" type="line"/>
    </contour>
    <contour>
      <point x="242" y="17" type="line"/>
      <point x="290" y="17" type="line"/>
      <point x="238" y="-120" type="line"/>
      <point x="304" y="-120" type="line"/>
      <point x="371" y="38" type="line"/>
      <point x="371" y="124" type="line"/>
      <point x="242" y="124" type="line"/>
    </contour>
  </outline>
</glyph>
<glyph name="uni203E" format="1">
  <advance width="600"/>
  <unicode hex="203E"/>
  <outline>
    <contour>
      <point x="525" y="824" type="line"/>
      <point x="75" y="824" type="line"/>
      <point x="75" y="742" type="line"/>
      <point x="525" y="742" type="line"/>
    </contour>
  </outline>
</glyph>
<glyph name="franc" format="1">
  <advance width="556"/>
  <unicode hex="20A3"/>
  <outline>
    <contour>
      <point x="230" y="623" type="line"/>
      <point x="535" y="623" type="line"/>
      <point x="535" y="708" type="line"/>
      <point x="134" y="708" type="line"/>
      <point x="134" y="201" type="line"/>
      <point x="14" y="201" type="line"/>
      <point x="14" y="121" type="line"/>
      <point x="134" y="121" type="line"/>
      <point x="134" y="0" type="line"/>
      <point x="230" y="0" type="line"/>
      <point x="230" y="121" type="line"/>
      <point x="381" y="121" type="line"/>
      <point x="381" y="201" type="line"/>
      <point x="230" y="201" type="line"/>
      <point x="230" y="348" type="line"/>
      <point x="486" y="348" type="line"/>
      <point x="486" y="433" type="line"/>
      <point x="230" y="433" type="line"/>
    </contour>
  </outline>
</glyph>
<glyph name="rupeeIndian" format="1">
  <advance width="396"/>
  <unicode hex="20B9"/>
  <outline>
    <contour>
      <point x="-16" y="498" type="line"/>
      <point x="-16" y="423" type="line"/>
      <point x="299" y="423" type="line"/>
      <point x="299" y="498" type="line"/>
    </contour>
    <contour>
      <point x="158" y="605" type="line"/>
      <point x="213" y="553"/>
      <point x="245" y="489"/>
      <point x="245" y="435" type="curve" smooth="yes"/>
      <point x="245" y="364"/>
      <point x="214" y="327"/>
      <point x="155" y="327" type="curve" smooth="yes"/>
      <point x="132" y="327"/>
      <point x="106" y="337"/>
      <point x="76" y="357" type="curve"/>
      <point x="30" y="295" type="line"/>
      <point x="68" y="266"/>
      <point x="112" y="251"/>
      <point x="154" y="251" type="curve" smooth="yes"/>
      <point x="263" y="251"/>
      <point x="327" y="319"/>
      <point x="327" y="433" type="curve" smooth="yes"/>
      <point x="327" y="499"/>
      <point x="292" y="573"/>
      <point x="227" y="640" type="curve"/>
    </contour>
    <contour>
      <point x="30" y="295" type="line"/>
      <point x="261" y="-13" type="line"/>
      <point x="329" y="31" type="line"/>
      <point x="120" y="322" type="line"/>
      <point x="76" y="357" type="line"/>
    </contour>
    <contour>
      <point x="-20" y="658" type="line"/>
      <point x="-20" y="583" type="line"/>
      <point x="416" y="583" type="line"/>
      <point x="416" y="658" type="line"/>
    </contour>
    <contour>
      <point x="78" y="0" type="move" name="nukta"/>
    </contour>
    <contour>
      <point x="198" y="0" type="move" name="bottom"/>
    </contour>
    <contour>
      <point x="159" y="498" type="move" name="top"/>
    </contour>
  </outline>
</glyph>
<glyph name="fiveeighths" format="1">
  <advance width="908"/>
  <unicode hex="215D"/>
  <outline>
    <contour>
      <point x="615" y="738" type="line"/>
      <point x="188" y="-1" type="line"/>
      <point x="255" y="-38" type="line"/>
      <point x="682" y="701" type="line"/>
    </contour>
    <contour>
      <point x="24" y="281" type="line"/>
      <point x="66" y="264"/>
      <point x="115" y="255"/>
      <point x="159" y="255" type="curve" smooth="yes"/>
      <point x="262" y="255"/>
      <point x="324" y="311"/>
      <point x="324" y="405" type="curve" smooth="yes"/>
      <point x="324" y="481"/>
      <point x="271" y="533"/>
      <point x="192" y="533" type="curve" smooth="yes"/>
      <point x="167" y="533"/>
      <point x="141" y="528"/>
      <point x="116" y="520" type="curve"/>
      <point x="128" y="639" type="line"/>
      <point x="306" y="639" type="line"/>
      <point x="306" y="704" type="line"/>
      <point x="62" y="704" type="line"/>
      <point x="41" y="481" type="line"/>
      <point x="84" y="451" type="line"/>
      <point x="108" y="464"/>
      <point x="138" y="471"/>
      <point x="164" y="471" type="curve" smooth="yes"/>
      <point x="211" y="471"/>
      <point x="238" y="447"/>
      <point x="238" y="404" type="curve" smooth="yes"/>
      <point x="238" y="350"/>
      <point x="206" y="322"/>
      <point x="147" y="322" type="curve" smooth="yes"/>
      <point x="116" y="322"/>
      <point x="75" y="330"/>
      <point x="38" y="344" type="curve"/>
    </contour>
    <contour>
      <point x="547" y="38"/>
      <point x="612" y="-10"/>
      <point x="717" y="-10" type="curve" smooth="yes"/>
      <point x="817" y="-10"/>
      <point x="884" y="41"/>
      <point x="884" y="118" type="curve" smooth="yes"/>
      <point x="884" y="181"/>
      <point x="842" y="210"/>
      <point x="793" y="231" type="curve"/>
      <point x="840" y="255"/>
      <point x="866" y="290"/>
      <point x="866" y="331" type="curve" smooth="yes"/>
      <point x="866" y="403"/>
      <point x="807" y="449"/>
      <point x="715" y="449" type="curve" smooth="yes"/>
      <point x="622" y="449"/>
      <point x="564" y="403"/>
      <point x="564" y="332" type="curve" smooth="yes"/>
      <point x="564" y="277"/>
      <point x="591" y="248"/>
      <point x="627" y="229" type="curve"/>
      <point x="575" y="203"/>
      <point x="547" y="165"/>
      <point x="547" y="117" type="curve" smooth="yes"/>
    </contour>
    <contour>
      <point x="787" y="297"/>
      <point x="769" y="271"/>
      <point x="737" y="251" type="curve"/>
      <point x="687" y="268"/>
      <point x="643" y="285"/>
      <point x="643" y="328" type="curve" smooth="yes"/>
      <point x="643" y="363"/>
      <point x="671" y="385"/>
      <point x="715" y="385" type="curve" smooth="yes"/>
      <point x="759" y="385"/>
      <point x="787" y="363"/>
      <point x="787" y="328" type="curve" smooth="yes"/>
    </contour>
    <contour>
      <point x="803" y="81"/>
      <point x="767" y="54"/>
      <point x="717" y="54" type="curve" smooth="yes"/>
      <point x="663" y="54"/>
      <point x="627" y="80"/>
      <point x="627" y="120" type="curve" smooth="yes"/>
      <point x="627" y="153"/>
      <point x="643" y="177"/>
      <point x="685" y="205" type="curve"/>
      <point x="744" y="186"/>
      <point x="803" y="173"/>
      <point x="803" y="121" type="curve" smooth="yes"/>
    </contour>
  </outline>
</glyph>
<glyph name="radical" format="1">
  <advance width="645"/>
  <unicode hex="221A"/>
  <outline>
    <contour>
      <point x="58" y="362" type="line"/>
      <point x="153" y="409" type="line"/>
      <point x="303" y="0" type="line"/>
      <point x="416" y="0" type="line"/>
      <point x="601" y="760" type="line"/>
      <point x="510" y="760" type="line"/>
      <point x="357" y="87" type="line"/>
      <point x="211" y="515" type="line"/>
      <point x="28" y="430" type="line"/>
    </contour>
  </outline>
</glyph>
<glyph name="one-deva.comb" format="1">
  <advance width="192"/>
  <unicode hex="A8E1"/>
  <outline>
    <contour>
      <point x="84" y="855" type="line"/>
      <point x="72" y="862"/>
      <point x="67" y="874"/>
      <point x="67" y="885" type="curve" smooth="yes"/>
      <point x="67" y="903"/>
      <point x="77" y="913"/>
      <point x="94" y="913" type="curve" smooth="yes"/>
      <point x="110" y="913"/>
      <point x="122" y="903"/>
      <point x="122" y="884" type="curve" smooth="yes"/>
      <point x="122" y="866"/>
      <point x="112" y="843"/>
      <point x="90" y="822" type="curve" smooth="yes"/>
      <point x="34" y="768" type="line"/>
      <point x="104" y="719" type="line" smooth="yes"/>
      <point x="119" y="707"/>
      <point x="124" y="697"/>
      <point x="124" y="685" type="curve" smooth="yes"/>
      <point x="124" y="678"/>
      <point x="122" y="669"/>
      <point x="121" y="660" type="curve"/>
      <point x="177" y="647" type="line"/>
      <point x="180" y="662"/>
      <point x="183" y="675"/>
      <point x="183" y="687" type="curve" smooth="yes"/>
      <point x="183" y="707"/>
      <point x="177" y="728"/>
      <point x="158" y="741" type="curve" smooth="yes"/>
      <point x="113" y="775" type="line"/>
      <point x="153" y="809"/>
      <point x="180" y="851"/>
      <point x="180" y="887" type="curve" smooth="yes"/>
      <point x="180" y="927"/>
      <point x="148" y="960"/>
      <point x="95" y="960" type="curve" smooth="yes"/>
      <point x="44" y="960"/>
      <point x="9" y="931"/>
      <point x="9" y="887" type="curve" smooth="yes"/>
      <point x="9" y="857"/>
      <point x="28" y="832"/>
      <point x="54" y="818" type="curve"/>
    </contour>
    <contour>
      <point x="96" y="657" type="move" name="_top"/>
    </contour>
  </outline>
</glyph>
<glyph name="two-deva.comb" format="1">
  <advance width="222"/>
  <unicode hex="A8E2"/>
  <outline>
    <contour>
      <point x="72" y="961"/>
      <point x="39" y="954"/>
      <point x="9" y="940" type="curve"/>
      <point x="19" y="895" type="line"/>
      <point x="50" y="907"/>
      <point x="79" y="913"/>
      <point x="100" y="913" type="curve" smooth="yes"/>
      <point x="137" y="913"/>
      <point x="156" y="894"/>
      <point x="156" y="860" type="curve" smooth="yes"/>
      <point x="156" y="831"/>
      <point x="140" y="813"/>
      <point x="110" y="807" type="curve"/>
      <point x="95" y="831"/>
      <point x="83" y="838"/>
      <point x="64" y="838" type="curve" smooth="yes"/>
      <point x="39" y="838"/>
      <point x="21" y="824"/>
      <point x="21" y="800" type="curve" smooth="yes"/>
      <point x="21" y="773"/>
      <point x="42" y="758"/>
      <point x="83" y="755" type="curve"/>
      <point x="154" y="636" type="line"/>
      <point x="200" y="660" type="line"/>
      <point x="138" y="760" type="line"/>
      <point x="180" y="775"/>
      <point x="213" y="811"/>
      <point x="213" y="863" type="curve" smooth="yes"/>
      <point x="213" y="921"/>
      <point x="171" y="961"/>
      <point x="102" y="961" type="curve" smooth="yes"/>
    </contour>
    <contour>
      <point x="111" y="657" type="move" name="_top"/>
    </contour>
  </outline>
</glyph>
<glyph name="five-deva.comb" format="1">
  <advance width="261"/>
  <unicode hex="A8E5"/>
  <outline>
    <contour>
      <point x="36" y="936"/>
      <point x="9" y="893"/>
      <point x="9" y="852" type="curve" smooth="yes"/>
      <point x="9" y="791"/>
      <point x="51" y="754"/>
      <point x="116" y="754" type="curve" smooth="yes"/>
      <point x="130" y="754"/>
      <point x="144" y="756"/>
      <point x="156" y="759" type="curve"/>
      <point x="205" y="651" type="line"/>
      <point x="252" y="673" type="line"/>
      <point x="202" y="786" type="line"/>
      <point x="212" y="796"/>
      <point x="218" y="809"/>
      <point x="218" y="822" type="curve" smooth="yes"/>
      <point x="218" y="847"/>
      <point x="190" y="870"/>
      <point x="160" y="870" type="curve" smooth="yes"/>
      <point x="140" y="870"/>
      <point x="128" y="858"/>
      <point x="128" y="839" type="curve" smooth="yes"/>
      <point x="128" y="829"/>
      <point x="129" y="822"/>
      <point x="137" y="804" type="curve"/>
      <point x="129" y="802"/>
      <point x="122" y="801"/>
      <point x="114" y="801" type="curve" smooth="yes"/>
      <point x="85" y="801"/>
      <point x="67" y="820"/>
      <point x="67" y="852" type="curve" smooth="yes"/>
      <point x="67" y="881"/>
      <point x="87" y="913"/>
      <point x="120" y="938" type="curve"/>
      <point x="80" y="966" type="line"/>
    </contour>
    <contour>
      <point x="130" y="657" type="move" name="_top"/>
    </contour>
  </outline>
</glyph>
<glyph name="six-deva.comb" format="1">
  <advance width="242"/>
  <unicode hex="A8E6"/>
  <outline>
    <contour>
      <point x="49" y="961"/>
      <point x="9" y="937"/>
      <point x="9" y="890" type="curve" smooth="yes"/>
      <point x="9" y="865"/>
      <point x="21" y="844"/>
      <point x="40" y="831" type="curve"/>
      <point x="23" y="816"/>
      <point x="14" y="796"/>
      <point x="14" y="771" type="curve" smooth="yes"/>
      <point x="14" y="716"/>
      <point x="59" y="687"/>
      <point x="121" y="687" type="curve" smooth="yes"/>
      <point x="125" y="687"/>
      <point x="129" y="687"/>
      <point x="133" y="687" type="curve"/>
      <point x="193" y="603" type="line"/>
      <point x="233" y="639" type="line"/>
      <point x="190" y="696" type="line"/>
      <point x="203" y="701"/>
      <point x="212" y="712"/>
      <point x="212" y="726" type="curve" smooth="yes"/>
      <point x="212" y="752"/>
      <point x="186" y="771"/>
      <point x="157" y="771" type="curve" smooth="yes"/>
      <point x="132" y="771"/>
      <point x="115" y="758"/>
      <point x="115" y="734" type="curve"/>
      <point x="85" y="735"/>
      <point x="71" y="748"/>
      <point x="71" y="771" type="curve" smooth="yes"/>
      <point x="71" y="788"/>
      <point x="79" y="802"/>
      <point x="97" y="811" type="curve"/>
      <point x="111" y="808"/>
      <point x="126" y="807"/>
      <point x="142" y="807" type="curve" smooth="yes"/>
      <point x="164" y="807" type="line"/>
      <point x="157" y="854" type="line"/>
      <point x="145" y="854" type="line" smooth="yes"/>
      <point x="83" y="854"/>
      <point x="67" y="867"/>
      <point x="67" y="888" type="curve" smooth="yes"/>
      <point x="67" y="904"/>
      <point x="77" y="914"/>
      <point x="103" y="914" type="curve" smooth="yes"/>
      <point x="116" y="914"/>
      <point x="134" y="911"/>
      <point x="155" y="904" type="curve"/>
      <point x="173" y="948" type="line"/>
      <point x="149" y="957"/>
      <point x="125" y="961"/>
      <point x="104" y="961" type="curve" smooth="yes"/>
    </contour>
    <contour>
      <point x="121" y="657" type="move" name="_top"/>
    </contour>
  </outline>
</glyph>
<glyph name="seven-deva.comb" format="1">
  <advance width="260"/>
  <unicode hex="A8E7"/>
  <outline>
    <contour>
      <point x="13" y="934"/>
      <point x="9" y="908"/>
      <point x="9" y="881" type="curve" smooth="yes"/>
      <point x="9" y="773"/>
      <point x="66" y="699"/>
      <point x="149" y="699" type="curve" smooth="yes"/>
      <point x="212" y="699"/>
      <point x="251" y="741"/>
      <point x="251" y="813" type="curve" smooth="yes"/>
      <point x="251" y="883"/>
      <point x="214" y="929"/>
      <point x="156" y="929" type="curve" smooth="yes"/>
      <point x="113" y="929"/>
      <point x="87" y="905"/>
      <point x="87" y="866" type="curve" smooth="yes"/>
      <point x="87" y="824"/>
      <point x="115" y="795"/>
      <point x="167" y="786" type="curve"/>
      <point x="175" y="832" type="line"/>
      <point x="157" y="836"/>
      <point x="144" y="849"/>
      <point x="144" y="863" type="curve" smooth="yes"/>
      <point x="144" y="875"/>
      <point x="150" y="882"/>
      <point x="161" y="882" type="curve" smooth="yes"/>
      <point x="181" y="882"/>
      <point x="194" y="854"/>
      <point x="194" y="815" type="curve" smooth="yes"/>
      <point x="194" y="770"/>
      <point x="176" y="746"/>
      <point x="145" y="746" type="curve" smooth="yes"/>
      <point x="99" y="746"/>
      <point x="67" y="801"/>
      <point x="67" y="880" type="curve" smooth="yes"/>
      <point x="67" y="903"/>
      <point x="69" y="927"/>
      <point x="74" y="943" type="curve"/>
      <point x="19" y="957" type="line"/>
    </contour>
    <contour>
      <point x="130" y="657" type="move" name="_top"/>
    </contour>
  </outline>
</glyph>
<glyph name="eight-deva.comb" format="1">
  <advance width="216"/>
  <unicode hex="A8E8"/>
  <outline>
    <contour>
      <point x="80" y="900" type="line" smooth="yes"/>
      <point x="32" y="859"/>
      <point x="9" y="825"/>
      <point x="9" y="789" type="curve" smooth="yes"/>
      <point x="9" y="735"/>
      <point x="54" y="699"/>
      <point x="117" y="699" type="curve" smooth="yes"/>
      <point x="145" y="699"/>
      <point x="176" y="705"/>
      <point x="207" y="718" type="curve"/>
      <point x="191" y="762" type="line"/>
      <point x="165" y="751"/>
      <point x="140" y="746"/>
      <point x="117" y="746" type="curve" smooth="yes"/>
      <point x="86" y="746"/>
      <point x="67" y="762"/>
      <point x="67" y="789" type="curve" smooth="yes"/>
      <point x="67" y="811"/>
      <point x="82" y="834"/>
      <point x="116" y="863" type="curve" smooth="yes"/>
      <point x="189" y="923" type="line"/>
      <point x="153" y="960" type="line"/>
    </contour>
    <contour>
      <point x="108" y="657" type="move" name="_top"/>
    </contour>
  </outline>
</glyph>
<glyph name="a-deva.comb" format="1">
  <advance width="392"/>
  <unicode hex="A8EA"/>
  <outline>
    <contour>
      <point x="212" y="961" type="line"/>
      <point x="212" y="913" type="line"/>
      <point x="268" y="913" type="line"/>
      <point x="268" y="833" type="line"/>
      <point x="255" y="830"/>
      <point x="239" y="827"/>
      <point x="221" y="827" type="curve" smooth="yes"/>
      <point x="204" y="827"/>
      <point x="188" y="829"/>
      <point x="175" y="832" type="curve"/>
      <point x="188" y="849"/>
      <point x="193" y="867"/>
      <point x="193" y="885" type="curve" smooth="yes"/>
      <point x="193" y="921"/>
      <point x="167" y="961"/>
      <point x="105" y="961" type="curve" smooth="yes"/>
      <point x="82" y="961"/>
      <point x="58" y="956"/>
      <point x="34" y="945" type="curve"/>
      <point x="50" y="901" type="line"/>
      <point x="69" y="908"/>
      <point x="82" y="913"/>
      <point x="99" y="913" type="curve" smooth="yes"/>
      <point x="124" y="913"/>
      <point x="135" y="902"/>
      <point x="135" y="885" type="curve" smooth="yes"/>
      <point x="135" y="859"/>
      <point x="118" y="847"/>
      <point x="65" y="835" type="curve"/>
      <point x="77" y="789" type="line"/>
      <point x="98" y="792"/>
      <point x="115" y="797"/>
      <point x="130" y="803" type="curve"/>
      <point x="149" y="792"/>
      <point x="162" y="775"/>
      <point x="162" y="754" type="curve" smooth="yes"/>
      <point x="162" y="731"/>
      <point x="145" y="716"/>
      <point x="121" y="716" type="curve" smooth="yes"/>
      <point x="94" y="716"/>
      <point x="68" y="731"/>
      <point x="50" y="757" type="curve"/>
      <point x="9" y="731" type="line"/>
      <point x="39" y="684"/>
      <point x="80" y="665"/>
      <point x="124" y="665" type="curve" smooth="yes"/>
      <point x="182" y="665"/>
      <point x="220" y="696"/>
      <point x="220" y="754" type="curve" smooth="yes"/>
      <point x="220" y="764"/>
      <point x="218" y="774"/>
      <point x="214" y="782" type="curve"/>
      <point x="219" y="782"/>
      <point x="223" y="782"/>
      <point x="228" y="782" type="curve" smooth="yes"/>
      <point x="243" y="782"/>
      <point x="256" y="785"/>
      <point x="268" y="787" type="curve"/>
      <point x="268" y="654" type="line"/>
      <point x="326" y="654" type="line"/>
      <point x="326" y="913" type="line"/>
      <point x="383" y="913" type="line"/>
      <point x="383" y="961" type="line"/>
    </contour>
    <contour>
      <point x="196" y="657" type="move" name="_top"/>
    </contour>
  </outline>
</glyph>
<glyph name="u-deva.comb" format="1">
  <advance width="276"/>
  <unicode hex="A8EB"/>
  <outline>
    <contour>
      <point x="9" y="961" type="line"/>
      <point x="9" y="913" type="line"/>
      <point x="139" y="913" type="line"/>
      <point x="146" y="905"/>
      <point x="152" y="894"/>
      <point x="152" y="884" type="curve" smooth="yes"/>
      <point x="152" y="859"/>
      <point x="134" y="846"/>
      <point x="82" y="835" type="curve"/>
      <point x="95" y="789" type="line"/>
      <point x="114" y="792"/>
      <point x="132" y="796"/>
      <point x="147" y="803" type="curve"/>
      <point x="166" y="792"/>
      <point x="179" y="775"/>
      <point x="179" y="754" type="curve" smooth="yes"/>
      <point x="179" y="731"/>
      <point x="162" y="716"/>
      <point x="138" y="716" type="curve" smooth="yes"/>
      <point x="110" y="716"/>
      <point x="86" y="731"/>
      <point x="67" y="757" type="curve"/>
      <point x="26" y="731" type="line"/>
      <point x="56" y="684"/>
      <point x="97" y="665"/>
      <point x="140" y="665" type="curve" smooth="yes"/>
      <point x="196" y="665"/>
      <point x="237" y="698"/>
      <point x="237" y="753" type="curve" smooth="yes"/>
      <point x="237" y="786"/>
      <point x="218" y="811"/>
      <point x="188" y="829" type="curve"/>
      <point x="203" y="845"/>
      <point x="210" y="865"/>
      <point x="210" y="885" type="curve" smooth="yes"/>
      <point x="210" y="895"/>
      <point x="207" y="905"/>
      <point x="203" y="913" type="curve"/>
      <point x="267" y="913" type="line"/>
      <point x="267" y="961" type="line"/>
    </contour>
    <contour>
      <point x="138" y="657" type="move" name="_top"/>
    </contour>
  </outline>
</glyph>
<glyph name="ka-deva.comb" format="1">
  <advance width="437"/>
  <unicode hex="A8EC"/>
  <outline>
    <contour>
      <point x="9" y="961" type="line"/>
      <point x="9" y="913" type="line"/>
      <point x="189" y="913" type="line"/>
      <point x="189" y="788" type="line"/>
      <point x="176" y="762"/>
      <point x="158" y="748"/>
      <point x="134" y="748" type="curve" smooth="yes"/>
      <point x="110" y="748"/>
      <point x="95" y="763"/>
      <point x="95" y="788" type="curve" smooth="yes"/>
      <point x="95" y="813"/>
      <point x="112" y="828"/>
      <point x="139" y="828" type="curve" smooth="yes"/>
      <point x="142" y="828"/>
      <point x="148" y="827"/>
      <point x="151" y="827" type="curve"/>
      <point x="146" y="875" type="line"/>
      <point x="142" y="875"/>
      <point x="139" y="875"/>
      <point x="135" y="875" type="curve" smooth="yes"/>
      <point x="75" y="875"/>
      <point x="38" y="842"/>
      <point x="38" y="788" type="curve" smooth="yes"/>
      <point x="38" y="733"/>
      <point x="72" y="701"/>
      <point x="130" y="701" type="curve" smooth="yes"/>
      <point x="153" y="701"/>
      <point x="173" y="707"/>
      <point x="189" y="722" type="curve"/>
      <point x="189" y="654" type="line"/>
      <point x="248" y="654" type="line"/>
      <point x="248" y="786" type="line"/>
      <point x="262" y="815"/>
      <point x="279" y="828"/>
      <point x="303" y="828" type="curve" smooth="yes"/>
      <point x="328" y="828"/>
      <point x="341" y="813"/>
      <point x="341" y="788" type="curve" smooth="yes"/>
      <point x="341" y="763"/>
      <point x="325" y="748"/>
      <point x="298" y="748" type="curve" smooth="yes"/>
      <point x="294" y="748"/>
      <point x="291" y="749"/>
      <point x="286" y="750" type="curve"/>
      <point x="291" y="701" type="line"/>
      <point x="293" y="701"/>
      <point x="296" y="701"/>
      <point x="302" y="701" type="curve" smooth="yes"/>
      <point x="363" y="701"/>
      <point x="399" y="733"/>
      <point x="399" y="788" type="curve" smooth="yes"/>
      <point x="399" y="842"/>
      <point x="365" y="875"/>
      <point x="308" y="875" type="curve" smooth="yes"/>
      <point x="284" y="875"/>
      <point x="264" y="868"/>
      <point x="248" y="853" type="curve"/>
      <point x="248" y="913" type="line"/>
      <point x="428" y="913" type="line"/>
      <point x="428" y="961" type="line"/>
    </contour>
    <contour>
      <point x="218" y="657" type="move" name="_top"/>
    </contour>
  </outline>
</glyph>
<glyph name="pa-deva.comb" format="1">
  <advance width="312"/>
  <unicode hex="A8EE"/>
  <outline>
    <contour>
      <point x="9" y="961" type="line"/>
      <point x="9" y="913" type="line"/>
      <point x="41" y="913" type="line"/>
      <point x="41" y="827" type="line" smooth="yes"/>
      <point x="41" y="773"/>
      <point x="82" y="738"/>
      <point x="137" y="738" type="curve" smooth="yes"/>
      <point x="158" y="738"/>
      <point x="174" y="741"/>
      <point x="189" y="753" type="curve"/>
      <point x="189" y="654" type="line"/>
      <point x="247" y="654" type="line"/>
      <point x="247" y="913" type="line"/>
      <point x="303" y="913" type="line"/>
      <point x="303" y="961" type="line"/>
    </contour>
    <contour>
      <point x="189" y="809" type="line"/>
      <point x="174" y="791"/>
      <point x="159" y="785"/>
      <point x="141" y="785" type="curve" smooth="yes"/>
      <point x="114" y="785"/>
      <point x="99" y="803"/>
      <point x="99" y="827" type="curve" smooth="yes"/>
      <point x="99" y="913" type="line"/>
      <point x="189" y="913" type="line"/>
    </contour>
    <contour>
      <point x="156" y="657" type="move" name="_top"/>
    </contour>
  </outline>
</glyph>
<glyph name="three_candraBindu-deva" format="1">
  <advance width="581"/>
  <unicode hex="A8F6"/>
  <outline>
    <contour>
      <point x="305" y="109" type="line"/>
      <point x="374" y="90"/>
      <point x="404" y="65"/>
      <point x="404" y="30" type="curve" smooth="yes"/>
      <point x="404" y="-22"/>
      <point x="346" y="-64"/>
      <point x="248" y="-64" type="curve"/>
      <point x="357" y="-81" type="line"/>
      <point x="273" y="-12"/>
      <point x="239" y="1"/>
      <point x="198" y="1" type="curve" smooth="yes"/>
      <point x="161" y="1"/>
      <point x="133" y="-21"/>
      <point x="133" y="-58" type="curve" smooth="yes"/>
      <point x="133" y="-111"/>
      <point x="182" y="-134"/>
      <point x="275" y="-134" type="curve" smooth="yes"/>
      <point x="409" y="-134"/>
      <point x="481" y="-52"/>
      <point x="481" y="27" type="curve" smooth="yes"/>
      <point x="481" y="75"/>
      <point x="456" y="119"/>
      <point x="382" y="156" type="curve"/>
    </contour>
    <contour>
      <point x="258" y="-100" type="line"/>
      <point x="444" y="-245" type="line"/>
      <point x="492" y="-187" type="line"/>
      <point x="329" y="-60" type="line"/>
    </contour>
    <contour>
      <point x="234" y="362"/>
      <point x="193" y="353"/>
      <point x="142" y="336" type="curve"/>
      <point x="163" y="266" type="line"/>
      <point x="208" y="281"/>
      <point x="239" y="289"/>
      <point x="280" y="289" type="curve" smooth="yes"/>
      <point x="330" y="289"/>
      <point x="373" y="279"/>
      <point x="373" y="229" type="curve" smooth="yes"/>
      <point x="373" y="164"/>
      <point x="281" y="152"/>
      <point x="198" y="149" type="curve"/>
      <point x="217" y="78" type="line"/>
      <point x="348" y="84"/>
      <point x="451" y="120"/>
      <point x="451" y="229" type="curve" smooth="yes"/>
      <point x="451" y="324"/>
      <point x="378" y="362"/>
      <point x="283" y="362" type="curve" smooth="yes"/>
    </contour>
    <component base="candraBindu-deva" xOffset="74" yOffset="-305"/>
  </outline>
</glyph>
<glyph name="avagraha_candraBindu-deva" format="1">
  <advance width="450"/>
  <unicode hex="A8F7"/>
  <outline>
    <contour>
      <point x="386" y="96"/>
      <point x="339" y="119"/>
      <point x="254" y="170" type="curve" smooth="yes"/>
      <point x="191" y="207"/>
      <point x="169" y="218"/>
      <point x="169" y="251" type="curve" smooth="yes"/>
      <point x="169" y="285"/>
      <point x="195" y="292"/>
      <point x="232" y="292" type="curve" smooth="yes"/>
      <point x="366" y="292" type="line"/>
      <point x="366" y="363" type="line"/>
      <point x="232" y="363" type="line" smooth="yes"/>
      <point x="141" y="363"/>
      <point x="89" y="326"/>
      <point x="89" y="251" type="curve" smooth="yes"/>
      <point x="89" y="182"/>
      <point x="131" y="153"/>
      <point x="203" y="113" type="curve" smooth="yes"/>
      <point x="270" y="74"/>
      <point x="306" y="61"/>
      <point x="306" y="14" type="curve" smooth="yes"/>
      <point x="306" y="-33"/>
      <point x="275" y="-54"/>
      <point x="226" y="-54" type="curve" smooth="yes"/>
      <point x="159" y="-54"/>
      <point x="115" y="-18"/>
      <point x="85" y="32" type="curve"/>
      <point x="26" y="-5" type="line"/>
      <point x="68" y="-78"/>
      <point x="132" y="-125"/>
      <point x="226" y="-125" type="curve" smooth="yes"/>
      <point x="317" y="-125"/>
      <point x="386" y="-79"/>
      <point x="386" y="14" type="curve" smooth="yes"/>
    </contour>
    <component base="candraBindu-deva" xOffset="18" yOffset="-305"/>
  </outline>
</glyph>
<glyph name="caret-deva" format="1">
  <advance width="463"/>
  <unicode hex="A8FA"/>
  <outline>
    <contour>
      <point x="443" y="801" type="line"/>
      <point x="382" y="839" type="line"/>
      <point x="232" y="655" type="line"/>
      <point x="82" y="839" type="line"/>
      <point x="20" y="801" type="line"/>
      <point x="185" y="598" type="line"/>
      <point x="278" y="599" type="line"/>
    </contour>
    <contour>
      <point x="232" y="599" type="move" name="_top"/>
    </contour>
  </outline>
</glyph>
<glyph name="auMatra_anusvara-deva" format="1">
  <advance width="306"/>
  <outline>
    <component base="aaMatra-deva"/>
    <component base="aiMatra-deva" xOffset="-217"/>
    <component base="anusvara-deva" xOffset="178"/>
    <contour>
      <point x="218" y="862" type="move" name="top"/>
    </contour>
  </outline>
</glyph>
<glyph name="b-deva" format="1">
  <advance width="274"/>
  <outline>
    <contour>
      <point x="306" y="183" type="line"/>
      <point x="346" y="222" type="line"/>
      <point x="175" y="407" type="line"/>
      <point x="133" y="368" type="line"/>
    </contour>
    <component base="v-deva"/>
    <contour>
      <point x="136" y="658" type="move" name="top"/>
    </contour>
    <contour>
      <point x="136" y="0" type="move" name="bottom"/>
    </contour>
  </outline>
</glyph>
<glyph name="b_r-deva" format="1">
  <advance width="280"/>
  <outline>
    <contour>
      <point x="89" y="23" type="line"/>
      <point x="139" y="-35" type="line"/>
      <point x="415" y="180" type="line"/>
      <point x="398" y="259" type="line"/>
    </contour>
    <component base="b-deva"/>
    <contour>
      <point x="424" y="658" type="move" name="top"/>
    </contour>
    <contour>
      <point x="424" y="0" type="move" name="bottom"/>
    </contour>
  </outline>
</glyph>
<glyph name="b_ra-deva" format="1">
  <advance width="577"/>
  <outline>
    <contour>
      <point x="89" y="23" type="line"/>
      <point x="139" y="-35" type="line"/>
      <point x="420" y="184" type="line"/>
      <point x="420" y="276" type="line"/>
    </contour>
    <component base="b-deva"/>
    <component base="aaMatra-deva" xOffset="271"/>
    <contour>
      <point x="424" y="658" type="move" name="top"/>
    </contour>
    <contour>
      <point x="424" y="0" type="move" name="bottom"/>
    </contour>
  </outline>
</glyph>
<glyph name="bh_ra-deva" format="1">
  <advance width="621"/>
  <outline>
    <contour>
      <point x="117" y="48" type="line"/>
      <point x="167" y="-10" type="line"/>
      <point x="448" y="209" type="line"/>
      <point x="448" y="301" type="line"/>
    </contour>
    <component base="bha-deva"/>
    <contour>
      <point x="469" y="658" type="move" name="top"/>
    </contour>
    <contour>
      <point x="469" y="0" type="move" name="bottom"/>
    </contour>
  </outline>
</glyph>
<glyph name="brevebelow" format="1">
  <advance width="387"/>
  <outline>
    <contour>
      <point x="273" y="-60" type="line"/>
      <point x="273" y="-100"/>
      <point x="240" y="-129"/>
      <point x="193" y="-129" type="curve" smooth="yes"/>
      <point x="145" y="-129"/>
      <point x="114" y="-102"/>
      <point x="114" y="-60" type="curve"/>
      <point x="50" y="-60" type="line"/>
      <point x="50" y="-140"/>
      <point x="107" y="-194"/>
      <point x="193" y="-194" type="curve" smooth="yes"/>
      <point x="279" y="-194"/>
      <point x="337" y="-140"/>
      <point x="337" y="-60" type="curve"/>
    </contour>
  </outline>
</glyph>
<glyph name="c-deva" format="1">
  <advance width="349"/>
  <outline>
    <contour>
      <point x="200" y="478"/>
      <point x="120" y="401"/>
      <point x="120" y="293" type="curve" smooth="yes"/>
      <point x="120" y="185"/>
      <point x="199" y="113"/>
      <point x="299" y="113" type="curve" smooth="yes"/>
      <point x="383" y="113"/>
      <point x="441" y="142"/>
      <point x="498" y="211" type="curve"/>
      <point x="478" y="309" type="line"/>
      <point x="423" y="223"/>
      <point x="373" y="187"/>
      <point x="309" y="187" type="curve" smooth="yes"/>
      <point x="245" y="187"/>
      <point x="204" y="229"/>
      <point x="204" y="293" type="curve" smooth="yes"/>
      <point x="204" y="358"/>
      <point x="250" y="404"/>
      <point x="318" y="404" type="curve"/>
      <point x="318" y="478" type="line"/>
    </contour>
    <contour>
      <point x="37" y="478" type="line"/>
      <point x="37" y="404" type="line"/>
      <point x="356" y="404" type="line"/>
      <point x="346" y="478" type="line"/>
    </contour>
    <contour>
      <point x="-20" y="658" type="line"/>
      <point x="-20" y="583" type="line"/>
      <point x="369" y="583" type="line"/>
      <point x="369" y="658" type="line"/>
    </contour>
    <contour>
      <point x="175" y="658" type="move" name="top"/>
    </contour>
    <contour>
      <point x="175" y="0" type="move" name="bottom"/>
    </contour>
  </outline>
</glyph>
<glyph name="c_r-deva" format="1">
  <advance width="349"/>
  <outline>
    <contour>
      <point x="200" y="478"/>
      <point x="120" y="405"/>
      <point x="120" y="303" type="curve" smooth="yes"/>
      <point x="120" y="201"/>
      <point x="199" y="133"/>
      <point x="299" y="133" type="curve" smooth="yes"/>
      <point x="383" y="133"/>
      <point x="441" y="162"/>
      <point x="498" y="231" type="curve"/>
      <point x="478" y="329" type="line"/>
      <point x="423" y="243"/>
      <point x="373" y="207"/>
      <point x="309" y="207" type="curve" smooth="yes"/>
      <point x="245" y="207"/>
      <point x="204" y="245"/>
      <point x="204" y="303" type="curve" smooth="yes"/>
      <point x="204" y="362"/>
      <point x="250" y="404"/>
      <point x="318" y="404" type="curve"/>
      <point x="318" y="478" type="line"/>
    </contour>
    <contour>
      <point x="146" y="26" type="line"/>
      <point x="198" y="-30" type="line"/>
      <point x="443" y="178" type="line"/>
      <point x="413" y="243" type="line"/>
    </contour>
    <contour>
      <point x="37" y="478" type="line"/>
      <point x="37" y="404" type="line"/>
      <point x="356" y="404" type="line"/>
      <point x="346" y="478" type="line"/>
    </contour>
    <contour>
      <point x="-30" y="658" type="line"/>
      <point x="-30" y="583" type="line"/>
      <point x="419" y="583" type="line"/>
      <point x="419" y="658" type="line"/>
    </contour>
    <contour>
      <point x="240" y="658" type="move" name="top"/>
    </contour>
    <contour>
      <point x="207" y="0" type="move" name="bottom"/>
    </contour>
  </outline>
</glyph>
<glyph name="candraBindu-deva.alt" format="1">
  <advance width="422"/>
  <outline>
    <component base="candraBindu-deva" xOffset="190"/>
    <contour>
      <point x="181" y="658" type="move" name="_top"/>
    </contour>
  </outline>
</glyph>
<glyph name="d_ba_uMatra-deva" format="1">
  <advance width="576"/>
  <outline>
    <component base="d_ba-deva"/>
    <component base="uMatra-deva" xOffset="280" yOffset="48"/>
    <contour>
      <point x="434" y="658" type="move" name="top"/>
    </contour>
    <contour>
      <point x="338" y="78" type="move" name="bottom"/>
    </contour>
  </outline>
</glyph>
<glyph name="d_bha_uMatra-deva" format="1">
  <advance width="681"/>
  <outline>
    <contour>
      <point x="434" y="-123" type="line"/>
      <point x="470" y="-150"/>
      <point x="512" y="-162"/>
      <point x="564" y="-162" type="curve" smooth="yes"/>
      <point x="655" y="-163"/>
      <point x="709" y="-115"/>
      <point x="709" y="-40" type="curve" smooth="yes"/>
      <point x="709" y="24"/>
      <point x="656" y="71"/>
      <point x="583" y="71" type="curve" smooth="yes"/>
      <point x="544" y="71"/>
      <point x="504" y="59"/>
      <point x="479" y="40" type="curve"/>
      <point x="531" y="-20" type="line"/>
      <point x="548" y="-6"/>
      <point x="570" y="2"/>
      <point x="591" y="2" type="curve" smooth="yes"/>
      <point x="620" y="2"/>
      <point x="632" y="-10"/>
      <point x="632" y="-34" type="curve" smooth="yes"/>
      <point x="632" y="-67"/>
      <point x="600" y="-95"/>
      <point x="555" y="-94" type="curve" smooth="yes"/>
      <point x="521" y="-95"/>
      <point x="492" y="-86"/>
      <point x="467" y="-68" type="curve"/>
    </contour>
    <component base="d_bha-deva"/>
    <contour>
      <point x="480" y="658" type="move" name="top"/>
    </contour>
    <contour>
      <point x="391" y="78" type="move" name="bottom"/>
    </contour>
  </outline>
</glyph>
<glyph name="d_da_uMatra-deva" format="1">
  <advance width="527"/>
  <outline>
    <contour>
      <point x="280" y="333" type="line" smooth="yes"/>
      <point x="191" y="333"/>
      <point x="88" y="295"/>
      <point x="88" y="185" type="curve" smooth="yes"/>
      <point x="88" y="73"/>
      <point x="190" y="30"/>
      <point x="302" y="30" type="curve" smooth="yes"/>
      <point x="393" y="30"/>
      <point x="485" y="54"/>
      <point x="485" y="111" type="curve" smooth="yes"/>
      <point x="485" y="155"/>
      <point x="435" y="201"/>
      <point x="375" y="201" type="curve" smooth="yes"/>
      <point x="334" y="201"/>
      <point x="319" y="174"/>
      <point x="319" y="149" type="curve" smooth="yes"/>
      <point x="319" y="124"/>
      <point x="325" y="96"/>
      <point x="333" y="79" type="curve"/>
      <point x="422" y="133" type="line"/>
      <point x="384" y="112"/>
      <point x="358" y="104"/>
      <point x="302" y="104" type="curve" smooth="yes"/>
      <point x="237" y="104"/>
      <point x="171" y="119"/>
      <point x="171" y="184" type="curve" smooth="yes"/>
      <point x="171" y="237"/>
      <point x="216" y="259"/>
      <point x="269" y="259" type="curve" smooth="yes"/>
      <point x="376" y="259" type="line"/>
      <point x="366" y="333" type="line"/>
    </contour>
    <contour>
      <point x="337" y="2"/>
      <point x="302" y="-16"/>
      <point x="264" y="-42" type="curve"/>
      <point x="301" y="-101" type="line"/>
      <point x="338" y="-79"/>
      <point x="352" y="-72"/>
      <point x="391" y="-72" type="curve" smooth="yes"/>
      <point x="416" y="-72"/>
      <point x="440" y="-84"/>
      <point x="440" y="-109" type="curve" smooth="yes"/>
      <point x="440" y="-144"/>
      <point x="388" y="-161"/>
      <point x="353" y="-161" type="curve" smooth="yes"/>
      <point x="277" y="-161"/>
      <point x="216" y="-135"/>
      <point x="152" y="-59" type="curve"/>
      <point x="95" y="-104" type="line"/>
      <point x="173" y="-203"/>
      <point x="261" y="-235"/>
      <point x="353" y="-235" type="curve" smooth="yes"/>
      <point x="443" y="-235"/>
      <point x="524" y="-192"/>
      <point x="524" y="-102" type="curve" smooth="yes"/>
      <point x="524" y="-27"/>
      <point x="460" y="2"/>
      <point x="385" y="2" type="curve" smooth="yes"/>
    </contour>
    <contour>
      <point x="333" y="79" type="line"/>
      <point x="415" y="-56" type="line"/>
      <point x="498" y="-35" type="line"/>
      <point x="401" y="121" type="line"/>
    </contour>
    <contour>
      <point x="193" y="498" type="line" smooth="yes"/>
      <point x="115" y="498"/>
      <point x="62" y="462"/>
      <point x="62" y="384" type="curve" smooth="yes"/>
      <point x="62" y="315"/>
      <point x="121" y="259"/>
      <point x="245" y="259" type="curve"/>
      <point x="300" y="333" type="line"/>
      <point x="217" y="333" type="line" smooth="yes"/>
      <point x="179" y="333"/>
      <point x="146" y="346"/>
      <point x="146" y="384" type="curve" smooth="yes"/>
      <point x="146" y="412"/>
      <point x="171" y="424"/>
      <point x="199" y="424" type="curve" smooth="yes"/>
      <point x="406" y="424" type="line"/>
      <point x="331" y="498" type="line"/>
    </contour>
    <contour>
      <point x="322" y="599" type="line"/>
      <point x="322" y="455" type="line"/>
      <point x="406" y="424" type="line"/>
      <point x="406" y="599" type="line"/>
    </contour>
    <contour>
      <point x="-20" y="658" type="line"/>
      <point x="-20" y="583" type="line"/>
      <point x="547" y="583" type="line"/>
      <point x="547" y="658" type="line"/>
    </contour>
    <contour>
      <point x="362" y="658" type="move" name="top"/>
    </contour>
  </outline>
</glyph>
<glyph name="d_ddh_r_ya-deva" format="1">
  <advance width="1141"/>
  <outline>
    <component base="d_dha-deva"/>
    <component base="ya.connect" xOffset="598"/>
    <contour>
      <point x="989" y="658" type="move" name="top"/>
    </contour>
    <contour>
      <point x="988" y="0" type="move" name="bottom"/>
    </contour>
  </outline>
</glyph>
<glyph name="d_dha-deva" format="1">
  <advance width="685"/>
  <outline>
    <contour>
      <point x="443" y="110"/>
      <point x="397" y="25"/>
      <point x="310" y="25" type="curve" smooth="yes"/>
      <point x="275" y="25"/>
      <point x="258" y="46"/>
      <point x="258" y="71" type="curve" smooth="yes"/>
      <point x="258" y="94"/>
      <point x="272" y="120"/>
      <point x="297" y="139" type="curve"/>
      <point x="233" y="182" type="line"/>
      <point x="193" y="152"/>
      <point x="173" y="115"/>
      <point x="173" y="79" type="curve" smooth="yes"/>
      <point x="173" y="14"/>
      <point x="234" y="-45"/>
      <point x="313" y="-45" type="curve" smooth="yes"/>
      <point x="416" y="-45"/>
      <point x="480" y="26"/>
      <point x="528" y="134" type="curve"/>
      <point x="464" y="186" type="line"/>
    </contour>
    <contour>
      <point x="67" y="294"/>
      <point x="30" y="251"/>
      <point x="30" y="186" type="curve" smooth="yes"/>
      <point x="30" y="111"/>
      <point x="100" y="69"/>
      <point x="170" y="69" type="curve" smooth="yes"/>
      <point x="190" y="69"/>
      <point x="207" y="72"/>
      <point x="224" y="78" type="curve"/>
      <point x="209" y="148" type="line"/>
      <point x="196" y="142"/>
      <point x="182" y="139"/>
      <point x="167" y="139" type="curve" smooth="yes"/>
      <point x="133" y="139"/>
      <point x="116" y="166"/>
      <point x="116" y="194" type="curve" smooth="yes"/>
      <point x="116" y="208"/>
      <point x="128" y="235"/>
      <point x="158" y="241" type="curve"/>
      <point x="131" y="296" type="line"/>
    </contour>
    <contour>
      <point x="-30" y="658" type="line"/>
      <point x="-30" y="583" type="line"/>
      <point x="715" y="583" type="line"/>
      <point x="715" y="658" type="line"/>
    </contour>
    <component base="da_small" xOffset="126"/>
    <contour>
      <point x="514" y="658" type="move" name="top"/>
    </contour>
    <contour>
      <point x="614" y="48" type="move" name="bottom"/>
    </contour>
  </outline>
</glyph>
<glyph name="d_dha_uMatra-deva" format="1">
  <advance width="685"/>
  <outline>
    <component base="d_dha-deva"/>
    <component base="uMatra-deva" xOffset="406" yOffset="48"/>
    <contour>
      <point x="514" y="658" type="move" name="top"/>
    </contour>
    <contour>
      <point x="614" y="48" type="move" name="bottom"/>
    </contour>
  </outline>
</glyph>
<glyph name="d_g_ra-deva" format="1">
  <advance width="570"/>
  <outline>
    <contour>
      <point x="284" y="-22" type="line"/>
      <point x="347" y="-65" type="line"/>
      <point x="438" y="70" type="line"/>
      <point x="393" y="133" type="line"/>
    </contour>
    <component base="d_ga-deva"/>
    <contour>
      <point x="392" y="658" type="move" name="top"/>
    </contour>
    <contour>
      <point x="483" y="46" type="move" name="bottom"/>
    </contour>
  </outline>
</glyph>
<glyph name="d_ga_uMatra-deva" format="1">
  <advance width="570"/>
  <outline>
    <component base="d_ga-deva"/>
    <component base="uMatra-deva" xOffset="277" yOffset="52"/>
    <contour>
      <point x="384" y="658" type="move" name="top"/>
    </contour>
    <contour>
      <point x="328" y="-93" type="move" name="bottom"/>
    </contour>
  </outline>
</glyph>
<glyph name="d_gha-deva" format="1">
  <advance width="645"/>
  <outline>
    <contour>
      <point x="157" y="152"/>
      <point x="137" y="115"/>
      <point x="137" y="79" type="curve" smooth="yes"/>
      <point x="137" y="14"/>
      <point x="198" y="-45"/>
      <point x="277" y="-45" type="curve" smooth="yes"/>
      <point x="380" y="-45"/>
      <point x="443" y="26"/>
      <point x="491" y="130" type="curve"/>
      <point x="428" y="186" type="line"/>
      <point x="407" y="110"/>
      <point x="361" y="25"/>
      <point x="274" y="25" type="curve" smooth="yes"/>
      <point x="239" y="25"/>
      <point x="222" y="46"/>
      <point x="222" y="71" type="curve" smooth="yes"/>
      <point x="222" y="94"/>
      <point x="236" y="120"/>
      <point x="261" y="139" type="curve"/>
      <point x="197" y="182" type="line"/>
    </contour>
    <contour>
      <point x="88" y="321"/>
      <point x="31" y="272"/>
      <point x="31" y="200" type="curve" smooth="yes"/>
      <point x="31" y="132"/>
      <point x="87" y="75"/>
      <point x="177" y="69" type="curve"/>
      <point x="189" y="132" type="line"/>
      <point x="142" y="139"/>
      <point x="116" y="172"/>
      <point x="116" y="202" type="curve" smooth="yes"/>
      <point x="116" y="230"/>
      <point x="139" y="259"/>
      <point x="190" y="271" type="curve"/>
      <point x="169" y="342" type="line"/>
    </contour>
    <contour>
      <point x="-30" y="658" type="line"/>
      <point x="-30" y="583" type="line"/>
      <point x="675" y="583" type="line"/>
      <point x="675" y="658" type="line"/>
    </contour>
    <component base="da_small" xOffset="86"/>
    <contour>
      <point x="487" y="658" type="move" name="top"/>
    </contour>
    <contour>
      <point x="584" y="52" type="move" name="bottom"/>
    </contour>
  </outline>
</glyph>
<glyph name="d_ma-deva" format="1">
  <advance width="718"/>
  <outline>
    <contour>
      <point x="-5" y="658" type="line"/>
      <point x="-5" y="583" type="line"/>
      <point x="562" y="583" type="line"/>
      <point x="562" y="658" type="line"/>
    </contour>
    <contour>
      <point x="279" y="599" type="line"/>
      <point x="279" y="456" type="line"/>
      <point x="363" y="424" type="line"/>
      <point x="363" y="599" type="line"/>
    </contour>
    <contour>
      <point x="173" y="498" type="line" smooth="yes"/>
      <point x="93" y="498"/>
      <point x="42" y="459"/>
      <point x="42" y="379" type="curve" smooth="yes"/>
      <point x="42" y="299"/>
      <point x="105" y="249"/>
      <point x="185" y="249" type="curve" smooth="yes"/>
      <point x="243" y="249" type="line" smooth="yes"/>
      <point x="273" y="249"/>
      <point x="288" y="234"/>
      <point x="288" y="204" type="curve" smooth="yes"/>
      <point x="288" y="118" type="line"/>
      <point x="373" y="118" type="line"/>
      <point x="373" y="218" type="line" smooth="yes"/>
      <point x="373" y="288"/>
      <point x="338" y="323"/>
      <point x="268" y="323" type="curve" smooth="yes"/>
      <point x="197" y="323" type="line" smooth="yes"/>
      <point x="147" y="323"/>
      <point x="126" y="339"/>
      <point x="126" y="379" type="curve" smooth="yes"/>
      <point x="126" y="409"/>
      <point x="149" y="424"/>
      <point x="179" y="424" type="curve" smooth="yes"/>
      <point x="363" y="424" type="line"/>
      <point x="288" y="498" type="line"/>
    </contour>
    <contour>
      <point x="523" y="6" type="line"/>
      <point x="523" y="-35" type="line"/>
      <point x="608" y="-35" type="line"/>
      <point x="608" y="6" type="line"/>
    </contour>
    <contour>
      <point x="288" y="164" type="line" smooth="yes"/>
      <point x="248" y="164"/>
      <point x="214" y="154"/>
      <point x="214" y="114" type="curve" smooth="yes"/>
      <point x="214" y="72"/>
      <point x="270" y="18"/>
      <point x="328" y="18" type="curve" smooth="yes"/>
      <point x="359" y="18"/>
      <point x="368" y="44"/>
      <point x="371" y="90" type="curve"/>
      <point x="558" y="90" type="line"/>
      <point x="558" y="164" type="line"/>
    </contour>
    <contour>
      <point x="523" y="606" type="line"/>
      <point x="523" y="0" type="line"/>
      <point x="608" y="0" type="line"/>
      <point x="608" y="606" type="line"/>
    </contour>
    <contour>
      <point x="395" y="658" type="line"/>
      <point x="395" y="583" type="line"/>
      <point x="737" y="583" type="line"/>
      <point x="737" y="658" type="line"/>
    </contour>
    <contour>
      <point x="606" y="658" type="move" name="imatra"/>
    </contour>
    <contour>
      <point x="566" y="-35" type="move" name="bottom"/>
    </contour>
    <contour>
      <point x="566" y="658" type="move" name="top"/>
    </contour>
  </outline>
</glyph>
<glyph name="d_na-deva" format="1">
  <advance width="547"/>
  <outline>
    <contour>
      <point x="282" y="209" type="line"/>
      <point x="121" y="72" type="line" smooth="yes"/>
      <point x="98" y="53"/>
      <point x="88" y="41"/>
      <point x="88" y="25" type="curve" smooth="yes"/>
      <point x="88" y="-6"/>
      <point x="139" y="-42"/>
      <point x="210" y="-42" type="curve" smooth="yes"/>
      <point x="262" y="-42"/>
      <point x="280" y="-27"/>
      <point x="280" y="-14" type="curve" smooth="yes"/>
      <point x="280" y="6"/>
      <point x="261" y="37"/>
      <point x="205" y="78" type="curve"/>
      <point x="149" y="30" type="line"/>
      <point x="201" y="-32" type="line"/>
      <point x="222" y="60" type="line"/>
      <point x="377" y="192" type="line"/>
    </contour>
    <contour>
      <point x="-5" y="658" type="line"/>
      <point x="-5" y="583" type="line"/>
      <point x="565" y="583" type="line"/>
      <point x="565" y="658" type="line"/>
    </contour>
    <component base="da_small" xOffset="-6"/>
    <contour>
      <point x="391" y="658" type="move" name="top"/>
    </contour>
    <contour>
      <point x="479" y="47" type="move" name="bottom"/>
    </contour>
  </outline>
</glyph>
<glyph name="d_r_ya-deva" format="1">
  <advance width="766"/>
  <outline>
    <contour>
      <point x="197" y="-75" type="line"/>
      <point x="247" y="-133" type="line"/>
      <point x="587" y="130" type="line"/>
      <point x="587" y="222" type="line"/>
    </contour>
    <component base="d_ya-deva"/>
    <contour>
      <point x="610" y="658" type="move" name="top"/>
    </contour>
    <contour>
      <point x="610" y="-35" type="move" name="bottom"/>
    </contour>
  </outline>
</glyph>
<glyph name="d_ra_uMatra-deva" format="1">
  <advance width="541"/>
  <outline>
    <contour>
      <point x="214" y="-114" type="line"/>
      <point x="275" y="-170"/>
      <point x="348" y="-195"/>
      <point x="417" y="-195" type="curve" smooth="yes"/>
      <point x="517" y="-195"/>
      <point x="601" y="-149"/>
      <point x="601" y="-49" type="curve" smooth="yes"/>
      <point x="601" y="28"/>
      <point x="529" y="72"/>
      <point x="452" y="72" type="curve" smooth="yes"/>
      <point x="414" y="72"/>
      <point x="369" y="54"/>
      <point x="331" y="28" type="curve"/>
      <point x="368" y="-31" type="line"/>
      <point x="405" y="-9"/>
      <point x="421" y="-2"/>
      <point x="450" y="-2" type="curve" smooth="yes"/>
      <point x="497" y="-2"/>
      <point x="517" y="-26"/>
      <point x="517" y="-56" type="curve" smooth="yes"/>
      <point x="517" y="-104"/>
      <point x="470" y="-121"/>
      <point x="417" y="-121" type="curve" smooth="yes"/>
      <point x="366" y="-121"/>
      <point x="315" y="-103"/>
      <point x="272" y="-67" type="curve"/>
    </contour>
    <component base="d_ra-deva"/>
    <contour>
      <point x="380" y="658" type="move" name="top"/>
    </contour>
  </outline>
</glyph>
<glyph name="d_v_ya-deva" format="1">
  <advance width="1060"/>
  <outline>
    <component base="d_va-deva" xOffset="10"/>
    <component base="ya.connect" xOffset="517"/>
    <contour>
      <point x="908" y="657" type="move" name="top"/>
    </contour>
    <contour>
      <point x="907" y="0" type="move" name="bottom"/>
    </contour>
  </outline>
</glyph>
<glyph name="d_va-deva" format="1">
  <advance width="571"/>
  <outline>
    <contour>
      <point x="-30" y="658" type="line"/>
      <point x="-30" y="583" type="line"/>
      <point x="601" y="583" type="line"/>
      <point x="601" y="658" type="line"/>
    </contour>
    <contour>
      <point x="328" y="110"/>
      <point x="285" y="25"/>
      <point x="204" y="25" type="curve" smooth="yes"/>
      <point x="154" y="25"/>
      <point x="130" y="56"/>
      <point x="130" y="92" type="curve" smooth="yes"/>
      <point x="130" y="134"/>
      <point x="161" y="183"/>
      <point x="223" y="204" type="curve"/>
      <point x="173" y="259" type="line"/>
      <point x="92" y="222"/>
      <point x="48" y="165"/>
      <point x="48" y="96" type="curve" smooth="yes"/>
      <point x="48" y="17"/>
      <point x="117" y="-45"/>
      <point x="207" y="-45" type="curve" smooth="yes"/>
      <point x="305" y="-45"/>
      <point x="365" y="26"/>
      <point x="411" y="130" type="curve"/>
      <point x="348" y="186" type="line"/>
    </contour>
    <component base="da_small" xOffset="7"/>
    <contour>
      <point x="396" y="658" type="move" name="top"/>
    </contour>
    <contour>
      <point x="505" y="48" type="move" name="bottom"/>
    </contour>
  </outline>
</glyph>
<glyph name="d_va_uMatra-deva" format="1">
  <advance width="571"/>
  <outline>
    <component base="d_va-deva"/>
    <component base="uMatra-deva" xOffset="297" yOffset="48"/>
    <contour>
      <point x="403" y="658" type="move" name="top"/>
    </contour>
    <contour>
      <point x="497" y="0" type="move" name="bottom"/>
    </contour>
  </outline>
</glyph>
<glyph name="d_ya-deva" format="1">
  <advance width="766"/>
  <outline>
    <contour>
      <point x="198" y="498" type="line" smooth="yes"/>
      <point x="118" y="498"/>
      <point x="67" y="459"/>
      <point x="67" y="379" type="curve" smooth="yes"/>
      <point x="67" y="308"/>
      <point x="124" y="249"/>
      <point x="250" y="249" type="curve"/>
      <point x="305" y="323" type="line"/>
      <point x="222" y="323" type="line" smooth="yes"/>
      <point x="182" y="323"/>
      <point x="151" y="339"/>
      <point x="151" y="379" type="curve" smooth="yes"/>
      <point x="151" y="409"/>
      <point x="174" y="424"/>
      <point x="204" y="424" type="curve" smooth="yes"/>
      <point x="411" y="424" type="line"/>
      <point x="336" y="498" type="line"/>
    </contour>
    <contour>
      <point x="-5" y="658" type="line"/>
      <point x="-5" y="583" type="line"/>
      <point x="725" y="583" type="line"/>
      <point x="725" y="658" type="line"/>
    </contour>
    <contour>
      <point x="327" y="599" type="line"/>
      <point x="327" y="456" type="line"/>
      <point x="411" y="424" type="line"/>
      <point x="411" y="599" type="line"/>
    </contour>
    <contour>
      <point x="285" y="323" type="line" smooth="yes"/>
      <point x="175" y="323"/>
      <point x="93" y="277"/>
      <point x="93" y="167" type="curve" smooth="yes"/>
      <point x="93" y="49"/>
      <point x="189" y="0"/>
      <point x="307" y="0" type="curve" smooth="yes"/>
      <point x="442" y="0"/>
      <point x="537" y="78"/>
      <point x="587" y="158" type="curve"/>
      <point x="571" y="265" type="line"/>
      <point x="526" y="175"/>
      <point x="438" y="74"/>
      <point x="307" y="74" type="curve" smooth="yes"/>
      <point x="237" y="74"/>
      <point x="176" y="96"/>
      <point x="176" y="166" type="curve" smooth="yes"/>
      <point x="176" y="221"/>
      <point x="219" y="249"/>
      <point x="274" y="249" type="curve" smooth="yes"/>
      <point x="381" y="249" type="line"/>
      <point x="371" y="323" type="line"/>
    </contour>
    <contour>
      <point x="571" y="10" type="line"/>
      <point x="571" y="-35" type="line"/>
      <point x="656" y="-35" type="line"/>
      <point x="656" y="10" type="line"/>
    </contour>
    <contour>
      <point x="571" y="606" type="line"/>
      <point x="571" y="0" type="line"/>
      <point x="656" y="0" type="line"/>
      <point x="656" y="606" type="line"/>
    </contour>
    <contour>
      <point x="443" y="658" type="line"/>
      <point x="443" y="583" type="line"/>
      <point x="785" y="583" type="line"/>
      <point x="785" y="658" type="line"/>
    </contour>
    <contour>
      <point x="654" y="658" type="move" name="imatra"/>
    </contour>
    <contour>
      <point x="613" y="-35" type="move" name="bottom"/>
    </contour>
    <contour>
      <point x="613" y="658" type="move" name="top"/>
    </contour>
  </outline>
</glyph>
<glyph name="da_uMatra-deva" format="1">
  <advance width="543"/>
  <outline>
    <contour>
      <point x="474" y="-235"/>
      <point x="556" y="-188"/>
      <point x="556" y="-89" type="curve" smooth="yes"/>
      <point x="556" y="-12"/>
      <point x="484" y="32"/>
      <point x="407" y="32" type="curve" smooth="yes"/>
      <point x="369" y="32"/>
      <point x="324" y="14"/>
      <point x="286" y="-12" type="curve"/>
      <point x="323" y="-71" type="line"/>
      <point x="360" y="-49"/>
      <point x="376" y="-42"/>
      <point x="405" y="-42" type="curve" smooth="yes"/>
      <point x="452" y="-42"/>
      <point x="472" y="-66"/>
      <point x="472" y="-96" type="curve" smooth="yes"/>
      <point x="472" y="-145"/>
      <point x="424" y="-161"/>
      <point x="375" y="-161" type="curve" smooth="yes"/>
      <point x="299" y="-161"/>
      <point x="238" y="-125"/>
      <point x="184" y="-49" type="curve"/>
      <point x="127" y="-94" type="line"/>
      <point x="195" y="-193"/>
      <point x="283" y="-235"/>
      <point x="375" y="-235" type="curve" smooth="yes"/>
    </contour>
    <contour>
      <point x="337" y="594" type="line"/>
      <point x="337" y="475" type="line"/>
      <point x="261" y="475" type="line" smooth="yes"/>
      <point x="134" y="475"/>
      <point x="53" y="417"/>
      <point x="53" y="290" type="curve" smooth="yes"/>
      <point x="53" y="160"/>
      <point x="157" y="78"/>
      <point x="287" y="78" type="curve" smooth="yes"/>
      <point x="388" y="78"/>
      <point x="470" y="105"/>
      <point x="470" y="159" type="curve" smooth="yes"/>
      <point x="470" y="203"/>
      <point x="420" y="249"/>
      <point x="360" y="249" type="curve" smooth="yes"/>
      <point x="319" y="249"/>
      <point x="304" y="222"/>
      <point x="304" y="197" type="curve" smooth="yes"/>
      <point x="304" y="144"/>
      <point x="327" y="113"/>
      <point x="336" y="96" type="curve" smooth="yes"/>
      <point x="372" y="33"/>
      <point x="402" y="-4"/>
      <point x="441" y="-44" type="curve"/>
      <point x="511" y="0" type="line"/>
      <point x="461" y="45"/>
      <point x="418" y="96"/>
      <point x="391" y="153" type="curve"/>
      <point x="407" y="181" type="line"/>
      <point x="369" y="160"/>
      <point x="353" y="152"/>
      <point x="297" y="152" type="curve" smooth="yes"/>
      <point x="207" y="152"/>
      <point x="137" y="199"/>
      <point x="137" y="289" type="curve" smooth="yes"/>
      <point x="137" y="361"/>
      <point x="187" y="401"/>
      <point x="259" y="401" type="curve" smooth="yes"/>
      <point x="421" y="401" type="line"/>
      <point x="421" y="594" type="line"/>
    </contour>
    <contour>
      <point x="-20" y="658" type="line"/>
      <point x="-20" y="583" type="line"/>
      <point x="563" y="583" type="line"/>
      <point x="563" y="658" type="line"/>
    </contour>
    <contour>
      <point x="384" y="658" type="move" name="top"/>
    </contour>
    <contour>
      <point x="292" y="0" type="move" name="bottom"/>
    </contour>
  </outline>
</glyph>
<glyph name="dd_compo" format="1">
  <advance width="574"/>
  <outline>
    <contour>
      <point x="221" y="528" type="line" smooth="yes"/>
      <point x="160" y="528"/>
      <point x="120" y="494"/>
      <point x="120" y="440" type="curve" smooth="yes"/>
      <point x="120" y="372"/>
      <point x="174" y="310"/>
      <point x="246" y="310" type="curve" smooth="yes"/>
      <point x="286" y="310"/>
      <point x="377" y="331"/>
      <point x="407" y="331" type="curve" smooth="yes"/>
      <point x="432" y="331"/>
      <point x="440" y="321"/>
      <point x="440" y="301" type="curve" smooth="yes"/>
      <point x="440" y="269"/>
      <point x="397" y="243"/>
      <point x="299" y="243" type="curve" smooth="yes"/>
      <point x="216" y="243"/>
      <point x="149" y="276"/>
      <point x="83" y="356" type="curve"/>
      <point x="24" y="322" type="line"/>
      <point x="87" y="222"/>
      <point x="189" y="169"/>
      <point x="305" y="169" type="curve" smooth="yes"/>
      <point x="429" y="169"/>
      <point x="524" y="222"/>
      <point x="524" y="312" type="curve" smooth="yes"/>
      <point x="524" y="372"/>
      <point x="498" y="406"/>
      <point x="438" y="406" type="curve" smooth="yes"/>
      <point x="398" y="406"/>
      <point x="292" y="385"/>
      <point x="262" y="385" type="curve" smooth="yes"/>
      <point x="221" y="385"/>
      <point x="204" y="400"/>
      <point x="204" y="428" type="curve" smooth="yes"/>
      <point x="204" y="445"/>
      <point x="217" y="454"/>
      <point x="234" y="454" type="curve" smooth="yes"/>
      <point x="464" y="454" type="line"/>
      <point x="387" y="528" type="line"/>
    </contour>
    <contour>
      <point x="380" y="630" type="line"/>
      <point x="380" y="493" type="line"/>
      <point x="464" y="454" type="line"/>
      <point x="464" y="630" type="line"/>
    </contour>
  </outline>
</glyph>
<glyph name="dd_dda-deva" format="1">
  <advance width="587"/>
  <outline>
    <contour>
      <point x="-20" y="658" type="line"/>
      <point x="-20" y="583" type="line"/>
      <point x="607" y="583" type="line"/>
      <point x="607" y="658" type="line"/>
    </contour>
    <contour>
      <point x="222" y="124" type="line" smooth="yes"/>
      <point x="161" y="124"/>
      <point x="121" y="90"/>
      <point x="121" y="36" type="curve" smooth="yes"/>
      <point x="121" y="-32"/>
      <point x="175" y="-94"/>
      <point x="247" y="-94" type="curve" smooth="yes"/>
      <point x="287" y="-94"/>
      <point x="378" y="-73"/>
      <point x="408" y="-73" type="curve" smooth="yes"/>
      <point x="433" y="-73"/>
      <point x="441" y="-83"/>
      <point x="441" y="-103" type="curve" smooth="yes"/>
      <point x="441" y="-135"/>
      <point x="398" y="-161"/>
      <point x="300" y="-161" type="curve" smooth="yes"/>
      <point x="217" y="-161"/>
      <point x="150" y="-128"/>
      <point x="84" y="-48" type="curve"/>
      <point x="25" y="-82" type="line"/>
      <point x="88" y="-182"/>
      <point x="190" y="-235"/>
      <point x="306" y="-235" type="curve" smooth="yes"/>
      <point x="430" y="-235"/>
      <point x="525" y="-182"/>
      <point x="525" y="-92" type="curve" smooth="yes"/>
      <point x="525" y="-32"/>
      <point x="499" y="2"/>
      <point x="439" y="2" type="curve" smooth="yes"/>
      <point x="399" y="2"/>
      <point x="293" y="-19"/>
      <point x="263" y="-19" type="curve" smooth="yes"/>
      <point x="222" y="-19"/>
      <point x="205" y="-4"/>
      <point x="205" y="24" type="curve" smooth="yes"/>
      <point x="205" y="41"/>
      <point x="218" y="50"/>
      <point x="235" y="50" type="curve" smooth="yes"/>
      <point x="465" y="50" type="line"/>
      <point x="388" y="124" type="line"/>
    </contour>
    <contour>
      <point x="381" y="226" type="line"/>
      <point x="381" y="89" type="line"/>
      <point x="465" y="50" type="line"/>
      <point x="465" y="226" type="line"/>
    </contour>
    <contour>
      <point x="222" y="522" type="line" smooth="yes"/>
      <point x="161" y="522"/>
      <point x="121" y="488"/>
      <point x="121" y="434" type="curve" smooth="yes"/>
      <point x="121" y="366"/>
      <point x="175" y="304"/>
      <point x="247" y="304" type="curve" smooth="yes"/>
      <point x="287" y="304"/>
      <point x="378" y="325"/>
      <point x="408" y="325" type="curve" smooth="yes"/>
      <point x="433" y="325"/>
      <point x="441" y="315"/>
      <point x="441" y="295" type="curve" smooth="yes"/>
      <point x="441" y="263"/>
      <point x="398" y="237"/>
      <point x="300" y="237" type="curve" smooth="yes"/>
      <point x="217" y="237"/>
      <point x="150" y="270"/>
      <point x="84" y="350" type="curve"/>
      <point x="25" y="316" type="line"/>
      <point x="88" y="216"/>
      <point x="190" y="163"/>
      <point x="306" y="163" type="curve" smooth="yes"/>
      <point x="430" y="163"/>
      <point x="525" y="216"/>
      <point x="525" y="306" type="curve" smooth="yes"/>
      <point x="525" y="366"/>
      <point x="499" y="400"/>
      <point x="439" y="400" type="curve" smooth="yes"/>
      <point x="399" y="400"/>
      <point x="293" y="379"/>
      <point x="263" y="379" type="curve" smooth="yes"/>
      <point x="222" y="379"/>
      <point x="205" y="394"/>
      <point x="205" y="422" type="curve" smooth="yes"/>
      <point x="205" y="439"/>
      <point x="218" y="448"/>
      <point x="235" y="448" type="curve" smooth="yes"/>
      <point x="465" y="448" type="line"/>
      <point x="388" y="522" type="line"/>
    </contour>
    <contour>
      <point x="381" y="624" type="line"/>
      <point x="381" y="487" type="line"/>
      <point x="465" y="448" type="line"/>
      <point x="465" y="624" type="line"/>
    </contour>
    <contour>
      <point x="601" y="367" type="move" name="nukta"/>
    </contour>
    <contour>
      <point x="345" y="-235" type="move" name="bottom"/>
    </contour>
    <contour>
      <point x="364" y="658" type="move" name="top"/>
    </contour>
  </outline>
</glyph>
<glyph name="dd_na-deva" format="1">
  <advance width="587"/>
  <outline>
    <contour>
      <point x="430" y="163"/>
      <point x="525" y="216"/>
      <point x="525" y="306" type="curve" smooth="yes"/>
      <point x="525" y="366"/>
      <point x="499" y="400"/>
      <point x="439" y="400" type="curve" smooth="yes"/>
      <point x="399" y="400"/>
      <point x="293" y="379"/>
      <point x="263" y="379" type="curve" smooth="yes"/>
      <point x="222" y="379"/>
      <point x="205" y="394"/>
      <point x="205" y="422" type="curve" smooth="yes"/>
      <point x="205" y="439"/>
      <point x="218" y="448"/>
      <point x="235" y="448" type="curve" smooth="yes"/>
      <point x="465" y="448" type="line"/>
      <point x="388" y="522" type="line"/>
      <point x="222" y="522" type="line" smooth="yes"/>
      <point x="161" y="522"/>
      <point x="121" y="488"/>
      <point x="121" y="434" type="curve" smooth="yes"/>
      <point x="121" y="366"/>
      <point x="175" y="304"/>
      <point x="247" y="304" type="curve" smooth="yes"/>
      <point x="287" y="304"/>
      <point x="378" y="325"/>
      <point x="408" y="325" type="curve" smooth="yes"/>
      <point x="433" y="325"/>
      <point x="441" y="315"/>
      <point x="441" y="295" type="curve" smooth="yes"/>
      <point x="441" y="263"/>
      <point x="398" y="237"/>
      <point x="300" y="237" type="curve" smooth="yes"/>
      <point x="217" y="237"/>
      <point x="150" y="270"/>
      <point x="84" y="350" type="curve"/>
      <point x="25" y="316" type="line"/>
      <point x="88" y="216"/>
      <point x="190" y="163"/>
      <point x="306" y="163" type="curve" smooth="yes"/>
    </contour>
    <contour>
      <point x="233" y="-115"/>
      <point x="238" y="-78"/>
      <point x="243" y="2" type="curve"/>
      <point x="156" y="2" type="line"/>
      <point x="156" y="-80" type="line"/>
      <point x="232" y="-23" type="line"/>
      <point x="430" y="-23" type="line"/>
      <point x="430" y="51" type="line"/>
      <point x="162" y="51" type="line" smooth="yes"/>
      <point x="122" y="51"/>
      <point x="98" y="46"/>
      <point x="98" y="6" type="curve" smooth="yes"/>
      <point x="98" y="-36"/>
      <point x="140" y="-115"/>
      <point x="198" y="-115" type="curve"/>
    </contour>
    <contour>
      <point x="460" y="-212" type="line"/>
      <point x="460" y="239" type="line"/>
      <point x="386" y="239" type="line"/>
      <point x="386" y="-212" type="line"/>
    </contour>
    <contour>
      <point x="607" y="583" type="line"/>
      <point x="607" y="658" type="line"/>
      <point x="-20" y="658" type="line"/>
      <point x="-20" y="583" type="line"/>
    </contour>
    <contour>
      <point x="465" y="624" type="line"/>
      <point x="381" y="624" type="line"/>
      <point x="381" y="487" type="line"/>
      <point x="465" y="448" type="line"/>
    </contour>
    <contour>
      <point x="428" y="658" type="move" name="top"/>
    </contour>
    <contour>
      <point x="424" y="-212" type="move" name="bottom"/>
    </contour>
  </outline>
</glyph>
<glyph name="ddh-deva" format="1">
  <advance width="568"/>
  <outline>
    <component base="ddha-deva"/>
    <component base="halant-deva" xOffset="224"/>
    <contour>
      <point x="400" y="658" type="move" name="top"/>
    </contour>
    <contour>
      <point x="284" y="0" type="move" name="bottom"/>
    </contour>
  </outline>
</glyph>
<glyph name="ddh_na-deva" format="1">
  <advance width="573"/>
  <outline>
    <contour>
      <point x="451" y="184"/>
      <point x="534" y="230"/>
      <point x="534" y="303" type="curve" smooth="yes"/>
      <point x="534" y="341"/>
      <point x="503" y="396"/>
      <point x="416" y="396" type="curve" smooth="yes"/>
      <point x="330" y="396"/>
      <point x="290" y="356"/>
      <point x="290" y="306" type="curve" smooth="yes"/>
      <point x="290" y="276"/>
      <point x="305" y="242"/>
      <point x="333" y="211" type="curve"/>
      <point x="411" y="224" type="line"/>
      <point x="387" y="241"/>
      <point x="372" y="269"/>
      <point x="372" y="292" type="curve" smooth="yes"/>
      <point x="372" y="314"/>
      <point x="385" y="331"/>
      <point x="415" y="331" type="curve" smooth="yes"/>
      <point x="439" y="331"/>
      <point x="450" y="319"/>
      <point x="450" y="305" type="curve" smooth="yes"/>
      <point x="450" y="270"/>
      <point x="409" y="258"/>
      <point x="305" y="258" type="curve" smooth="yes"/>
      <point x="180" y="258"/>
      <point x="139" y="314"/>
      <point x="139" y="368" type="curve" smooth="yes"/>
      <point x="139" y="424"/>
      <point x="179" y="448"/>
      <point x="260" y="448" type="curve" smooth="yes"/>
      <point x="441" y="448" type="line"/>
      <point x="441" y="634" type="line"/>
      <point x="357" y="634" type="line"/>
      <point x="357" y="522" type="line"/>
      <point x="255" y="522" type="line" smooth="yes"/>
      <point x="139" y="522"/>
      <point x="55" y="481"/>
      <point x="55" y="370" type="curve" smooth="yes"/>
      <point x="55" y="220"/>
      <point x="209" y="184"/>
      <point x="323" y="184" type="curve" smooth="yes"/>
    </contour>
    <contour>
      <point x="209" y="-115"/>
      <point x="214" y="-78"/>
      <point x="219" y="2" type="curve"/>
      <point x="132" y="2" type="line"/>
      <point x="132" y="-80" type="line"/>
      <point x="208" y="-23" type="line"/>
      <point x="406" y="-23" type="line"/>
      <point x="406" y="51" type="line"/>
      <point x="138" y="51" type="line" smooth="yes"/>
      <point x="98" y="51"/>
      <point x="74" y="46"/>
      <point x="74" y="6" type="curve" smooth="yes"/>
      <point x="74" y="-36"/>
      <point x="116" y="-115"/>
      <point x="174" y="-115" type="curve"/>
    </contour>
    <contour>
      <point x="436" y="-212" type="line"/>
      <point x="436" y="239" type="line"/>
      <point x="362" y="239" type="line"/>
      <point x="362" y="-212" type="line"/>
    </contour>
    <contour>
      <point x="593" y="583" type="line"/>
      <point x="593" y="658" type="line"/>
      <point x="-20" y="658" type="line"/>
      <point x="-20" y="583" type="line"/>
    </contour>
    <contour>
      <point x="396" y="658" type="move" name="top"/>
    </contour>
    <contour>
      <point x="398" y="-212" type="move" name="bottom"/>
    </contour>
  </outline>
</glyph>
<glyph name="dh-deva" format="1">
  <advance width="418"/>
  <outline>
    <contour>
      <point x="151" y="407"/>
      <point x="74" y="345"/>
      <point x="74" y="239" type="curve" smooth="yes"/>
      <point x="74" y="138"/>
      <point x="158" y="73"/>
      <point x="288" y="73" type="curve" smooth="yes"/>
      <point x="394" y="73"/>
      <point x="497" y="118"/>
      <point x="553" y="189" type="curve"/>
      <point x="534" y="289" type="line"/>
      <point x="496" y="210"/>
      <point x="385" y="149"/>
      <point x="280" y="149" type="curve" smooth="yes"/>
      <point x="204" y="149"/>
      <point x="158" y="183"/>
      <point x="158" y="239" type="curve" smooth="yes"/>
      <point x="158" y="297"/>
      <point x="205" y="332"/>
      <point x="282" y="332" type="curve" smooth="yes"/>
      <point x="309" y="332"/>
      <point x="324" y="331"/>
      <point x="347" y="327" type="curve"/>
      <point x="332" y="403" type="line"/>
      <point x="318" y="406"/>
      <point x="305" y="407"/>
      <point x="282" y="407" type="curve" smooth="yes"/>
    </contour>
    <contour>
      <point x="141" y="659"/>
      <point x="76" y="605"/>
      <point x="76" y="524" type="curve" smooth="yes"/>
      <point x="76" y="450"/>
      <point x="128" y="380"/>
      <point x="209" y="345" type="curve"/>
      <point x="268" y="389" type="line"/>
      <point x="207" y="413"/>
      <point x="165" y="465"/>
      <point x="165" y="516" type="curve" smooth="yes"/>
      <point x="165" y="557"/>
      <point x="193" y="583"/>
      <point x="238" y="583" type="curve" smooth="yes"/>
      <point x="282" y="583"/>
      <point x="308" y="560"/>
      <point x="308" y="521" type="curve" smooth="yes"/>
      <point x="308" y="506"/>
      <point x="302" y="487"/>
      <point x="290" y="470" type="curve"/>
      <point x="361" y="449" type="line"/>
      <point x="376" y="467"/>
      <point x="385" y="492"/>
      <point x="385" y="518" type="curve" smooth="yes"/>
      <point x="385" y="599"/>
      <point x="323" y="659"/>
      <point x="239" y="659" type="curve" smooth="yes"/>
    </contour>
    <contour>
      <point x="219" y="658" type="move" name="top"/>
    </contour>
    <contour>
      <point x="260" y="0" type="move" name="bottom"/>
    </contour>
  </outline>
</glyph>
<glyph name="eMatra_anusvara-deva" format="1">
  <advance width="270"/>
  <note>
	dMatraEAnusvara
  </note>
  <outline>
    <component base="anusvara-deva" xOffset="102" yOffset="71" xScale="0.956" yScale="0.956"/>
    <component base="eMatra-deva" xOffset="-138"/>
    <contour>
      <point x="135" y="658" type="move" name="_top"/>
    </contour>
  </outline>
</glyph>
<glyph name="eMatra_reph-deva" format="1">
  <advance width="270"/>
  <note>
	dMatraEReph
  </note>
  <outline>
    <contour>
      <point x="120" y="923"/>
      <point x="49" y="879"/>
      <point x="49" y="789" type="curve" smooth="yes"/>
      <point x="49" y="739"/>
      <point x="71" y="692"/>
      <point x="113" y="648" type="curve"/>
      <point x="187" y="648" type="line"/>
      <point x="145" y="699"/>
      <point x="129" y="736"/>
      <point x="129" y="780" type="curve" smooth="yes"/>
      <point x="129" y="833"/>
      <point x="159" y="852"/>
      <point x="199" y="852" type="curve" smooth="yes"/>
      <point x="222" y="852"/>
      <point x="247" y="845"/>
      <point x="272" y="836" type="curve"/>
      <point x="289" y="902" type="line"/>
      <point x="259" y="916"/>
      <point x="227" y="923"/>
      <point x="197" y="923" type="curve" smooth="yes"/>
    </contour>
    <component base="eMatra-deva" xOffset="-137"/>
    <contour>
      <point x="137" y="658" type="move" name="_top"/>
    </contour>
  </outline>
</glyph>
<glyph name="g-deva" format="1">
  <advance width="282"/>
  <outline>
    <contour>
      <point x="195" y="331" type="curve"/>
      <point x="195" y="609" type="line"/>
      <point x="110" y="609" type="line"/>
      <point x="110" y="361" type="line"/>
      <point x="56" y="361"/>
      <point x="30" y="356"/>
      <point x="30" y="316" type="curve" smooth="yes"/>
      <point x="30" y="274"/>
      <point x="89" y="175"/>
      <point x="144" y="175" type="curve" smooth="yes"/>
      <point x="183" y="175"/>
      <point x="195" y="220"/>
    </contour>
    <contour>
      <point x="-20" y="583" type="line"/>
      <point x="302" y="583" type="line"/>
      <point x="302" y="658" type="line"/>
      <point x="-20" y="658" type="line"/>
    </contour>
    <contour>
      <point x="137" y="92" type="move" name="nukta"/>
    </contour>
    <contour>
      <point x="141" y="0" type="move" name="bottom"/>
    </contour>
    <contour>
      <point x="153" y="658" type="move" name="top"/>
    </contour>
  </outline>
</glyph>
<glyph name="g_ra-deva" format="1">
  <advance width="588"/>
  <outline>
    <contour>
      <point x="98" y="23" type="line"/>
      <point x="148" y="-35" type="line"/>
      <point x="429" y="184" type="line"/>
      <point x="429" y="276" type="line"/>
    </contour>
    <component base="ga-deva"/>
    <contour>
      <point x="435" y="658" type="move" name="top"/>
    </contour>
    <contour>
      <point x="435" y="0" type="move" name="bottom"/>
    </contour>
  </outline>
</glyph>
<glyph name="gh-deva" format="1">
  <advance width="348"/>
  <outline>
    <contour>
      <point x="149" y="407"/>
      <point x="79" y="345"/>
      <point x="79" y="239" type="curve" smooth="yes"/>
      <point x="79" y="135"/>
      <point x="153" y="73"/>
      <point x="280" y="73" type="curve" smooth="yes"/>
      <point x="354" y="73"/>
      <point x="423" y="105"/>
      <point x="488" y="164" type="curve"/>
      <point x="456" y="246" type="line"/>
      <point x="408" y="182"/>
      <point x="336" y="148"/>
      <point x="278" y="148" type="curve" smooth="yes"/>
      <point x="205" y="148"/>
      <point x="163" y="182"/>
      <point x="163" y="239" type="curve" smooth="yes"/>
      <point x="163" y="297"/>
      <point x="202" y="332"/>
      <point x="267" y="332" type="curve" smooth="yes"/>
      <point x="287" y="332"/>
      <point x="301" y="331"/>
      <point x="322" y="327" type="curve"/>
      <point x="317" y="403" type="line"/>
      <point x="302" y="406"/>
      <point x="288" y="407"/>
      <point x="267" y="407" type="curve" smooth="yes"/>
    </contour>
    <contour>
      <point x="110" y="578"/>
      <point x="79" y="542"/>
      <point x="79" y="480" type="curve" smooth="yes"/>
      <point x="79" y="423"/>
      <point x="109" y="380"/>
      <point x="170" y="345" type="curve"/>
      <point x="229" y="389" type="line"/>
      <point x="188" y="410"/>
      <point x="163" y="444"/>
      <point x="163" y="485" type="curve" smooth="yes"/>
      <point x="163" y="523"/>
      <point x="178" y="559"/>
      <point x="235" y="583" type="curve"/>
      <point x="144" y="598" type="line"/>
    </contour>
    <contour>
      <point x="-8" y="658" type="line"/>
      <point x="-8" y="583" type="line"/>
      <point x="459" y="583" type="line"/>
      <point x="459" y="658" type="line"/>
    </contour>
    <contour>
      <point x="175" y="658" type="move" name="top"/>
    </contour>
    <contour>
      <point x="174" y="0" type="move" name="bottom"/>
    </contour>
  </outline>
</glyph>
<glyph name="ghh-deva" format="1">
  <advance width="282"/>
  <outline>
    <component base="g-deva"/>
    <component base="nukta-deva" xOffset="67" yOffset="195"/>
    <contour>
      <point x="151" y="658" type="move" name="top"/>
    </contour>
    <contour>
      <point x="152" y="0" type="move" name="bottom"/>
    </contour>
  </outline>
</glyph>
<glyph name="h_ma-deva" format="1">
  <advance width="779"/>
  <outline>
    <contour>
      <point x="175" y="309"/>
      <point x="94" y="238"/>
      <point x="94" y="131" type="curve" smooth="yes"/>
      <point x="94" y="8"/>
      <point x="185" y="-70"/>
      <point x="361" y="-93" type="curve"/>
      <point x="374" y="-19" type="line"/>
      <point x="245" y="-1"/>
      <point x="179" y="50"/>
      <point x="179" y="131" type="curve" smooth="yes"/>
      <point x="179" y="194"/>
      <point x="226" y="235"/>
      <point x="297" y="235" type="curve" smooth="yes"/>
      <point x="355" y="235"/>
      <point x="394" y="211"/>
      <point x="394" y="175" type="curve"/>
      <point x="394" y="148" type="line"/>
      <point x="479" y="147" type="line"/>
      <point x="479" y="159" type="line"/>
      <point x="479" y="249"/>
      <point x="406" y="309"/>
      <point x="297" y="309" type="curve" smooth="yes"/>
    </contour>
    <contour>
      <point x="360" y="176"/>
      <point x="337" y="170"/>
      <point x="337" y="136" type="curve" smooth="yes"/>
      <point x="337" y="96"/>
      <point x="396" y="35"/>
      <point x="436" y="35" type="curve" smooth="yes"/>
      <point x="468" y="35"/>
      <point x="479" y="61"/>
      <point x="479" y="171" type="curve"/>
      <point x="458" y="97" type="line"/>
      <point x="627" y="97" type="line"/>
      <point x="627" y="171" type="line"/>
      <point x="470" y="171" type="line"/>
      <point x="407" y="176" type="line"/>
    </contour>
    <contour>
      <point x="175" y="478" type="line" smooth="yes"/>
      <point x="109" y="478"/>
      <point x="70" y="444"/>
      <point x="70" y="386" type="curve" smooth="yes"/>
      <point x="70" y="322"/>
      <point x="104" y="258"/>
      <point x="166" y="207" type="curve"/>
      <point x="222" y="258" type="line"/>
      <point x="178" y="288"/>
      <point x="154" y="329"/>
      <point x="154" y="369" type="curve" smooth="yes"/>
      <point x="154" y="391"/>
      <point x="166" y="403"/>
      <point x="190" y="403" type="curve" smooth="yes"/>
      <point x="440" y="403" type="line"/>
      <point x="356" y="478" type="line"/>
    </contour>
    <contour>
      <point x="356" y="599" type="line"/>
      <point x="356" y="435" type="line"/>
      <point x="440" y="403" type="line"/>
      <point x="440" y="599" type="line"/>
    </contour>
    <contour>
      <point x="597" y="594" type="line"/>
      <point x="597" y="32" type="line"/>
      <point x="671" y="32" type="line"/>
      <point x="671" y="594" type="line"/>
    </contour>
    <contour>
      <point x="-20" y="658" type="line"/>
      <point x="-20" y="583" type="line"/>
      <point x="799" y="583" type="line"/>
      <point x="799" y="658" type="line"/>
    </contour>
    <contour>
      <point x="635" y="658" type="move" name="top"/>
    </contour>
    <contour>
      <point x="536" y="-65" type="move" name="bottom"/>
    </contour>
  </outline>
</glyph>
<glyph name="ha_rVocalicMatra-deva" format="1">
  <advance width="584"/>
  <outline>
    <contour>
      <point x="168" y="309"/>
      <point x="68" y="229"/>
      <point x="68" y="109" type="curve" smooth="yes"/>
      <point x="68" y="-41"/>
      <point x="169" y="-132"/>
      <point x="369" y="-160" type="curve"/>
      <point x="382" y="-86" type="line"/>
      <point x="231" y="-63"/>
      <point x="153" y="4"/>
      <point x="153" y="109" type="curve" smooth="yes"/>
      <point x="153" y="185"/>
      <point x="219" y="235"/>
      <point x="318" y="235" type="curve" smooth="yes"/>
      <point x="391" y="235"/>
      <point x="439" y="202"/>
      <point x="454" y="140" type="curve"/>
      <point x="541" y="140" type="line"/>
      <point x="526" y="249"/>
      <point x="447" y="309"/>
      <point x="318" y="309" type="curve" smooth="yes"/>
    </contour>
    <contour>
      <point x="345" y="212"/>
      <point x="285" y="165"/>
      <point x="285" y="83" type="curve" smooth="yes"/>
      <point x="285" y="6"/>
      <point x="345" y="-44"/>
      <point x="437" y="-44" type="curve" smooth="yes"/>
      <point x="474" y="-44"/>
      <point x="509" y="-39"/>
      <point x="544" y="-29" type="curve"/>
      <point x="530" y="48" type="line"/>
      <point x="493" y="36"/>
      <point x="472" y="32"/>
      <point x="445" y="32" type="curve" smooth="yes"/>
      <point x="395" y="32"/>
      <point x="369" y="50"/>
      <point x="369" y="84" type="curve" smooth="yes"/>
      <point x="369" y="121"/>
      <point x="398" y="140"/>
      <point x="454" y="140" type="curve"/>
      <point x="449" y="212" type="line"/>
    </contour>
    <contour>
      <point x="202" y="478" type="line" smooth="yes"/>
      <point x="136" y="478"/>
      <point x="97" y="444"/>
      <point x="97" y="386" type="curve" smooth="yes"/>
      <point x="97" y="322"/>
      <point x="131" y="258"/>
      <point x="193" y="207" type="curve"/>
      <point x="249" y="258" type="line"/>
      <point x="206" y="287"/>
      <point x="181" y="328"/>
      <point x="181" y="369" type="curve" smooth="yes"/>
      <point x="181" y="391"/>
      <point x="193" y="403"/>
      <point x="217" y="403" type="curve" smooth="yes"/>
      <point x="437" y="403" type="line"/>
      <point x="353" y="478" type="line"/>
    </contour>
    <contour>
      <point x="353" y="599" type="line"/>
      <point x="353" y="435" type="line"/>
      <point x="437" y="403" type="line"/>
      <point x="437" y="599" type="line"/>
    </contour>
    <contour>
      <point x="-20" y="658" type="line"/>
      <point x="-20" y="583" type="line"/>
      <point x="604" y="583" type="line"/>
      <point x="604" y="658" type="line"/>
    </contour>
    <contour>
      <point x="396" y="658" type="move" name="top"/>
    </contour>
    <contour>
      <point x="324" y="-118" type="move" name="bottom"/>
    </contour>
  </outline>
</glyph>
<glyph name="ha_uMatra-deva" format="1">
  <advance width="529"/>
  <outline>
    <contour>
      <point x="172" y="309"/>
      <point x="91" y="245"/>
      <point x="91" y="148" type="curve" smooth="yes"/>
      <point x="91" y="46"/>
      <point x="183" y="-32"/>
      <point x="358" y="-56" type="curve" smooth="yes"/>
      <point x="401" y="-62"/>
      <point x="418" y="-71"/>
      <point x="418" y="-102" type="curve" smooth="yes"/>
      <point x="418" y="-145"/>
      <point x="370" y="-161"/>
      <point x="323" y="-161" type="curve" smooth="yes"/>
      <point x="254" y="-161"/>
      <point x="196" y="-132"/>
      <point x="146" y="-70" type="curve"/>
      <point x="88" y="-115" type="line"/>
      <point x="154" y="-199"/>
      <point x="236" y="-235"/>
      <point x="321" y="-235" type="curve" smooth="yes"/>
      <point x="420" y="-235"/>
      <point x="502" y="-191"/>
      <point x="502" y="-92" type="curve" smooth="yes"/>
      <point x="502" y="-24"/>
      <point x="466" y="1"/>
      <point x="371" y="16" type="curve" smooth="yes"/>
      <point x="251" y="35"/>
      <point x="176" y="81"/>
      <point x="176" y="148" type="curve" smooth="yes"/>
      <point x="176" y="205"/>
      <point x="233" y="236"/>
      <point x="294" y="236" type="curve" smooth="yes"/>
      <point x="342" y="236"/>
      <point x="388" y="220"/>
      <point x="391" y="187" type="curve" smooth="yes"/>
      <point x="394" y="153"/>
      <point x="375" y="134"/>
      <point x="346" y="114" type="curve"/>
      <point x="394" y="62" type="line"/>
      <point x="450" y="95"/>
      <point x="476" y="139"/>
      <point x="476" y="190" type="curve" smooth="yes"/>
      <point x="476" y="262"/>
      <point x="403" y="309"/>
      <point x="294" y="309" type="curve" smooth="yes"/>
    </contour>
    <contour>
      <point x="172" y="478" type="line" smooth="yes"/>
      <point x="106" y="478"/>
      <point x="67" y="444"/>
      <point x="67" y="386" type="curve" smooth="yes"/>
      <point x="67" y="322"/>
      <point x="101" y="258"/>
      <point x="163" y="207" type="curve"/>
      <point x="219" y="258" type="line"/>
      <point x="175" y="288"/>
      <point x="151" y="329"/>
      <point x="151" y="369" type="curve" smooth="yes"/>
      <point x="151" y="391"/>
      <point x="163" y="403"/>
      <point x="187" y="403" type="curve" smooth="yes"/>
      <point x="407" y="403" type="line"/>
      <point x="323" y="478" type="line"/>
    </contour>
    <contour>
      <point x="323" y="599" type="line"/>
      <point x="323" y="435" type="line"/>
      <point x="407" y="403" type="line"/>
      <point x="407" y="599" type="line"/>
    </contour>
    <contour>
      <point x="-20" y="658" type="line"/>
      <point x="-20" y="583" type="line"/>
      <point x="549" y="583" type="line"/>
      <point x="549" y="658" type="line"/>
    </contour>
    <contour>
      <point x="366" y="658" type="move" name="top"/>
    </contour>
  </outline>
</glyph>
<glyph name="iMatra-deva.04" format="1">
  <advance width="305"/>
  <outline>
    <contour>
      <point x="181" y="915"/>
      <point x="80" y="855"/>
      <point x="80" y="750" type="curve" smooth="yes"/>
      <point x="80" y="722"/>
      <point x="89" y="682"/>
      <point x="103" y="642" type="curve"/>
      <point x="188" y="642" type="line"/>
      <point x="173" y="666"/>
      <point x="165" y="701"/>
      <point x="165" y="739" type="curve" smooth="yes"/>
      <point x="165" y="806"/>
      <point x="238" y="843"/>
      <point x="412" y="843" type="curve" smooth="yes"/>
      <point x="508" y="843"/>
      <point x="721" y="796"/>
      <point x="879" y="721" type="curve"/>
      <point x="934" y="770" type="line"/>
      <point x="775" y="863"/>
      <point x="548" y="915"/>
      <point x="406" y="915" type="curve" smooth="yes"/>
    </contour>
    <contour>
      <point x="110" y="606" type="line"/>
      <point x="110" y="0" type="line"/>
      <point x="195" y="0" type="line"/>
      <point x="195" y="606" type="line"/>
    </contour>
    <contour>
      <point x="-18" y="658" type="line"/>
      <point x="-18" y="583" type="line"/>
      <point x="324" y="583" type="line"/>
      <point x="324" y="658" type="line"/>
    </contour>
    <contour>
      <point x="934" y="770" type="move" name="imatra"/>
    </contour>
    <contour>
      <point x="153" y="0" type="move" name="bottom"/>
    </contour>
    <contour>
      <point x="934" y="850" type="move" name="top"/>
    </contour>
  </outline>
</glyph>
<glyph name="iMatra-deva.05" format="1">
  <advance width="305"/>
  <outline>
    <contour>
      <point x="189" y="915"/>
      <point x="80" y="855"/>
      <point x="80" y="746" type="curve" smooth="yes"/>
      <point x="80" y="719"/>
      <point x="89" y="680"/>
      <point x="103" y="641" type="curve"/>
      <point x="188" y="641" type="line"/>
      <point x="173" y="665"/>
      <point x="165" y="699"/>
      <point x="165" y="735" type="curve" smooth="yes"/>
      <point x="165" y="806"/>
      <point x="246" y="844"/>
      <point x="447" y="844" type="curve" smooth="yes"/>
      <point x="553" y="844"/>
      <point x="804" y="797"/>
      <point x="992" y="722" type="curve"/>
      <point x="1043" y="774" type="line"/>
      <point x="858" y="864"/>
      <point x="594" y="915"/>
      <point x="442" y="915" type="curve" smooth="yes"/>
    </contour>
    <contour>
      <point x="110" y="606" type="line"/>
      <point x="110" y="0" type="line"/>
      <point x="195" y="0" type="line"/>
      <point x="195" y="606" type="line"/>
    </contour>
    <contour>
      <point x="-18" y="658" type="line"/>
      <point x="-18" y="583" type="line"/>
      <point x="324" y="583" type="line"/>
      <point x="324" y="658" type="line"/>
    </contour>
    <contour>
      <point x="1043" y="774" type="move" name="imatra"/>
    </contour>
    <contour>
      <point x="153" y="0" type="move" name="bottom"/>
    </contour>
    <contour>
      <point x="1043" y="854" type="move" name="top"/>
    </contour>
  </outline>
</glyph>
